<svg width="235" height="33" viewBox="0 0 235 33" fill="none" xmlns="http://www.w3.org/2000/svg">
<path fill-rule="evenodd" clip-rule="evenodd" d="M0 32.6517L1.56728 31.5073C1.56728 31.5073 3.96796 29.741 4.50282 27.415L10.0132 4.9755C10.2993 3.5326 9.98831 1.3807 8.01055 0C8.04787 0 35.7241 0 35.7241 0C35.7241 0 32.7512 6.55522 31.669 8.96834C30.4749 5.87109 28.3977 4.07991 23.8451 4.07991H18.1854L15.9589 12.7L16.9913 12.5258C18.3969 12.3392 19.8398 12.2522 21.32 12.2522C31.5695 12.2522 32.6766 18.0859 32.6766 20.5986C32.6766 26.5816 26.4075 32.6268 14.4165 32.6268H0.012439L0 32.6517ZM12.1029 28.2608C12.2895 28.3852 13.0109 28.5594 15.6479 28.5594C21.0837 28.5594 24.6038 25.3377 24.6038 20.3622C24.6038 16.8794 21.7056 16.1455 19.2676 16.1455C17.5262 16.1455 16.0709 16.3694 15.0384 16.7923C14.9887 16.8172 14.9389 16.8296 14.8892 16.8545L12.1278 28.0618C12.1029 28.1738 12.1029 28.236 12.0905 28.2733L12.1029 28.2608Z" fill="white"/>
<path fill-rule="evenodd" clip-rule="evenodd" d="M51.0605 32.6517C51.0605 32.6517 53.5731 30.674 53.6602 27.6389L53.8095 23.7704L42.4778 23.8078C42.4778 23.8078 40.5622 26.5318 39.5671 27.9996C38.5844 29.4425 39.1939 31.6317 40.6119 32.6517H28.9444L30.0514 31.5695C30.0888 31.5322 33.5965 28.124 34.4548 26.9672L51.7944 4.40332C52.068 4.01772 52.1178 3.4331 52.0432 2.94798C51.8068 1.30607 49.3813 0 49.3813 0H59.1457C60.1283 0 60.8622 0.261214 61.3225 0.758764C61.8449 1.31851 61.8076 1.96532 61.7951 2.03996L61.3598 27.4026C61.4717 30.8854 63.7356 32.6517 63.7356 32.6517H51.0356H51.0605ZM53.909 19.9393L54.4687 7.32642L45.264 19.9393H53.909Z" fill="white"/>
<path fill-rule="evenodd" clip-rule="evenodd" d="M221.384 32.6517C221.384 32.6517 223.884 30.674 223.983 27.6389L224.133 23.7704L213.149 23.8078C213.149 23.8078 211.296 26.5318 210.313 27.9996C209.356 29.4425 210.015 31.6317 211.458 32.6517H199.79L200.885 31.5695C200.922 31.5322 204.368 28.124 205.189 26.9672L221.409 5.27403C222.466 3.70675 221.57 1.1568 219.717 0H229.481C230.464 0 231.198 0.261214 231.658 0.758764C232.181 1.31851 232.143 1.96532 232.131 2.03996L231.695 27.4026C231.807 30.8854 234.892 32.6517 234.892 32.6517H221.384ZM224.232 19.9393L224.792 7.32642L215.849 19.9393H224.232Z" fill="white"/>
<path fill-rule="evenodd" clip-rule="evenodd" d="M68.3874 33C67.2306 32.9627 66.1485 32.5522 66.1485 32.5522L66.0241 32.3905C65.9743 32.3283 64.8175 30.8108 64.8175 29.032C64.8175 27.0294 66.0863 25.4248 66.136 25.3502L66.4843 24.9148L66.957 25.2009C66.957 25.2009 68.2257 25.9348 70.2532 25.9348C70.4149 25.9348 70.5766 25.9348 70.7384 25.9224C73.251 25.7855 75.6143 22.1659 78.3757 14.2051C79.0226 12.3517 80.254 7.51302 80.2789 5.13722C80.3162 2.17679 76.6468 0.0124512 76.6468 0.0124512H99.8699C100.392 0.0124512 100.877 0.248788 101.201 0.659267C101.524 1.06975 101.636 1.59217 101.512 2.10216L95.2302 27.6762C95.1432 28.0245 95.1183 28.236 95.0934 28.3977C94.6207 31.5696 97.1831 32.6642 97.1831 32.6642C97.1831 32.6642 85.5156 32.6642 83.2144 32.6642C84.7444 31.582 86.6848 29.5918 87.4685 27.3279L93.153 4.27894H85.6027C85.5156 4.76405 84.8439 7.4757 84.7319 7.93593C84.2966 9.6898 83.6373 12.3392 82.2939 16.3196C80.6645 21.121 78.4752 25.2755 75.7885 28.6838C72.9524 32.2537 70.191 33 68.3874 33Z" fill="white"/>
<path fill-rule="evenodd" clip-rule="evenodd" d="M105.182 32.6517L107.259 31.4452C107.421 31.3208 108.528 30.4501 109.336 29.1564C109.635 28.634 109.896 28.0369 110.083 27.415C110.083 27.415 115.73 4.34112 115.804 4.03016H114.635C111.936 4.03016 110.381 5.12476 109.647 5.72182C107.719 7.28911 106.202 10.1873 106.202 10.1873L104.498 0H135.644L131.216 10.6227C131.216 10.6227 131.054 7.37618 129.226 5.46061C128.007 4.17942 126.402 4.04259 123.728 4.04259L117.782 27.7508C117.745 27.9499 117.708 28.2235 117.695 28.3977C117.521 30.9725 119.3 32.2785 119.909 32.6517H105.144H105.182Z" fill="white"/>
<path fill-rule="evenodd" clip-rule="evenodd" d="M150.508 32.6517C150.508 32.6517 153.07 30.5993 154.103 27.4648L154.128 27.3901L157.847 12.2771L141.726 27.1662L141.689 27.3155L141.614 27.6638C141.527 27.9996 141.49 28.236 141.478 28.4101C141.478 28.5221 141.478 28.6216 141.478 28.7211C141.813 31.5571 143.878 32.6517 143.878 32.6517H130.432C130.432 32.6517 132.82 31.0347 133.815 27.4275L139.326 4.98795C140.097 2.17679 138.094 0.0124512 138.094 0.0124512H146.204C146.727 0.0124512 147.212 0.248788 147.535 0.659267C147.859 1.06975 147.971 1.59217 147.846 2.10216L143.418 20.213L159.551 5.27404L159.626 4.98795C160.372 1.70412 157.76 0.0124512 157.76 0.0124512H166.554C167.076 0.0124512 167.562 0.248788 167.885 0.659267C168.208 1.06975 168.32 1.59217 168.196 2.10216L161.914 27.6762C161.827 28.0245 161.802 28.2484 161.778 28.4474C161.442 30.9849 164.029 32.6642 164.029 32.6642H150.508V32.6517Z" fill="white"/>
<path fill-rule="evenodd" clip-rule="evenodd" d="M171.107 27.4275C172.948 19.6781 176.593 4.97551 176.68 4.58991C177.152 2.18923 174.627 0.0124512 174.627 0.0124512H183.596C184.118 0.0124512 184.603 0.248788 184.927 0.659267C185.25 1.06975 185.362 1.59217 185.238 2.10216L182.538 13.0607C184.342 12.2895 187.054 10.859 190.089 9.06786C192.925 7.38863 195.226 5.24916 195.45 4.09236C195.773 2.41313 194.455 1.1195 194.442 1.10706L193.298 0.0248902H203.386C204.12 0.0248902 204.766 0.360737 205.09 0.895604C205.351 1.33096 205.351 1.82851 205.115 2.26387C204.306 3.73164 203.013 5.56013 199.53 8.02301C194.579 11.5183 190.163 13.7324 188.584 14.4787C190.014 17.1157 195.35 27.6762 195.699 28.2982C196.42 29.5918 197.266 30.9227 198.87 32.6517H186.158C187.75 31.072 187.278 28.8703 186.768 27.8504C184.516 23.4097 182.638 19.2801 181.531 17.1655C180.374 21.8922 178.931 27.8255 178.819 28.435C178.546 31.3581 180.984 32.6393 180.984 32.6393H167.413C167.413 32.6393 170.274 30.9352 171.107 27.4275Z" fill="white"/>
</svg>
