<svg width="247" height="21" viewBox="0 0 247 21" fill="none" xmlns="http://www.w3.org/2000/svg">
<path d="M0.757813 -6.1512e-05H3.14844V11.7499H3.29688L11.4375 -6.1512e-05H13.6719V15.9999H11.2578V4.26556H11.1094L2.98437 15.9999H0.757813V-6.1512e-05ZM15.064 19.4609V13.9765H16.0405C16.2905 13.7473 16.5015 13.4739 16.6734 13.1562C16.8504 12.8385 16.9989 12.4609 17.1187 12.0234C17.2437 11.5859 17.3478 11.0755 17.4312 10.4921C17.5145 9.90358 17.5874 9.23171 17.6499 8.4765L18.0249 3.99994H26.1812V13.9765H28.0249V19.4609H25.7437V15.9999H17.3765V19.4609H15.064ZM18.5405 13.9765H23.8999V5.99994H20.1187L19.8687 8.4765C19.7489 9.73692 19.5978 10.8307 19.4155 11.7578C19.2333 12.6796 18.9416 13.4192 18.5405 13.9765ZM34.71 16.2421C33.5277 16.2421 32.5095 15.9895 31.6553 15.4843C30.8064 14.9739 30.1501 14.2578 29.6866 13.3359C29.2282 12.4088 28.9991 11.3229 28.9991 10.0781C28.9991 8.8489 29.2282 7.76556 29.6866 6.82806C30.1501 5.89056 30.7959 5.15879 31.6241 4.63275C32.4574 4.10671 33.4314 3.84369 34.5459 3.84369C35.223 3.84369 35.8793 3.95567 36.5147 4.17963C37.1501 4.40358 37.7204 4.75515 38.2256 5.23431C38.7308 5.71348 39.1293 6.33588 39.4209 7.1015C39.7126 7.86192 39.8584 8.7864 39.8584 9.87494V10.7031H30.3194V8.95306H37.5694C37.5694 8.33848 37.4444 7.79421 37.1944 7.32025C36.9444 6.84108 36.5928 6.46348 36.1397 6.18744C35.6918 5.9114 35.1657 5.77338 34.5616 5.77338C33.9053 5.77338 33.3324 5.93483 32.8428 6.25775C32.3584 6.57546 31.9834 6.99213 31.7178 7.50775C31.4574 8.01817 31.3272 8.57286 31.3272 9.17181V10.539C31.3272 11.3411 31.4678 12.0234 31.7491 12.5859C32.0355 13.1484 32.434 13.5781 32.9444 13.8749C33.4548 14.1666 34.0511 14.3124 34.7334 14.3124C35.1761 14.3124 35.5798 14.2499 35.9444 14.1249C36.309 13.9947 36.6241 13.802 36.8897 13.5468C37.1553 13.2916 37.3584 12.9765 37.4991 12.6015L39.71 12.9999C39.5329 13.651 39.2152 14.2213 38.7569 14.7109C38.3037 15.1953 37.7334 15.5729 37.0459 15.8437C36.3636 16.1093 35.585 16.2421 34.71 16.2421ZM43.9693 12.7265L49.2584 3.99994H51.774V15.9999H49.4849V7.26556L44.2193 15.9999H41.6802V3.99994H43.9693V12.7265ZM58.025 19.4609V13.9765H59.0016C59.2516 13.7473 59.4625 13.4739 59.6344 13.1562C59.8115 12.8385 59.9599 12.4609 60.0797 12.0234C60.2047 11.5859 60.3089 11.0755 60.3922 10.4921C60.4755 9.90358 60.5484 9.23171 60.6109 8.4765L60.9859 3.99994H69.1422V13.9765H70.9859V19.4609H68.7047V15.9999H60.3375V19.4609H58.025ZM61.5016 13.9765H66.8609V5.99994H63.0797L62.8297 8.4765C62.7099 9.73692 62.5589 10.8307 62.3766 11.7578C62.1943 12.6796 61.9026 13.4192 61.5016 13.9765ZM71.5538 15.9999L71.546 13.9765H71.9757C72.309 13.9765 72.5877 13.9062 72.8116 13.7656C73.0408 13.6197 73.2283 13.3749 73.3741 13.0312C73.52 12.6874 73.632 12.2135 73.7101 11.6093C73.7882 10.9999 73.8455 10.2343 73.882 9.31244L74.0929 3.99994H82.4679V15.9999H80.1788V6.01556H76.257L76.0695 10.0937C76.0226 11.0833 75.921 11.9479 75.7648 12.6874C75.6137 13.427 75.3924 14.0442 75.1007 14.539C74.809 15.0286 74.434 15.3958 73.9757 15.6406C73.5174 15.8801 72.9601 15.9999 72.3038 15.9999H71.5538ZM91.9694 15.9999V5.99213H89.0944C88.4121 5.99213 87.8808 6.15098 87.5006 6.46869C87.1204 6.7864 86.9303 7.20306 86.9303 7.71869C86.9303 8.22911 87.1048 8.64056 87.4538 8.95306C87.8079 9.26036 88.3027 9.414 88.9381 9.414H92.6491V11.3046H88.9381C88.0527 11.3046 87.2871 11.1588 86.6413 10.8671C86.0006 10.5703 85.5058 10.151 85.1569 9.60931C84.8131 9.06765 84.6413 8.42702 84.6413 7.68744C84.6413 6.93223 84.8183 6.28119 85.1725 5.73431C85.5319 5.18223 86.0449 4.75515 86.7116 4.45306C87.3834 4.15098 88.1777 3.99994 89.0944 3.99994H94.1647V15.9999H91.9694ZM84.0944 15.9999L87.4772 9.93744H89.8678L86.485 15.9999H84.0944ZM100.611 15.9999L100.603 13.9765H101.033C101.366 13.9765 101.645 13.9062 101.869 13.7656C102.098 13.6197 102.285 13.3749 102.431 13.0312C102.577 12.6874 102.689 12.2135 102.767 11.6093C102.845 10.9999 102.903 10.2343 102.939 9.31244L103.15 3.99994H111.525V15.9999H109.236V6.01556H105.314L105.127 10.0937C105.08 11.0833 104.978 11.9479 104.822 12.6874C104.671 13.427 104.45 14.0442 104.158 14.539C103.866 15.0286 103.491 15.3958 103.033 15.6406C102.575 15.8801 102.017 15.9999 101.361 15.9999H100.611ZM119.042 16.2421C117.86 16.2421 116.842 15.9895 115.988 15.4843C115.139 14.9739 114.482 14.2578 114.019 13.3359C113.56 12.4088 113.331 11.3229 113.331 10.0781C113.331 8.8489 113.56 7.76556 114.019 6.82806C114.482 5.89056 115.128 5.15879 115.956 4.63275C116.79 4.10671 117.764 3.84369 118.878 3.84369C119.555 3.84369 120.211 3.95567 120.847 4.17963C121.482 4.40358 122.053 4.75515 122.558 5.23431C123.063 5.71348 123.461 6.33588 123.753 7.1015C124.045 7.86192 124.191 8.7864 124.191 9.87494V10.7031H114.652V8.95306H121.902C121.902 8.33848 121.777 7.79421 121.527 7.32025C121.277 6.84108 120.925 6.46348 120.472 6.18744C120.024 5.9114 119.498 5.77338 118.894 5.77338C118.238 5.77338 117.665 5.93483 117.175 6.25775C116.691 6.57546 116.316 6.99213 116.05 7.50775C115.79 8.01817 115.659 8.57286 115.659 9.17181V10.539C115.659 11.3411 115.8 12.0234 116.081 12.5859C116.368 13.1484 116.766 13.5781 117.277 13.8749C117.787 14.1666 118.383 14.3124 119.066 14.3124C119.508 14.3124 119.912 14.2499 120.277 14.1249C120.641 13.9947 120.956 13.802 121.222 13.5468C121.488 13.2916 121.691 12.9765 121.831 12.6015L124.042 12.9999C123.865 13.651 123.547 14.2213 123.089 14.7109C122.636 15.1953 122.066 15.5729 121.378 15.8437C120.696 16.1093 119.917 16.2421 119.042 16.2421ZM124.954 6.01556V3.99994H135.079V6.01556H131.165V15.9999H128.884V6.01556H124.954ZM144.912 8.99213V11.0156H138.412V8.99213H144.912ZM139.069 3.99994V15.9999H136.78V3.99994H139.069ZM146.545 3.99994V15.9999H144.264V3.99994H146.545ZM151.189 12.7265L156.478 3.99994H158.994V15.9999H156.705V7.26556L151.439 15.9999H148.9V3.99994H151.189V12.7265ZM163.208 3.99994L165.857 8.67181L168.529 3.99994H171.083L167.341 9.99994L171.115 15.9999H168.56L165.857 11.5156L163.161 15.9999H160.599L164.333 9.99994L160.646 3.99994H163.208ZM177.764 15.9999V3.99994H182.741C184.095 3.99994 185.168 4.289 185.959 4.86713C186.751 5.44004 187.147 6.21869 187.147 7.20306C187.147 7.90619 186.923 8.46348 186.475 8.87494C186.027 9.2864 185.433 9.56244 184.694 9.70306C185.23 9.76556 185.722 9.92702 186.17 10.1874C186.618 10.4426 186.978 10.7864 187.248 11.2187C187.524 11.651 187.662 12.1666 187.662 12.7656C187.662 13.401 187.498 13.9635 187.17 14.4531C186.842 14.9374 186.366 15.3176 185.741 15.5937C185.121 15.8645 184.373 15.9999 183.498 15.9999H177.764ZM179.959 14.0468H183.498C184.076 14.0468 184.53 13.9088 184.858 13.6328C185.186 13.3567 185.35 12.9817 185.35 12.5078C185.35 11.9505 185.186 11.513 184.858 11.1953C184.53 10.8723 184.076 10.7109 183.498 10.7109H179.959V14.0468ZM179.959 8.99994H182.764C183.201 8.99994 183.576 8.93744 183.889 8.81244C184.207 8.68744 184.449 8.51036 184.616 8.28119C184.787 8.04681 184.873 7.77077 184.873 7.45306C184.873 6.98952 184.683 6.62754 184.303 6.36713C183.923 6.10671 183.402 5.9765 182.741 5.9765H179.959V8.99994ZM194.51 16.2421C193.348 16.2421 192.348 15.9791 191.51 15.4531C190.676 14.9218 190.036 14.19 189.588 13.2578C189.14 12.3255 188.916 11.2578 188.916 10.0546C188.916 8.83588 189.145 7.76036 189.603 6.82806C190.062 5.89056 190.708 5.15879 191.541 4.63275C192.374 4.10671 193.356 3.84369 194.486 3.84369C195.398 3.84369 196.21 4.01296 196.924 4.3515C197.637 4.68483 198.213 5.15358 198.65 5.75775C199.093 6.36192 199.356 7.06765 199.439 7.87494H197.166C197.041 7.31244 196.754 6.82806 196.306 6.42181C195.864 6.01556 195.27 5.81244 194.525 5.81244C193.874 5.81244 193.304 5.98431 192.814 6.32806C192.33 6.66661 191.952 7.15098 191.681 7.78119C191.411 8.40619 191.275 9.14577 191.275 9.99994C191.275 10.8749 191.408 11.6301 191.674 12.2656C191.939 12.901 192.314 13.3932 192.799 13.7421C193.288 14.0911 193.864 14.2656 194.525 14.2656C194.968 14.2656 195.369 14.1848 195.728 14.0234C196.093 13.8567 196.398 13.6197 196.642 13.3124C196.892 13.0051 197.067 12.6354 197.166 12.2031H199.439C199.356 12.9791 199.103 13.6718 198.681 14.2812C198.26 14.8906 197.695 15.3697 196.986 15.7187C196.283 16.0676 195.458 16.2421 194.51 16.2421ZM200.259 6.01556V3.99994H210.384V6.01556H206.47V15.9999H204.189V6.01556H200.259ZM212.085 20.4999V3.99994H214.366V5.94525H214.561C214.697 5.69525 214.892 5.40619 215.147 5.07806C215.403 4.74994 215.757 4.46348 216.21 4.21869C216.663 3.96869 217.262 3.84369 218.007 3.84369C218.975 3.84369 219.84 4.08848 220.6 4.57806C221.361 5.06765 221.957 5.77338 222.39 6.69525C222.827 7.61713 223.046 8.7265 223.046 10.0234C223.046 11.3203 222.83 12.4322 222.397 13.3593C221.965 14.2812 221.371 14.9921 220.616 15.4921C219.861 15.9869 218.999 16.2343 218.03 16.2343C217.301 16.2343 216.705 16.1119 216.241 15.8671C215.783 15.6223 215.423 15.3359 215.163 15.0078C214.903 14.6796 214.702 14.388 214.561 14.1328H214.421V20.4999H212.085ZM214.374 9.99994C214.374 10.8437 214.496 11.5833 214.741 12.2187C214.986 12.8541 215.34 13.3515 215.804 13.7109C216.267 14.065 216.835 14.2421 217.507 14.2421C218.205 14.2421 218.788 14.0572 219.257 13.6874C219.725 13.3124 220.08 12.8046 220.319 12.164C220.564 11.5234 220.686 10.802 220.686 9.99994C220.686 9.20827 220.567 8.49733 220.327 7.86713C220.093 7.23692 219.738 6.73952 219.265 6.37494C218.796 6.01036 218.21 5.82806 217.507 5.82806C216.83 5.82806 216.257 6.00254 215.788 6.3515C215.324 6.70046 214.973 7.18744 214.733 7.81244C214.494 8.43744 214.374 9.16661 214.374 9.99994ZM230.065 16.2421C228.883 16.2421 227.864 15.9895 227.01 15.4843C226.161 14.9739 225.505 14.2578 225.041 13.3359C224.583 12.4088 224.354 11.3229 224.354 10.0781C224.354 8.8489 224.583 7.76556 225.041 6.82806C225.505 5.89056 226.151 5.15879 226.979 4.63275C227.812 4.10671 228.786 3.84369 229.901 3.84369C230.578 3.84369 231.234 3.95567 231.87 4.17963C232.505 4.40358 233.075 4.75515 233.58 5.23431C234.086 5.71348 234.484 6.33588 234.776 7.1015C235.067 7.86192 235.213 8.7864 235.213 9.87494V10.7031H225.674V8.95306H232.924C232.924 8.33848 232.799 7.79421 232.549 7.32025C232.299 6.84108 231.948 6.46348 231.495 6.18744C231.047 5.9114 230.521 5.77338 229.916 5.77338C229.26 5.77338 228.687 5.93483 228.198 6.25775C227.713 6.57546 227.338 6.99213 227.073 7.50775C226.812 8.01817 226.682 8.57286 226.682 9.17181V10.539C226.682 11.3411 226.823 12.0234 227.104 12.5859C227.39 13.1484 227.789 13.5781 228.299 13.8749C228.81 14.1666 229.406 14.3124 230.088 14.3124C230.531 14.3124 230.935 14.2499 231.299 14.1249C231.664 13.9947 231.979 13.802 232.245 13.5468C232.51 13.2916 232.713 12.9765 232.854 12.6015L235.065 12.9999C234.888 13.651 234.57 14.2213 234.112 14.7109C233.659 15.1953 233.088 15.5729 232.401 15.8437C231.718 16.1093 230.94 16.2421 230.065 16.2421ZM246.668 3.99994V15.9999H244.387V3.99994H246.668ZM245.676 9.57025V11.5859C245.316 11.7317 244.936 11.8619 244.535 11.9765C244.134 12.0859 243.712 12.1718 243.269 12.2343C242.827 12.2968 242.366 12.3281 241.887 12.3281C240.402 12.3281 239.223 11.9661 238.348 11.2421C237.473 10.513 237.035 9.39838 237.035 7.89838V3.9765H239.309V7.89838C239.309 8.46608 239.413 8.92702 239.621 9.28119C239.829 9.63536 240.126 9.89577 240.512 10.0624C240.897 10.2291 241.355 10.3124 241.887 10.3124C242.59 10.3124 243.238 10.2473 243.832 10.1171C244.431 9.98171 245.045 9.79942 245.676 9.57025Z" fill="white"/>
<path d="M0.757813 -6.1512e-05V-9.10798H-8.3501V-6.1512e-05H0.757813ZM3.14844 -6.1512e-05H12.2564V-9.10798H3.14844V-6.1512e-05ZM3.14844 11.7499H-5.95948V20.8579H3.14844V11.7499ZM3.29688 11.7499V20.8579H8.06699L10.7835 16.9368L3.29688 11.7499ZM11.4375 -6.1512e-05V-9.10798H6.66739L3.95084 -5.18697L11.4375 -6.1512e-05ZM13.6719 -6.1512e-05H22.7798V-9.10798H13.6719V-6.1512e-05ZM13.6719 15.9999V25.1079H22.7798V15.9999H13.6719ZM11.2578 15.9999H2.1499V25.1079H11.2578V15.9999ZM11.2578 4.26556H20.3657V-4.84235H11.2578V4.26556ZM11.1094 4.26556V-4.84235H6.33766L3.62128 -0.919271L11.1094 4.26556ZM2.98437 15.9999V25.1079H7.75609L10.4725 21.1848L2.98437 15.9999ZM0.757813 15.9999H-8.3501V25.1079H0.757813V15.9999ZM0.757813 9.10785H3.14844V-9.10798H0.757813V9.10785ZM-5.95948 -6.1512e-05V11.7499H12.2564V-6.1512e-05H-5.95948ZM3.14844 20.8579H3.29688V2.64202H3.14844V20.8579ZM10.7835 16.9368L18.9242 5.18684L3.95084 -5.18697L-4.18979 6.56303L10.7835 16.9368ZM11.4375 9.10785H13.6719V-9.10798H11.4375V9.10785ZM4.56396 -6.1512e-05V15.9999H22.7798V-6.1512e-05H4.56396ZM13.6719 6.89202H11.2578V25.1079H13.6719V6.89202ZM20.3657 15.9999V4.26556H2.1499V15.9999H20.3657ZM11.2578 -4.84235H11.1094V13.3735H11.2578V-4.84235ZM3.62128 -0.919271L-4.50372 10.8151L10.4725 21.1848L18.5975 9.4504L3.62128 -0.919271ZM2.98437 6.89202H0.757813V25.1079H2.98437V6.89202ZM9.86573 15.9999V-6.1512e-05H-8.3501V15.9999H9.86573ZM15.064 19.4609H5.95607V28.5688H15.064V19.4609ZM15.064 13.9765V4.86859H5.95607V13.9765H15.064ZM16.0405 13.9765V23.0844H19.5834L22.195 20.6904L16.0405 13.9765ZM16.6734 13.1562L8.71777 8.72192L8.68984 8.77202L8.66255 8.82247L16.6734 13.1562ZM17.1187 12.0234L8.36119 9.52124L8.34738 9.56958L8.3341 9.61808L17.1187 12.0234ZM17.4312 10.4921L26.4476 11.7802L26.4491 11.769L17.4312 10.4921ZM17.6499 8.4765L8.57379 7.7162L8.57304 7.72531L17.6499 8.4765ZM18.0249 3.99994V-5.10798H9.64807L8.9488 3.23963L18.0249 3.99994ZM26.1812 3.99994H35.2891V-5.10798H26.1812V3.99994ZM26.1812 13.9765H17.0733V23.0844H26.1812V13.9765ZM28.0249 13.9765H37.1328V4.86859H28.0249V13.9765ZM28.0249 19.4609V28.5688H37.1328V19.4609H28.0249ZM25.7437 19.4609H16.6358V28.5688H25.7437V19.4609ZM25.7437 15.9999H34.8516V6.89202H25.7437V15.9999ZM17.3765 15.9999V6.89202H8.26857V15.9999H17.3765ZM17.3765 19.4609V28.5688H26.4844V19.4609H17.3765ZM18.5405 13.9765L11.1479 8.65652L18.5405 23.0844V13.9765ZM23.8999 13.9765V23.0844H33.0078V13.9765H23.8999ZM23.8999 5.99994H33.0078V-3.10798H23.8999V5.99994ZM20.1187 5.99994V-3.10798H11.8839L11.0568 5.08518L20.1187 5.99994ZM19.8687 8.4765L10.8068 7.56174L10.8041 7.58824L10.8016 7.61476L19.8687 8.4765ZM19.4155 11.7578L28.3505 13.5245L28.3523 13.515L19.4155 11.7578ZM24.1719 19.4609V13.9765H5.95607V19.4609H24.1719ZM15.064 23.0844H16.0405V4.86859H15.064V23.0844ZM22.195 20.6904C23.2392 19.7333 24.0617 18.6405 24.6842 17.4899L8.66255 8.82247C8.94124 8.30732 9.34191 7.76141 9.8861 7.26256L22.195 20.6904ZM24.6289 17.5905C25.238 16.4977 25.6352 15.4075 25.9032 14.4287L8.3341 9.61808C8.36254 9.51423 8.46285 9.17927 8.71777 8.72192L24.6289 17.5905ZM25.8761 14.5255C26.1424 13.5935 26.3217 12.661 26.4475 11.7802L8.4148 9.20407C8.3954 9.33981 8.37828 9.43388 8.36657 9.49122C8.3547 9.54943 8.35109 9.55662 8.36119 9.52124L25.8761 14.5255ZM26.4491 11.769C26.5628 10.9662 26.6535 10.1136 26.7268 9.22769L8.57304 7.72531C8.52135 8.34982 8.4662 8.841 8.41321 9.21525L26.4491 11.769ZM26.726 9.23681L27.101 4.76024L8.9488 3.23963L8.5738 7.7162L26.726 9.23681ZM18.0249 13.1079H26.1812V-5.10798H18.0249V13.1079ZM17.0733 3.99994V13.9765H35.2891V3.99994H17.0733ZM26.1812 23.0844H28.0249V4.86859H26.1812V23.0844ZM18.917 13.9765V19.4609H37.1328V13.9765H18.917ZM28.0249 10.353H25.7437V28.5688H28.0249V10.353ZM34.8516 19.4609V15.9999H16.6358V19.4609H34.8516ZM25.7437 6.89202H17.3765V25.1079H25.7437V6.89202ZM8.26857 15.9999V19.4609H26.4844V15.9999H8.26857ZM17.3765 10.353H15.064V28.5688H17.3765V10.353ZM18.5405 23.0844H23.8999V4.86859H18.5405V23.0844ZM33.0078 13.9765V5.99994H14.792V13.9765H33.0078ZM23.8999 -3.10798H20.1187V15.1079H23.8999V-3.10798ZM11.0568 5.08518L10.8068 7.56174L28.9305 9.39126L29.1805 6.9147L11.0568 5.08518ZM10.8016 7.61476C10.7015 8.66854 10.5871 9.44955 10.4788 10.0005L28.3523 13.515C28.6086 12.2118 28.7963 10.8053 28.9357 9.33825L10.8016 7.61476ZM10.4806 9.99096C10.4637 10.0764 10.5594 9.47427 11.1479 8.65652L25.9332 19.2965C27.3238 17.3641 28.0028 15.2828 28.3505 13.5245L10.4806 9.99096ZM31.6553 15.4843L26.9623 23.2901L26.9904 23.307L27.0186 23.3237L31.6553 15.4843ZM29.6866 13.3359L21.5219 17.3723L21.5356 17.3999L21.5494 17.4274L29.6866 13.3359ZM29.6866 6.82806L21.5221 2.79121L21.5131 2.80947L21.5042 2.82778L29.6866 6.82806ZM31.6241 4.63275L26.7623 -3.06904L26.7514 -3.06215L26.7405 -3.05522L31.6241 4.63275ZM36.5147 4.17963L39.5423 -4.41035L39.5423 -4.41035L36.5147 4.17963ZM38.2256 5.23431L31.9579 11.8426L31.9579 11.8426L38.2256 5.23431ZM39.4209 7.1015L30.9097 10.3439L30.9134 10.3536L30.9171 10.3632L39.4209 7.1015ZM39.8584 10.7031V19.811H48.9664V10.7031H39.8584ZM30.3194 10.7031H21.2115V19.811H30.3194V10.7031ZM30.3194 8.95306V-0.154851H21.2115V8.95306H30.3194ZM37.5694 8.95306V18.061H46.6773V8.95306H37.5694ZM37.1944 7.32025L29.1194 11.5333L29.1289 11.5514L29.1385 11.5695L37.1944 7.32025ZM36.1397 6.18744L31.3612 13.9412L31.3812 13.9535L31.4012 13.9657L36.1397 6.18744ZM32.8428 6.25775L37.8381 13.8736L37.8479 13.8672L37.8576 13.8608L32.8428 6.25775ZM31.7178 7.50775L23.6211 3.33672L23.6129 3.35258L23.6048 3.36847L31.7178 7.50775ZM31.7491 12.5859L23.6027 16.6591L23.6177 16.6891L23.633 16.7191L31.7491 12.5859ZM32.9444 13.8749L28.3652 21.748L28.3953 21.7655L28.4256 21.7828L32.9444 13.8749ZM35.9444 14.1249L38.8983 22.7405L38.9531 22.7217L39.0077 22.7022L35.9444 14.1249ZM36.8897 13.5468L30.5795 6.97905L30.5795 6.97906L36.8897 13.5468ZM37.4991 12.6015L39.1144 3.63797L31.6384 2.2907L28.9711 9.4035L37.4991 12.6015ZM39.71 12.9999L48.4986 15.3904L51.1074 5.79926L41.3253 4.03641L39.71 12.9999ZM38.7569 14.7109L32.1079 8.48631L32.1056 8.48874L38.7569 14.7109ZM37.0459 15.8437L40.3502 24.3311L40.3672 24.3245L40.3842 24.3178L37.0459 15.8437ZM34.71 7.13421C34.8451 7.13421 35.4946 7.17332 36.292 7.64497L27.0186 23.3237C29.5244 24.8057 32.2103 25.35 34.71 25.35V7.13421ZM36.3483 7.67857C36.6587 7.86517 36.9667 8.11129 37.2414 8.41106C37.5142 8.70879 37.7021 9.00239 37.8237 9.24431L21.5494 17.4274C22.7528 19.8207 24.5738 21.8541 26.9623 23.2901L36.3483 7.67857ZM37.8512 9.29943C38.1272 9.85766 38.107 10.2044 38.107 10.0781H19.8911C19.8911 12.4413 20.3293 14.9599 21.5219 17.3723L37.8512 9.29943ZM38.107 10.0781C38.107 9.99027 38.1188 10.3173 37.869 10.8284L21.5042 2.82778C20.3376 5.21381 19.8911 7.70752 19.8911 10.0781H38.107ZM37.851 10.8649C37.7525 11.0642 37.5919 11.3258 37.3473 11.6029C37.1003 11.8829 36.8131 12.1267 36.5076 12.3207L26.7405 -3.05522C24.4116 -1.57585 22.6738 0.462022 21.5221 2.79121L37.851 10.8649ZM36.4858 12.3345C36.1144 12.569 35.725 12.7337 35.3541 12.8339C34.9907 12.932 34.7077 12.9516 34.5459 12.9516V-5.26423C31.9421 -5.26423 29.2351 -4.62995 26.7623 -3.06904L36.4858 12.3345ZM34.5459 12.9516C34.197 12.9516 33.8292 12.8902 33.4871 12.7696L39.5423 -4.41035C37.9293 -4.97885 36.249 -5.26423 34.5459 -5.26423V12.9516ZM33.4871 12.7696C32.8744 12.5537 32.3496 12.2141 31.9579 11.8426L44.4933 -1.37402C43.0912 -2.70382 41.4258 -3.74649 39.5423 -4.41035L33.4871 12.7696ZM31.9579 11.8426C31.3122 11.2302 31.0189 10.6304 30.9097 10.3439L47.9322 3.85913C47.2397 2.04134 46.1495 0.19674 44.4933 -1.37402L31.9579 11.8426ZM30.9171 10.3632C30.8038 10.0678 30.7644 9.86067 30.7524 9.78437C30.7405 9.70874 30.7505 9.73121 30.7505 9.87494H48.9664C48.9664 8.02441 48.7252 5.92664 47.9248 3.83976L30.9171 10.3632ZM30.7505 9.87494V10.7031H48.9664V9.87494H30.7505ZM39.8584 1.59515H30.3194V19.811H39.8584V1.59515ZM39.4273 10.7031V8.95306H21.2115V10.7031H39.4273ZM30.3194 18.061H37.5694V-0.154851H30.3194V18.061ZM46.6773 8.95306C46.6773 7.07678 46.2867 5.03581 45.2503 3.07097L29.1385 11.5695C28.6021 10.5526 28.4615 9.60018 28.4615 8.95306H46.6773ZM45.2693 3.10724C44.2674 1.18694 42.7747 -0.435431 40.8782 -1.5908L31.4012 13.9657C30.4109 13.3624 29.6213 12.4952 29.1194 11.5333L45.2693 3.10724ZM40.9181 -1.5663C38.8307 -2.85274 36.5979 -3.33454 34.5616 -3.33454V14.8813C33.7336 14.8813 32.5528 14.6755 31.3612 13.9412L40.9181 -1.5663ZM34.5616 -3.33454C32.342 -3.33454 29.9792 -2.76412 27.828 -1.34529L37.8576 13.8608C36.6856 14.6338 35.4686 14.8813 34.5616 14.8813V-3.33454ZM27.8475 -1.35808C26.0478 -0.177608 24.6052 1.42648 23.6211 3.33672L39.8145 11.6788C39.3617 12.5578 38.6691 13.3285 37.8381 13.8736L27.8475 -1.35808ZM23.6048 3.36847C22.6606 5.21923 22.2193 7.20108 22.2193 9.17181H40.4351C40.4351 9.94464 40.2542 10.8171 39.8308 11.647L23.6048 3.36847ZM22.2193 9.17181V10.539H40.4351V9.17181H22.2193ZM22.2193 10.539C22.2193 12.3771 22.5394 14.5324 23.6027 16.6591L39.8954 8.5127C40.3962 9.51433 40.4351 10.305 40.4351 10.539H22.2193ZM23.633 16.7191C24.6569 18.7296 26.2349 20.509 28.3652 21.748L37.5236 6.00189C38.633 6.64714 39.4142 7.56716 39.8651 8.45268L23.633 16.7191ZM28.4256 21.7828C30.5195 22.9793 32.7233 23.4204 34.7334 23.4204V5.20452C35.379 5.20452 36.3901 5.35386 37.4632 5.96705L28.4256 21.7828ZM34.7334 23.4204C36.0343 23.4204 37.4533 23.2359 38.8983 22.7405L32.9905 5.50934C33.7062 5.26393 34.3179 5.20452 34.7334 5.20452V23.4204ZM39.0077 22.7022C40.5213 22.1617 41.959 21.3068 43.1999 20.1146L30.5795 6.97906C31.2891 6.29724 32.0966 5.82779 32.8811 5.54763L39.0077 22.7022ZM43.1999 20.1146C44.5308 18.8358 45.4507 17.3364 46.0271 15.7995L28.9711 9.4035C29.2661 8.6166 29.7798 7.74739 30.5795 6.97905L43.1999 20.1146ZM35.8837 21.565L38.0947 21.9635L41.3253 4.03641L39.1144 3.63797L35.8837 21.565ZM30.9214 10.6094C31.1317 9.83614 31.5446 9.08796 32.1079 8.48631L45.4058 20.9354C46.8858 19.3546 47.9341 17.4658 48.4986 15.3904L30.9214 10.6094ZM32.1056 8.48874C32.6766 7.87834 33.282 7.53728 33.7077 7.36961L40.3842 24.3178C42.1848 23.6084 43.9309 22.5122 45.4081 20.933L32.1056 8.48874ZM33.7417 7.35629C34.2964 7.14034 34.67 7.13421 34.71 7.13421V25.35C36.5 25.35 38.4309 25.0783 40.3502 24.3311L33.7417 7.35629ZM43.9693 12.7265H34.8614L51.7583 17.4473L43.9693 12.7265ZM49.2584 3.99994V-5.10798H44.1284L41.4694 -0.720864L49.2584 3.99994ZM51.774 3.99994H60.8819V-5.10798H51.774V3.99994ZM51.774 15.9999V25.1079H60.8819V15.9999H51.774ZM49.4849 15.9999H40.377V25.1079H49.4849V15.9999ZM49.4849 7.26556H58.5928L41.6848 2.56317L49.4849 7.26556ZM44.2193 15.9999V25.1079H49.3635L52.0194 20.7023L44.2193 15.9999ZM41.6802 15.9999H32.5723V25.1079H41.6802V15.9999ZM41.6802 3.99994V-5.10798H32.5723V3.99994H41.6802ZM43.9693 3.99994H53.0772V-5.10798H43.9693V3.99994ZM51.7583 17.4473L57.0473 8.72074L41.4694 -0.720864L36.1803 8.0057L51.7583 17.4473ZM49.2584 13.1079H51.774V-5.10798H49.2584V13.1079ZM42.6661 3.99994V15.9999H60.8819V3.99994H42.6661ZM51.774 6.89202H49.4849V25.1079H51.774V6.89202ZM58.5928 15.9999V7.26556H40.377V15.9999H58.5928ZM41.6848 2.56317L36.4192 11.2975L52.0194 20.7023L57.285 11.968L41.6848 2.56317ZM44.2193 6.89202H41.6802V25.1079H44.2193V6.89202ZM50.7881 15.9999V3.99994H32.5723V15.9999H50.7881ZM41.6802 13.1079H43.9693V-5.10798H41.6802V13.1079ZM34.8614 3.99994V12.7265H53.0772V3.99994H34.8614ZM58.025 19.4609H48.9171V28.5688H58.025V19.4609ZM58.025 13.9765V4.86859H48.9171V13.9765H58.025ZM59.0016 13.9765V23.0844H62.5444L65.156 20.6904L59.0016 13.9765ZM59.6344 13.1562L51.6788 8.72192L51.6509 8.77202L51.6236 8.82247L59.6344 13.1562ZM60.0797 12.0234L51.3222 9.52124L51.3084 9.56958L51.2951 9.61808L60.0797 12.0234ZM60.3922 10.4921L69.4086 11.7802L69.4102 11.769L60.3922 10.4921ZM60.6109 8.4765L51.5348 7.7162L51.5341 7.72531L60.6109 8.4765ZM60.9859 3.99994V-5.10798H52.6091L51.9098 3.23963L60.9859 3.99994ZM69.1422 3.99994H78.2501V-5.10798H69.1422V3.99994ZM69.1422 13.9765H60.0343V23.0844H69.1422V13.9765ZM70.9859 13.9765H80.0939V4.86859H70.9859V13.9765ZM70.9859 19.4609V28.5688H80.0939V19.4609H70.9859ZM68.7047 19.4609H59.5968V28.5688H68.7047V19.4609ZM68.7047 15.9999H77.8126V6.89202H68.7047V15.9999ZM60.3375 15.9999V6.89202H51.2296V15.9999H60.3375ZM60.3375 19.4609V28.5688H69.4454V19.4609H60.3375ZM61.5016 13.9765L54.1089 8.65652L61.5016 23.0844V13.9765ZM66.8609 13.9765V23.0844H75.9689V13.9765H66.8609ZM66.8609 5.99994H75.9689V-3.10798H66.8609V5.99994ZM63.0797 5.99994V-3.10798H54.8449L54.0178 5.08518L63.0797 5.99994ZM62.8297 8.4765L53.7678 7.56174L53.7652 7.58824L53.7626 7.61476L62.8297 8.4765ZM62.3766 11.7578L71.3115 13.5245L71.3134 13.515L62.3766 11.7578ZM67.1329 19.4609V13.9765H48.9171V19.4609H67.1329ZM58.025 23.0844H59.0016V4.86859H58.025V23.0844ZM65.156 20.6904C66.2002 19.7333 67.0227 18.6405 67.6452 17.4899L51.6236 8.82247C51.9023 8.30732 52.3029 7.76141 52.8471 7.26256L65.156 20.6904ZM67.59 17.5905C68.199 16.4977 68.5962 15.4075 68.8643 14.4287L51.2951 9.61808C51.3236 9.51423 51.4239 9.17927 51.6788 8.72192L67.59 17.5905ZM68.8372 14.5255C69.1035 13.5935 69.2827 12.661 69.4086 11.7802L51.3758 9.20407C51.3564 9.33981 51.3393 9.43388 51.3276 9.49122C51.3157 9.54943 51.3121 9.55662 51.3222 9.52124L68.8372 14.5255ZM69.4102 11.769C69.5238 10.9662 69.6145 10.1136 69.6878 9.22769L51.5341 7.72531C51.4824 8.34982 51.4272 8.841 51.3742 9.21525L69.4102 11.769ZM69.6871 9.23681L70.0621 4.76024L51.9098 3.23963L51.5348 7.7162L69.6871 9.23681ZM60.9859 13.1079H69.1422V-5.10798H60.9859V13.1079ZM60.0343 3.99994V13.9765H78.2501V3.99994H60.0343ZM69.1422 23.0844H70.9859V4.86859H69.1422V23.0844ZM61.878 13.9765V19.4609H80.0939V13.9765H61.878ZM70.9859 10.353H68.7047V28.5688H70.9859V10.353ZM77.8126 19.4609V15.9999H59.5968V19.4609H77.8126ZM68.7047 6.89202H60.3375V25.1079H68.7047V6.89202ZM51.2296 15.9999V19.4609H69.4454V15.9999H51.2296ZM60.3375 10.353H58.025V28.5688H60.3375V10.353ZM61.5016 23.0844H66.8609V4.86859H61.5016V23.0844ZM75.9689 13.9765V5.99994H57.753V13.9765H75.9689ZM66.8609 -3.10798H63.0797V15.1079H66.8609V-3.10798ZM54.0178 5.08518L53.7678 7.56174L71.8916 9.39126L72.1416 6.9147L54.0178 5.08518ZM53.7626 7.61476C53.6625 8.66854 53.5481 9.44955 53.4398 10.0005L71.3134 13.515C71.5696 12.2118 71.7573 10.8053 71.8967 9.33825L53.7626 7.61476ZM53.4417 9.99096C53.4248 10.0764 53.5204 9.47427 54.1089 8.65652L68.8943 19.2965C70.2848 17.3641 70.9638 15.2828 71.3115 13.5245L53.4417 9.99096ZM71.5538 15.9999L62.446 16.0351L62.481 25.1079H71.5538V15.9999ZM71.546 13.9765V4.86859H62.4029L62.4382 14.0117L71.546 13.9765ZM72.8116 13.7656L77.6549 21.479L77.6782 21.4643L77.7015 21.4496L72.8116 13.7656ZM73.7101 11.6093L82.7428 12.7773L82.744 12.7675L73.7101 11.6093ZM73.882 9.31244L64.7812 8.95109L64.7811 8.95252L73.882 9.31244ZM74.0929 3.99994V-5.10798H65.3394L64.9921 3.63859L74.0929 3.99994ZM82.4679 3.99994H91.5758V-5.10798H82.4679V3.99994ZM82.4679 15.9999V25.1079H91.5758V15.9999H82.4679ZM80.1788 15.9999H71.0709V25.1079H80.1788V15.9999ZM80.1788 6.01556H89.2867V-3.09235H80.1788V6.01556ZM76.257 6.01556V-3.09235H67.5582L67.1586 5.59725L76.257 6.01556ZM76.0695 10.0937L85.1672 10.5246L85.1678 10.512L76.0695 10.0937ZM75.7648 12.6874L66.8535 10.8048L66.8472 10.8349L66.841 10.865L75.7648 12.6874ZM75.1007 14.539L82.9253 19.2005L82.9361 19.1823L82.9469 19.1641L75.1007 14.539ZM73.9757 15.6406L78.195 23.7122L78.2308 23.6935L78.2665 23.6744L73.9757 15.6406ZM80.6617 15.9648L80.6539 13.9413L62.4382 14.0117L62.446 16.0351L80.6617 15.9648ZM71.546 23.0844H71.9757V4.86859H71.546V23.0844ZM71.9757 23.0844C73.5793 23.0844 75.6454 22.7408 77.6549 21.479L67.9683 6.05216C69.53 5.07161 71.0388 4.86859 71.9757 4.86859V23.0844ZM77.7015 21.4496C79.9707 20.0055 81.1552 18.011 81.7587 16.5883L64.9896 9.47409C65.3015 8.73891 66.1109 7.23396 67.9218 6.08157L77.7015 21.4496ZM81.7587 16.5883C82.3669 15.1547 82.6163 13.7558 82.7428 12.7773L64.6774 10.4413C64.6691 10.5054 64.6722 10.4568 64.7036 10.3237C64.7324 10.202 64.8119 9.89278 64.9896 9.47409L81.7587 16.5883ZM82.744 12.7675C82.8684 11.7974 82.9404 10.7432 82.9828 9.67236L64.7811 8.95252C64.7506 9.72542 64.708 10.2025 64.6761 10.4511L82.744 12.7675ZM82.9827 9.67379L83.1936 4.36129L64.9921 3.63859L64.7812 8.95109L82.9827 9.67379ZM74.0929 13.1079H82.4679V-5.10798H74.0929V13.1079ZM73.36 3.99994V15.9999H91.5758V3.99994H73.36ZM82.4679 6.89202H80.1788V25.1079H82.4679V6.89202ZM89.2867 15.9999V6.01556H71.0709V15.9999H89.2867ZM80.1788 -3.09235H76.257V15.1235H80.1788V-3.09235ZM67.1586 5.59725L66.9711 9.67538L85.1678 10.512L85.3553 6.43388L67.1586 5.59725ZM66.9717 9.66274C66.9413 10.3049 66.8833 10.6638 66.8535 10.8048L84.676 14.5701C84.9587 13.2319 85.1038 11.8616 85.1672 10.5246L66.9717 9.66274ZM66.841 10.865C66.832 10.9094 66.9022 10.5116 67.2545 9.91389L82.9469 19.1641C83.8825 17.5768 84.3955 15.9446 84.6885 14.5099L66.841 10.865ZM67.2761 9.87752C67.7485 9.08447 68.5407 8.21781 69.6849 7.6067L78.2665 23.6744C80.3274 22.5737 81.8695 20.9727 82.9253 19.2005L67.2761 9.87752ZM69.7564 7.5689C70.9037 6.9692 71.876 6.89202 72.3038 6.89202V25.1079C74.0441 25.1079 76.1311 24.7911 78.195 23.7122L69.7564 7.5689ZM72.3038 6.89202H71.5538V25.1079H72.3038V6.89202ZM91.9694 15.9999H82.8615V25.1079H91.9694V15.9999ZM91.9694 5.99213H101.077V-3.11579H91.9694V5.99213ZM87.4538 8.95306L81.3777 15.738L81.4309 15.7857L81.4849 15.8325L87.4538 8.95306ZM92.6491 9.414H101.757V0.306086H92.6491V9.414ZM92.6491 11.3046V20.4125H101.757V11.3046H92.6491ZM86.6413 10.8671L82.8117 19.1308L82.852 19.1495L82.8926 19.1678L86.6413 10.8671ZM85.1569 9.60931L77.4668 14.4896L77.4834 14.5158L77.5003 14.5419L85.1569 9.60931ZM85.1725 5.73431L77.5393 0.765543L77.5335 0.774469L77.5277 0.783409L85.1725 5.73431ZM86.7116 4.45306L82.9767 -3.85385L82.9646 -3.8484L82.9524 -3.84291L86.7116 4.45306ZM94.1647 3.99994H103.273V-5.10798H94.1647V3.99994ZM94.1647 15.9999V25.1079H103.273V15.9999H94.1647ZM84.0944 15.9999L76.1409 11.562L84.0944 25.1079V15.9999ZM87.4772 9.93744V0.829524H82.1294L79.5237 5.49946L87.4772 9.93744ZM89.8678 9.93744L97.8213 14.3754L89.8678 0.829524V9.93744ZM86.485 15.9999V25.1079H91.8327L94.4385 20.4379L86.485 15.9999ZM101.077 15.9999V5.99213H82.8615V15.9999H101.077ZM91.9694 -3.11579H89.0944V15.1H91.9694V-3.11579ZM89.0944 -3.11579C87.0782 -3.11579 84.2033 -2.64519 81.6605 -0.520351L93.3408 13.4577C91.5584 14.9472 89.7459 15.1 89.0944 15.1V-3.11579ZM81.6605 -0.520351C79.1145 1.60714 77.8224 4.63045 77.8224 7.71869H96.0382C96.0382 8.60075 95.8699 9.68041 95.3591 10.8001C94.8437 11.9298 94.1086 12.8161 93.3408 13.4577L81.6605 -0.520351ZM77.8224 7.71869C77.8224 10.5586 78.9136 13.5314 81.3777 15.738L93.5298 2.16812C94.3039 2.86133 94.9855 3.7676 95.4463 4.85436C95.8991 5.9221 96.0382 6.92476 96.0382 7.71869H77.8224ZM81.4849 15.8325C84.0044 18.0185 86.8932 18.5219 88.9381 18.5219V0.306086C89.7122 0.306086 91.6115 0.50219 93.4226 2.07365L81.4849 15.8325ZM88.9381 18.5219H92.6491V0.306086H88.9381V18.5219ZM83.5411 9.414V11.3046H101.757V9.414H83.5411ZM92.6491 2.19671H88.9381V20.4125H92.6491V2.19671ZM88.9381 2.19671C89.0324 2.19671 89.6024 2.21076 90.3899 2.56644L82.8926 19.1678C84.9718 20.1068 87.073 20.4125 88.9381 20.4125V2.19671ZM90.4708 2.60342C91.2401 2.95992 92.1393 3.63024 92.8135 4.6767L77.5003 14.5419C78.8724 16.6717 80.7612 18.1806 82.8117 19.1308L90.4708 2.60342ZM92.847 4.72907C93.5641 5.85904 93.7492 6.96872 93.7492 7.68744H75.5333C75.5333 9.88532 76.0622 12.2763 77.4668 14.4896L92.847 4.72907ZM93.7492 7.68744C93.7492 8.40323 93.5625 9.53455 92.8173 10.6852L77.5277 0.783409C76.0742 3.02783 75.5333 5.46123 75.5333 7.68744H93.7492ZM92.8057 10.7031C92.1142 11.7654 91.2045 12.4165 90.4707 12.749L82.9524 -3.84291C80.8853 -2.90622 78.9496 -1.40097 77.5393 0.765543L92.8057 10.7031ZM90.4464 12.76C89.6939 13.0983 89.1596 13.1079 89.0944 13.1079V-5.10798C87.1958 -5.10798 85.0729 -4.79635 82.9767 -3.85385L90.4464 12.76ZM89.0944 13.1079H94.1647V-5.10798H89.0944V13.1079ZM85.0568 3.99994V15.9999H103.273V3.99994H85.0568ZM94.1647 6.89202H91.9694V25.1079H94.1647V6.89202ZM92.0479 20.4379L95.4307 14.3754L79.5237 5.49946L76.1409 11.562L92.0479 20.4379ZM87.4772 19.0454H89.8678V0.829524H87.4772V19.0454ZM81.9143 5.49946L78.5315 11.562L94.4385 20.4379L97.8213 14.3754L81.9143 5.49946ZM86.485 6.89202H84.0944V25.1079H86.485V6.89202ZM100.611 15.9999L91.5032 16.0351L91.5382 25.1079H100.611V15.9999ZM100.603 13.9765V4.86859H91.4601L91.4954 14.0117L100.603 13.9765ZM101.869 13.7656L106.712 21.479L106.735 21.4643L106.759 21.4496L101.869 13.7656ZM102.767 11.6093L111.8 12.7773L111.801 12.7675L102.767 11.6093ZM102.939 9.31244L93.8384 8.95109L93.8383 8.95252L102.939 9.31244ZM103.15 3.99994V-5.10798H94.3966L94.0493 3.63859L103.15 3.99994ZM111.525 3.99994H120.633V-5.10798H111.525V3.99994ZM111.525 15.9999V25.1079H120.633V15.9999H111.525ZM109.236 15.9999H100.128V25.1079H109.236V15.9999ZM109.236 6.01556H118.344V-3.09235H109.236V6.01556ZM105.314 6.01556V-3.09235H96.6154L96.2158 5.59725L105.314 6.01556ZM105.127 10.0937L114.224 10.5246L114.225 10.512L105.127 10.0937ZM104.822 12.6874L95.9107 10.8048L95.9044 10.8349L95.8982 10.865L104.822 12.6874ZM104.158 14.539L111.983 19.2005L111.993 19.1823L112.004 19.1641L104.158 14.539ZM103.033 15.6406L107.252 23.7122L107.288 23.6935L107.324 23.6744L103.033 15.6406ZM109.719 15.9648L109.711 13.9413L91.4954 14.0117L91.5032 16.0351L109.719 15.9648ZM100.603 23.0844H101.033V4.86859H100.603V23.0844ZM101.033 23.0844C102.636 23.0844 104.703 22.7408 106.712 21.479L97.0255 6.05216C98.5871 5.07161 100.096 4.86859 101.033 4.86859V23.0844ZM106.759 21.4496C109.028 20.0055 110.212 18.011 110.816 16.5883L94.0467 9.47409C94.3586 8.73891 95.1681 7.23396 96.979 6.08157L106.759 21.4496ZM110.816 16.5883C111.424 15.1547 111.673 13.7558 111.8 12.7773L93.7346 10.4413C93.7263 10.5054 93.7294 10.4568 93.7608 10.3237C93.7896 10.202 93.8691 9.89278 94.0467 9.47409L110.816 16.5883ZM111.801 12.7675C111.926 11.7974 111.998 10.7432 112.04 9.67236L93.8383 8.95252C93.8078 9.72542 93.7652 10.2025 93.7333 10.4511L111.801 12.7675ZM112.04 9.67379L112.251 4.36129L94.0493 3.63859L93.8384 8.95109L112.04 9.67379ZM103.15 13.1079H111.525V-5.10798H103.15V13.1079ZM102.417 3.99994V15.9999H120.633V3.99994H102.417ZM111.525 6.89202H109.236V25.1079H111.525V6.89202ZM118.344 15.9999V6.01556H100.128V15.9999H118.344ZM109.236 -3.09235H105.314V15.1235H109.236V-3.09235ZM96.2158 5.59725L96.0283 9.67538L114.225 10.512L114.412 6.43388L96.2158 5.59725ZM96.0289 9.66274C95.9985 10.3049 95.9405 10.6638 95.9107 10.8048L113.733 14.5701C114.016 13.2319 114.161 11.8616 114.224 10.5246L96.0289 9.66274ZM95.8982 10.865C95.8892 10.9094 95.9594 10.5116 96.3117 9.91389L112.004 19.1641C112.94 17.5768 113.453 15.9446 113.746 14.5099L95.8982 10.865ZM96.3333 9.87752C96.8057 9.08447 97.5979 8.21781 98.7421 7.6067L107.324 23.6744C109.385 22.5737 110.927 20.9727 111.983 19.2005L96.3333 9.87752ZM98.8136 7.5689C99.9609 6.9692 100.933 6.89202 101.361 6.89202V25.1079C103.101 25.1079 105.188 24.7911 107.252 23.7122L98.8136 7.5689ZM101.361 6.89202H100.611V25.1079H101.361V6.89202ZM115.988 15.4843L111.294 23.2901L111.323 23.307L111.351 23.3237L115.988 15.4843ZM114.019 13.3359L105.854 17.3723L105.868 17.3999L105.882 17.4274L114.019 13.3359ZM114.019 6.82806L105.854 2.79121L105.845 2.80947L105.836 2.82778L114.019 6.82806ZM115.956 4.63275L111.095 -3.06904L111.084 -3.06215L111.073 -3.05522L115.956 4.63275ZM120.847 4.17963L123.874 -4.41035L123.874 -4.41035L120.847 4.17963ZM122.558 5.23431L116.29 11.8426L116.29 11.8426L122.558 5.23431ZM123.753 7.1015L115.242 10.3439L115.246 10.3536L115.249 10.3632L123.753 7.1015ZM124.191 10.7031V19.811H133.299V10.7031H124.191ZM114.652 10.7031H105.544V19.811H114.652V10.7031ZM114.652 8.95306V-0.154851H105.544V8.95306H114.652ZM121.902 8.95306V18.061H131.009V8.95306H121.902ZM121.527 7.32025L113.452 11.5333L113.461 11.5514L113.471 11.5695L121.527 7.32025ZM120.472 6.18744L115.693 13.9412L115.713 13.9535L115.733 13.9657L120.472 6.18744ZM117.175 6.25775L122.17 13.8736L122.18 13.8672L122.19 13.8608L117.175 6.25775ZM116.05 7.50775L107.953 3.33672L107.945 3.35258L107.937 3.36847L116.05 7.50775ZM116.081 12.5859L107.935 16.6591L107.95 16.6891L107.965 16.7191L116.081 12.5859ZM117.277 13.8749L112.697 21.748L112.727 21.7655L112.758 21.7828L117.277 13.8749ZM120.277 14.1249L123.23 22.7405L123.285 22.7217L123.34 22.7022L120.277 14.1249ZM121.222 13.5468L114.912 6.97905L114.912 6.97906L121.222 13.5468ZM121.831 12.6015L123.447 3.63797L115.971 2.2907L113.303 9.4035L121.831 12.6015ZM124.042 12.9999L132.831 15.3904L135.44 5.79926L125.658 4.03641L124.042 12.9999ZM123.089 14.7109L116.44 8.48631L116.438 8.48874L123.089 14.7109ZM121.378 15.8437L124.682 24.3311L124.699 24.3245L124.716 24.3178L121.378 15.8437ZM119.042 7.13421C119.177 7.13421 119.827 7.17332 120.624 7.64497L111.351 23.3237C113.857 24.8057 116.542 25.35 119.042 25.35V7.13421ZM120.681 7.67857C120.991 7.86517 121.299 8.11129 121.574 8.41106C121.846 8.70879 122.034 9.00239 122.156 9.24431L105.882 17.4274C107.085 19.8207 108.906 21.8541 111.294 23.2901L120.681 7.67857ZM122.183 9.29943C122.459 9.85766 122.439 10.2044 122.439 10.0781H104.223C104.223 12.4413 104.661 14.9599 105.854 17.3723L122.183 9.29943ZM122.439 10.0781C122.439 9.99027 122.451 10.3173 122.201 10.8284L105.836 2.82778C104.67 5.21381 104.223 7.70752 104.223 10.0781H122.439ZM122.183 10.8649C122.085 11.0642 121.924 11.3258 121.68 11.6029C121.432 11.8829 121.145 12.1267 120.84 12.3207L111.073 -3.05522C108.744 -1.57585 107.006 0.462022 105.854 2.79121L122.183 10.8649ZM120.818 12.3345C120.447 12.569 120.057 12.7337 119.686 12.8339C119.323 12.932 119.04 12.9516 118.878 12.9516V-5.26423C116.274 -5.26423 113.567 -4.62995 111.095 -3.06904L120.818 12.3345ZM118.878 12.9516C118.529 12.9516 118.161 12.8902 117.819 12.7696L123.874 -4.41035C122.262 -4.97885 120.581 -5.26423 118.878 -5.26423V12.9516ZM117.819 12.7696C117.207 12.5537 116.682 12.2141 116.29 11.8426L128.826 -1.37402C127.423 -2.70382 125.758 -3.74649 123.874 -4.41035L117.819 12.7696ZM116.29 11.8426C115.644 11.2302 115.351 10.6304 115.242 10.3439L132.264 3.85913C131.572 2.04134 130.482 0.19674 128.826 -1.37402L116.29 11.8426ZM115.249 10.3632C115.136 10.0678 115.097 9.86067 115.085 9.78437C115.073 9.70874 115.083 9.73121 115.083 9.87494H133.299C133.299 8.02441 133.057 5.92664 132.257 3.83976L115.249 10.3632ZM115.083 9.87494V10.7031H133.299V9.87494H115.083ZM124.191 1.59515H114.652V19.811H124.191V1.59515ZM123.759 10.7031V8.95306H105.544V10.7031H123.759ZM114.652 18.061H121.902V-0.154851H114.652V18.061ZM131.009 8.95306C131.009 7.07678 130.619 5.03581 129.582 3.07097L113.471 11.5695C112.934 10.5526 112.794 9.60018 112.794 8.95306H131.009ZM129.602 3.10724C128.6 1.18694 127.107 -0.435431 125.21 -1.5908L115.733 13.9657C114.743 13.3624 113.954 12.4952 113.452 11.5333L129.602 3.10724ZM125.25 -1.5663C123.163 -2.85274 120.93 -3.33454 118.894 -3.33454V14.8813C118.066 14.8813 116.885 14.6755 115.693 13.9412L125.25 -1.5663ZM118.894 -3.33454C116.674 -3.33454 114.311 -2.76412 112.16 -1.34529L122.19 13.8608C121.018 14.6338 119.801 14.8813 118.894 14.8813V-3.33454ZM112.18 -1.35808C110.38 -0.177608 108.937 1.42648 107.953 3.33672L124.147 11.6788C123.694 12.5578 123.001 13.3285 122.17 13.8736L112.18 -1.35808ZM107.937 3.36847C106.993 5.21923 106.551 7.20108 106.551 9.17181H124.767C124.767 9.94464 124.586 10.8171 124.163 11.647L107.937 3.36847ZM106.551 9.17181V10.539H124.767V9.17181H106.551ZM106.551 10.539C106.551 12.3771 106.872 14.5324 107.935 16.6591L124.228 8.5127C124.728 9.51433 124.767 10.305 124.767 10.539H106.551ZM107.965 16.7191C108.989 18.7296 110.567 20.509 112.697 21.748L121.856 6.00189C122.965 6.64714 123.746 7.56716 124.197 8.45268L107.965 16.7191ZM112.758 21.7828C114.852 22.9793 117.056 23.4204 119.066 23.4204V5.20452C119.711 5.20452 120.722 5.35386 121.795 5.96705L112.758 21.7828ZM119.066 23.4204C120.367 23.4204 121.786 23.2359 123.23 22.7405L117.323 5.50934C118.038 5.26393 118.65 5.20452 119.066 5.20452V23.4204ZM123.34 22.7022C124.853 22.1617 126.291 21.3068 127.532 20.1146L114.912 6.97906C115.621 6.29724 116.429 5.82779 117.213 5.54763L123.34 22.7022ZM127.532 20.1146C128.863 18.8358 129.783 17.3364 130.359 15.7995L113.303 9.4035C113.598 8.6166 114.112 7.74739 114.912 6.97905L127.532 20.1146ZM120.216 21.565L122.427 21.9635L125.658 4.03641L123.447 3.63797L120.216 21.565ZM115.254 10.6094C115.464 9.83614 115.877 9.08796 116.44 8.48631L129.738 20.9354C131.218 19.3546 132.266 17.4658 132.831 15.3904L115.254 10.6094ZM116.438 8.48874C117.009 7.87834 117.614 7.53728 118.04 7.36961L124.716 24.3178C126.517 23.6084 128.263 22.5122 129.74 20.933L116.438 8.48874ZM118.074 7.35629C118.629 7.14034 119.002 7.13421 119.042 7.13421V25.35C120.832 25.35 122.763 25.0783 124.682 24.3311L118.074 7.35629ZM124.954 6.01556H115.846V15.1235H124.954V6.01556ZM124.954 3.99994V-5.10798H115.846V3.99994H124.954ZM135.079 3.99994H144.187V-5.10798H135.079V3.99994ZM135.079 6.01556V15.1235H144.187V6.01556H135.079ZM131.165 6.01556V-3.09235H122.057V6.01556H131.165ZM131.165 15.9999V25.1079H140.273V15.9999H131.165ZM128.884 15.9999H119.776V25.1079H128.884V15.9999ZM128.884 6.01556H137.991V-3.09235H128.884V6.01556ZM134.062 6.01556V3.99994H115.846V6.01556H134.062ZM124.954 13.1079H135.079V-5.10798H124.954V13.1079ZM125.971 3.99994V6.01556H144.187V3.99994H125.971ZM135.079 -3.09235H131.165V15.1235H135.079V-3.09235ZM122.057 6.01556V15.9999H140.273V6.01556H122.057ZM131.165 6.89202H128.884V25.1079H131.165V6.89202ZM137.991 15.9999V6.01556H119.776V15.9999H137.991ZM128.884 -3.09235H124.954V15.1235H128.884V-3.09235ZM144.912 8.99213H154.02V-0.115789H144.912V8.99213ZM144.912 11.0156V20.1235H154.02V11.0156H144.912ZM138.412 11.0156H129.304V20.1235H138.412V11.0156ZM138.412 8.99213V-0.115789H129.304V8.99213H138.412ZM139.069 3.99994H148.177V-5.10798H139.069V3.99994ZM139.069 15.9999V25.1079H148.177V15.9999H139.069ZM136.78 15.9999H127.672V25.1079H136.78V15.9999ZM136.78 3.99994V-5.10798H127.672V3.99994H136.78ZM146.545 3.99994H155.653V-5.10798H146.545V3.99994ZM146.545 15.9999V25.1079H155.653V15.9999H146.545ZM144.264 15.9999H135.156V25.1079H144.264V15.9999ZM144.264 3.99994V-5.10798H135.156V3.99994H144.264ZM135.804 8.99213V11.0156H154.02V8.99213H135.804ZM144.912 1.90765H138.412V20.1235H144.912V1.90765ZM147.52 11.0156V8.99213H129.304V11.0156H147.52ZM138.412 18.1H144.912V-0.115789H138.412V18.1ZM129.961 3.99994V15.9999H148.177V3.99994H129.961ZM139.069 6.89202H136.78V25.1079H139.069V6.89202ZM145.887 15.9999V3.99994H127.672V15.9999H145.887ZM136.78 13.1079H139.069V-5.10798H136.78V13.1079ZM137.437 3.99994V15.9999H155.653V3.99994H137.437ZM146.545 6.89202H144.264V25.1079H146.545V6.89202ZM153.372 15.9999V3.99994H135.156V15.9999H153.372ZM144.264 13.1079H146.545V-5.10798H144.264V13.1079ZM151.189 12.7265H142.081L158.978 17.4473L151.189 12.7265ZM156.478 3.99994V-5.10798H151.348L148.689 -0.720864L156.478 3.99994ZM158.994 3.99994H168.102V-5.10798H158.994V3.99994ZM158.994 15.9999V25.1079H168.102V15.9999H158.994ZM156.705 15.9999H147.597V25.1079H156.705V15.9999ZM156.705 7.26556H165.813L148.905 2.56317L156.705 7.26556ZM151.439 15.9999V25.1079H156.583L159.239 20.7023L151.439 15.9999ZM148.9 15.9999H139.792V25.1079H148.9V15.9999ZM148.9 3.99994V-5.10798H139.792V3.99994H148.9ZM151.189 3.99994H160.297V-5.10798H151.189V3.99994ZM158.978 17.4473L164.267 8.72074L148.689 -0.720864L143.4 8.0057L158.978 17.4473ZM156.478 13.1079H158.994V-5.10798H156.478V13.1079ZM149.886 3.99994V15.9999H168.102V3.99994H149.886ZM158.994 6.89202H156.705V25.1079H158.994V6.89202ZM165.813 15.9999V7.26556H147.597V15.9999H165.813ZM148.905 2.56317L143.639 11.2975L159.239 20.7023L164.505 11.968L148.905 2.56317ZM151.439 6.89202H148.9V25.1079H151.439V6.89202ZM158.008 15.9999V3.99994H139.792V15.9999H158.008ZM148.9 13.1079H151.189V-5.10798H148.9V13.1079ZM142.081 3.99994V12.7265H160.297V3.99994H142.081ZM163.208 3.99994L171.132 -0.491715L168.515 -5.10798H163.208V3.99994ZM165.857 8.67181L157.933 13.1635L173.763 13.1935L165.857 8.67181ZM168.529 3.99994V-5.10798H163.245L160.622 -0.5217L168.529 3.99994ZM171.083 3.99994L178.811 8.81989L171.083 -5.10798V3.99994ZM167.341 9.99994L159.613 5.17999L156.594 10.02L159.631 14.8488L167.341 9.99994ZM171.115 15.9999V25.1079L178.824 11.1511L171.115 15.9999ZM168.56 15.9999L160.759 20.7019L163.415 25.1079H168.56V15.9999ZM165.857 11.5156L173.657 6.8136L158.05 6.82358L165.857 11.5156ZM163.161 15.9999V25.1079H168.314L170.968 20.6919L163.161 15.9999ZM160.599 15.9999L152.866 11.1872L160.599 25.1079V15.9999ZM164.333 9.99994L172.066 14.8126L175.042 10.0302L172.093 5.23101L164.333 9.99994ZM160.646 3.99994V-5.10798L152.886 8.76886L160.646 3.99994ZM155.285 8.49159L157.933 13.1635L173.78 4.18016L171.132 -0.491715L155.285 8.49159ZM173.763 13.1935L176.435 8.52158L160.622 -0.5217L157.95 4.15018L173.763 13.1935ZM168.529 13.1079H171.083V-5.10798H168.529V13.1079ZM163.355 -0.820009L159.613 5.17999L175.069 14.8199L178.811 8.81989L163.355 -0.820009ZM159.631 14.8488L163.405 20.8488L178.824 11.1511L175.051 5.15112L159.631 14.8488ZM171.115 6.89202H168.56V25.1079H171.115V6.89202ZM176.36 11.298L173.657 6.8136L158.056 16.2175L160.759 20.7019L176.36 11.298ZM158.05 6.82358L155.355 11.308L170.968 20.6919L173.663 16.2075L158.05 6.82358ZM163.161 6.89202H160.599V25.1079H163.161V6.89202ZM168.331 20.8126L172.066 14.8126L156.601 5.18724L152.866 11.1872L168.331 20.8126ZM172.093 5.23101L168.405 -0.768986L152.886 8.76886L156.574 14.7689L172.093 5.23101ZM160.646 13.1079H163.208V-5.10798H160.646V13.1079ZM177.764 15.9999H168.656V25.1079H177.764V15.9999ZM177.764 3.99994V-5.10798H168.656V3.99994H177.764ZM185.959 4.86713L180.588 12.2225L180.604 12.2341L180.62 12.2456L185.959 4.86713ZM186.475 8.87494L180.313 2.16748L180.313 2.16748L186.475 8.87494ZM184.694 9.70306L182.992 0.755457L183.64 18.7498L184.694 9.70306ZM186.17 10.1874L181.592 18.0613L181.627 18.0813L181.661 18.101L186.17 10.1874ZM187.248 11.2187L179.53 16.0542L179.551 16.0874L179.572 16.1205L187.248 11.2187ZM187.17 14.4531L194.711 19.5612L194.723 19.5425L194.736 19.5238L187.17 14.4531ZM185.741 15.5937L189.387 23.9396L189.404 23.9324L189.42 23.9252L185.741 15.5937ZM179.959 14.0468H170.851V23.1547H179.959V14.0468ZM184.858 13.6328L178.994 6.66314L178.994 6.66314L184.858 13.6328ZM184.858 11.1953L178.469 17.6868L178.496 17.7128L178.522 17.7385L184.858 11.1953ZM179.959 10.7109V1.60296H170.851V10.7109H179.959ZM179.959 8.99994H170.851V18.1079H179.959V8.99994ZM183.889 8.81244L180.554 0.336922L180.53 0.34637L180.506 0.355955L183.889 8.81244ZM184.616 8.28119L177.271 2.8951L177.26 2.90962L177.25 2.92417L184.616 8.28119ZM184.303 6.36713L189.45 -1.14717L189.45 -1.14718L184.303 6.36713ZM179.959 5.9765V-3.13141H170.851V5.9765H179.959ZM186.872 15.9999V3.99994H168.656V15.9999H186.872ZM177.764 13.1079H182.741V-5.10798H177.764V13.1079ZM182.741 13.1079C182.884 13.1079 181.851 13.1449 180.588 12.2225L191.331 -2.4883C188.484 -4.56686 185.306 -5.10798 182.741 -5.10798V13.1079ZM180.62 12.2456C179.985 11.7863 179.263 11.0544 178.731 10.0082C178.2 8.96437 178.039 7.96146 178.039 7.20306H196.255C196.255 3.32261 194.478 -0.210791 191.299 -2.51135L180.62 12.2456ZM178.039 7.20306C178.039 6.58648 178.138 5.7209 178.528 4.75217C178.929 3.75368 179.55 2.86886 180.313 2.16748L192.636 15.5824C195.261 13.1713 196.255 10.0191 196.255 7.20306H178.039ZM180.313 2.16748C181.381 1.18673 182.461 0.856507 182.992 0.755457L186.395 18.6507C188.406 18.2684 190.673 17.3861 192.636 15.5824L180.313 2.16748ZM183.64 18.7498C182.987 18.6738 182.272 18.4564 181.592 18.0613L190.748 2.31358C189.173 1.39766 187.473 0.857348 185.748 0.656339L183.64 18.7498ZM181.661 18.101C180.816 17.6193 180.067 16.9114 179.53 16.0542L194.967 6.38315C193.888 4.66143 192.42 3.26595 190.679 2.2739L181.661 18.101ZM179.572 16.1205C178.765 14.8572 178.554 13.6067 178.554 12.7656H196.77C196.77 10.7265 196.284 8.44481 194.925 6.31691L179.572 16.1205ZM178.554 12.7656C178.554 11.7431 178.848 10.511 179.604 9.38235L194.736 19.5238C196.149 17.4159 196.77 15.0589 196.77 12.7656H178.554ZM179.63 9.3449C180.412 8.19015 181.389 7.55902 182.061 7.2622L189.42 23.9252C191.342 23.0763 193.272 21.6847 194.711 19.5612L179.63 9.3449ZM182.094 7.2478C182.909 6.8917 183.471 6.89202 183.498 6.89202V25.1079C185.276 25.1079 187.333 24.8373 189.387 23.9396L182.094 7.2478ZM183.498 6.89202H177.764V25.1079H183.498V6.89202ZM179.959 23.1547H183.498V4.9389H179.959V23.1547ZM183.498 23.1547C185.472 23.1547 188.257 22.6756 190.721 20.6024L178.994 6.66314C180.803 5.14202 182.681 4.9389 183.498 4.9389V23.1547ZM190.721 20.6024C193.339 18.4 194.458 15.3502 194.458 12.5078H176.242C176.242 11.6851 176.388 10.6251 176.883 9.49385C177.388 8.33779 178.14 7.38204 178.994 6.66314L190.721 20.6024ZM194.458 12.5078C194.458 10.0651 193.671 7.05145 191.193 4.65196L178.522 17.7385C177.694 16.9365 177.079 15.9747 176.699 14.9597C176.331 13.9798 176.242 13.1159 176.242 12.5078H194.458ZM191.246 4.70367C188.805 2.30132 185.824 1.60296 183.498 1.60296V19.8188C182.329 19.8188 180.254 19.4433 178.469 17.6868L191.246 4.70367ZM183.498 1.60296H179.959V19.8188H183.498V1.60296ZM170.851 10.7109V14.0468H189.067V10.7109H170.851ZM179.959 18.1079H182.764V-0.107976H179.959V18.1079ZM182.764 18.1079C184.03 18.1079 185.614 17.932 187.272 17.2689L180.506 0.355955C181.539 -0.057157 182.373 -0.107976 182.764 -0.107976V18.1079ZM187.224 17.288C188.821 16.6595 190.603 15.5334 191.981 13.6382L177.25 2.92417C178.295 1.48734 179.592 0.715424 180.554 0.336922L187.224 17.288ZM191.96 13.6673C193.385 11.724 193.981 9.51773 193.981 7.45306H175.765C175.765 6.02382 176.19 4.36962 177.271 2.8951L191.96 13.6673ZM193.981 7.45306C193.981 4.00586 192.327 0.823165 189.45 -1.14717L179.156 13.8814C178.279 13.2806 177.346 12.3617 176.667 11.0687C175.989 9.77776 175.765 8.49728 175.765 7.45306H193.981ZM189.45 -1.14718C187.026 -2.80724 184.474 -3.13141 182.741 -3.13141V15.0844C182.33 15.0844 180.82 15.0207 179.156 13.8814L189.45 -1.14718ZM182.741 -3.13141H179.959V15.0844H182.741V-3.13141ZM170.851 5.9765V8.99994H189.067V5.9765H170.851ZM191.51 15.4531L186.614 23.1331L186.641 23.1509L186.67 23.1685L191.51 15.4531ZM189.603 6.82806L197.777 10.8464L197.781 10.8374L197.786 10.8284L189.603 6.82806ZM191.541 4.63275L186.679 -3.06904L186.679 -3.06903L191.541 4.63275ZM196.924 4.3515L193.02 12.5802L193.044 12.5919L193.069 12.6034L196.924 4.3515ZM198.65 5.75775L191.273 11.0996L191.288 11.1204L191.304 11.1411L198.65 5.75775ZM199.439 7.87494V16.9829H209.536L208.499 6.93974L199.439 7.87494ZM197.166 7.87494L188.275 9.85072L189.86 16.9829H197.166V7.87494ZM196.306 6.42181L190.148 13.1325L190.168 13.1504L190.188 13.1682L196.306 6.42181ZM192.814 6.32806L198.032 13.7933L198.04 13.7877L198.048 13.7821L192.814 6.32806ZM191.681 7.78119L200.039 11.4026L200.044 11.3899L200.049 11.3773L191.681 7.78119ZM191.674 12.2656L200.077 8.75274L200.077 8.75274L191.674 12.2656ZM192.799 13.7421L187.475 21.132L187.493 21.1455L187.512 21.1589L192.799 13.7421ZM195.728 14.0234L199.461 22.3313L199.488 22.3192L199.515 22.3068L195.728 14.0234ZM196.642 13.3124L189.577 7.56455L189.548 7.60088L189.519 7.63751L196.642 13.3124ZM197.166 12.2031V3.09515H189.907L188.288 10.1707L197.166 12.2031ZM199.439 12.2031L208.495 13.1755L209.578 3.09515L199.439 3.09515V12.2031ZM198.681 14.2812L206.17 19.4655L206.17 19.4655L198.681 14.2812ZM196.986 15.7187L192.961 7.54843L192.949 7.55434L192.937 7.56027L196.986 15.7187ZM194.51 7.13421C194.759 7.13421 195.502 7.20592 196.35 7.73766L186.67 23.1685C189.194 24.7523 191.937 25.35 194.51 25.35V7.13421ZM196.406 7.77302C196.706 7.96438 196.999 8.21159 197.257 8.50647C197.513 8.79914 197.687 9.08344 197.797 9.31349L181.378 17.202C182.525 19.5892 184.281 21.6461 186.614 23.1331L196.406 7.77302ZM197.797 9.31349C198.03 9.79761 198.024 10.1144 198.024 10.0546H179.808C179.808 12.4011 180.25 14.8533 181.378 17.202L197.797 9.31349ZM198.024 10.0546C198.024 9.98899 198.031 10.3293 197.777 10.8464L181.43 2.80977C180.259 5.1914 179.808 7.68277 179.808 10.0546H198.024ZM197.786 10.8284C197.681 11.0422 197.513 11.3162 197.26 11.6029C197.005 11.8923 196.711 12.1401 196.403 12.3345L186.679 -3.06903C184.332 -1.58713 182.576 0.465717 181.421 2.82777L197.786 10.8284ZM196.403 12.3345C195.577 12.856 194.818 12.9516 194.486 12.9516V-5.26423C191.894 -5.26423 189.172 -4.64259 186.679 -3.06904L196.403 12.3345ZM194.486 12.9516C194.255 12.9516 193.701 12.9034 193.02 12.5802L200.828 -3.87722C198.72 -4.8775 196.54 -5.26423 194.486 -5.26423V12.9516ZM193.069 12.6034C192.461 12.3196 191.795 11.8194 191.273 11.0996L206.027 0.415872C204.631 -1.51226 202.813 -2.94989 200.779 -3.9004L193.069 12.6034ZM191.304 11.1411C190.711 10.3328 190.448 9.47256 190.38 8.81014L208.499 6.93974C208.264 4.66273 207.475 2.39104 205.997 0.374408L191.304 11.1411ZM199.439 -1.23298H197.166V16.9829H199.439V-1.23298ZM206.057 5.89916C205.502 3.40386 204.195 1.28057 202.425 -0.324592L190.188 13.1682C189.314 12.3756 188.579 11.221 188.275 9.85072L206.057 5.89916ZM202.465 -0.288848C199.964 -2.58388 196.979 -3.29548 194.525 -3.29548V14.9204C193.561 14.9204 191.764 14.615 190.148 13.1325L202.465 -0.288848ZM194.525 -3.29548C192.175 -3.29548 189.74 -2.6418 187.581 -1.12597L198.048 13.7821C196.868 14.6104 195.574 14.9204 194.525 14.9204V-3.29548ZM187.597 -1.1372C185.511 0.320187 184.144 2.2519 183.314 4.18506L200.049 11.3773C199.76 12.0501 199.148 13.013 198.032 13.7933L187.597 -1.1372ZM183.324 4.15982C182.45 6.17873 182.167 8.20602 182.167 9.99994H200.383C200.383 10.0855 200.372 10.6336 200.039 11.4026L183.324 4.15982ZM182.167 9.99994C182.167 11.7674 182.432 13.7735 183.27 15.7784L200.077 8.75274C200.384 9.48683 200.383 9.98245 200.383 9.99994H182.167ZM183.27 15.7784C184.083 17.7228 185.427 19.6565 187.475 21.132L198.123 6.35225C199.202 7.12979 199.795 8.07915 200.077 8.75274L183.27 15.7784ZM187.512 21.1589C189.7 22.7181 192.168 23.3735 194.525 23.3735V5.15765C195.56 5.15765 196.877 5.46411 198.085 6.32538L187.512 21.1589ZM194.525 23.3735C196.095 23.3735 197.791 23.0818 199.461 22.3313L191.996 5.71542C192.947 5.28788 193.841 5.15765 194.525 5.15765V23.3735ZM199.515 22.3068C201.154 21.5575 202.611 20.4377 203.766 18.9874L189.519 7.63751C190.184 6.80173 191.032 6.15589 191.942 5.73996L199.515 22.3068ZM203.708 19.0603C204.939 17.5464 205.671 15.8647 206.044 14.2354L188.288 10.1707C188.463 9.40604 188.846 8.46389 189.577 7.56455L203.708 19.0603ZM197.166 21.311H199.439V3.09515H197.166V21.311ZM190.383 11.2306C190.454 10.5769 190.702 9.80544 191.193 9.09687L206.17 19.4655C207.504 17.5382 208.258 15.3813 208.495 13.1755L190.383 11.2306ZM191.193 9.09687C191.711 8.34925 192.374 7.83782 192.961 7.54843L201.011 23.8889C203.015 22.9016 204.809 21.4319 206.17 19.4655L191.193 9.09687ZM192.937 7.56027C193.727 7.1682 194.341 7.13421 194.51 7.13421V25.35C196.574 25.35 198.839 24.9671 201.035 23.8771L192.937 7.56027ZM200.259 6.01556H191.151V15.1235H200.259V6.01556ZM200.259 3.99994V-5.10798H191.151V3.99994H200.259ZM210.384 3.99994H219.492V-5.10798H210.384V3.99994ZM210.384 6.01556V15.1235H219.492V6.01556H210.384ZM206.47 6.01556V-3.09235H197.362V6.01556H206.47ZM206.47 15.9999V25.1079H215.578V15.9999H206.47ZM204.189 15.9999H195.081V25.1079H204.189V15.9999ZM204.189 6.01556H213.297V-3.09235H204.189V6.01556ZM209.367 6.01556V3.99994H191.151V6.01556H209.367ZM200.259 13.1079H210.384V-5.10798H200.259V13.1079ZM201.276 3.99994V6.01556H219.492V3.99994H201.276ZM210.384 -3.09235H206.47V15.1235H210.384V-3.09235ZM197.362 6.01556V15.9999H215.578V6.01556H197.362ZM206.47 6.89202H204.189V25.1079H206.47V6.89202ZM213.297 15.9999V6.01556H195.081V15.9999H213.297ZM204.189 -3.09235H200.259V15.1235H204.189V-3.09235ZM212.085 20.4999H202.977V29.6079H212.085V20.4999ZM212.085 3.99994V-5.10798H202.977V3.99994H212.085ZM214.366 3.99994H223.474V-5.10798H214.366V3.99994ZM214.366 5.94525H205.258V15.0532H214.366V5.94525ZM214.561 5.94525V15.0532H219.986L222.57 10.2832L214.561 5.94525ZM215.147 5.07806L222.337 10.6698L222.337 10.6698L215.147 5.07806ZM216.21 4.21869L220.539 12.232L220.574 12.2129L220.61 12.1934L216.21 4.21869ZM220.6 4.57806L215.67 12.236L215.67 12.236L220.6 4.57806ZM222.39 6.69525L214.143 10.5622L214.152 10.5812L214.161 10.6002L222.39 6.69525ZM222.397 13.3593L230.644 17.2262L230.648 17.2173L230.652 17.2084L222.397 13.3593ZM220.616 15.4921L225.607 23.1105L225.626 23.0985L225.644 23.0864L220.616 15.4921ZM216.241 15.8671L211.95 23.901L211.969 23.911L211.988 23.921L216.241 15.8671ZM215.163 15.0078L222.297 9.34575L222.297 9.34574L215.163 15.0078ZM214.561 14.1328L222.538 9.73723L219.942 5.02484H214.561V14.1328ZM214.421 14.1328V5.02484H205.313V14.1328H214.421ZM214.421 20.4999V29.6079H223.529V20.4999H214.421ZM214.741 12.2187L206.242 15.4929L206.242 15.4929L214.741 12.2187ZM215.804 13.7109L210.223 20.9089L210.248 20.9286L210.274 20.9481L215.804 13.7109ZM219.257 13.6874L224.898 20.8381L224.922 20.8189L224.946 20.7995L219.257 13.6874ZM220.319 12.164L211.811 8.913L211.8 8.94326L211.788 8.9736L220.319 12.164ZM220.327 7.86713L211.79 11.0419L211.802 11.0728L211.814 11.1036L220.327 7.86713ZM219.265 6.37494L213.673 13.5643L213.692 13.5792L213.711 13.5941L219.265 6.37494ZM215.788 6.3515L210.349 -0.954264L210.33 -0.93969L210.31 -0.925011L215.788 6.3515ZM214.733 7.81244L223.238 11.0725L223.238 11.0725L214.733 7.81244ZM221.193 20.4999V3.99994H202.977V20.4999H221.193ZM212.085 13.1079H214.366V-5.10798H212.085V13.1079ZM205.258 3.99994V5.94525H223.474V3.99994H205.258ZM214.366 15.0532H214.561V-3.16266H214.366V15.0532ZM222.57 10.2832C222.469 10.4699 222.389 10.5914 222.356 10.6401C222.321 10.6918 222.311 10.7029 222.337 10.6698L207.958 -0.513654C207.522 0.0463349 207.008 0.767307 206.553 1.60731L222.57 10.2832ZM222.337 10.6698C221.655 11.5464 220.939 12.016 220.539 12.232L211.881 -3.79465C210.575 -3.08903 209.15 -2.04655 207.958 -0.513653L222.337 10.6698ZM220.61 12.1934C219.253 12.9421 218.168 12.9516 218.007 12.9516V-5.26423C216.356 -5.26423 214.073 -5.00473 211.81 -3.756L220.61 12.1934ZM218.007 12.9516C217.717 12.9516 217.336 12.914 216.901 12.7907C216.461 12.6661 216.042 12.4756 215.67 12.236L225.531 -3.07991C223.195 -4.58412 220.594 -5.26423 218.007 -5.26423V12.9516ZM215.67 12.236C214.815 11.6857 214.344 10.9899 214.143 10.5622L230.636 2.82835C229.571 0.55682 227.907 -1.55039 225.531 -3.07991L215.67 12.236ZM214.161 10.6002C213.885 10.0177 213.938 9.72295 213.938 10.0234H232.154C232.154 7.73006 231.769 5.21656 230.618 2.79028L214.161 10.6002ZM213.938 10.0234C213.938 10.3351 213.884 10.0661 214.143 9.51025L230.652 17.2084C231.776 14.7983 232.154 12.3054 232.154 10.0234H213.938ZM214.151 9.49241C214.338 9.09279 214.781 8.43214 215.588 7.89781L225.644 23.0864C227.962 21.5521 229.592 19.4696 230.644 17.2262L214.151 9.49241ZM215.625 7.87371C216.006 7.62363 216.437 7.42448 216.891 7.29429C217.339 7.16551 217.732 7.1264 218.03 7.1264V25.3422C220.637 25.3422 223.26 24.6488 225.607 23.1105L215.625 7.87371ZM218.03 7.1264C218.235 7.1264 219.236 7.14858 220.494 7.81326L211.988 23.921C214.174 25.0753 216.367 25.3422 218.03 25.3422V7.1264ZM220.532 7.83326C220.917 8.03896 221.62 8.49216 222.297 9.34575L208.029 20.6698C209.227 22.1796 210.648 23.2057 211.95 23.901L220.532 7.83326ZM222.297 9.34574C222.274 9.31617 222.286 9.32963 222.323 9.38301C222.357 9.43378 222.437 9.55394 222.538 9.73723L206.584 18.5283C207.051 19.3746 207.577 20.1002 208.029 20.6698L222.297 9.34574ZM214.561 5.02484H214.421V23.2407H214.561V5.02484ZM205.313 14.1328V20.4999H223.529V14.1328H205.313ZM214.421 11.392H212.085V29.6079H214.421V11.392ZM205.266 9.99994C205.266 11.7049 205.511 13.5962 206.242 15.4929L223.24 8.94447C223.481 9.57039 223.482 9.98246 223.482 9.99994H205.266ZM206.242 15.4929C206.986 17.4246 208.248 19.3778 210.223 20.9089L221.384 6.51282C222.432 7.32522 222.986 8.28358 223.24 8.94447L206.242 15.4929ZM210.274 20.9481C212.56 22.6947 215.153 23.35 217.507 23.35V5.13421C218.517 5.13421 219.974 5.43537 221.333 6.47362L210.274 20.9481ZM217.507 23.35C219.891 23.35 222.56 22.6824 224.898 20.8381L213.616 6.53676C215.016 5.4321 216.519 5.13421 217.507 5.13421V23.35ZM224.946 20.7995C226.87 19.2609 228.117 17.3158 228.85 15.3544L211.788 8.9736C212.043 8.29341 212.581 7.36399 213.567 6.57535L224.946 20.7995ZM228.827 15.415C229.53 13.5765 229.794 11.7282 229.794 9.99994H211.578C211.578 9.87588 211.598 9.47023 211.811 8.913L228.827 15.415ZM229.794 9.99994C229.794 8.29125 229.535 6.45764 228.84 4.6306L211.814 11.1036C211.598 10.537 211.578 10.1253 211.578 9.99994H229.794ZM228.864 4.69233C228.11 2.6658 226.809 0.687717 224.818 -0.844215L213.711 13.5941C212.668 12.7913 212.075 11.808 211.79 11.0419L228.864 4.69233ZM224.856 -0.814412C222.508 -2.64065 219.849 -3.27985 217.507 -3.27985V14.936C216.571 14.936 215.083 14.6614 213.673 13.5643L224.856 -0.814412ZM217.507 -3.27985C215.193 -3.27985 212.63 -2.65251 210.349 -0.954264L221.227 13.6573C219.883 14.6576 218.466 14.936 217.507 14.936V-3.27985ZM210.31 -0.925011C208.281 0.602303 206.984 2.58136 206.229 4.55239L223.238 11.0725C222.961 11.7935 222.368 12.7986 221.266 13.628L210.31 -0.925011ZM206.229 4.55239C205.506 6.43819 205.266 8.31518 205.266 9.99994H223.482C223.482 10.018 223.481 10.4367 223.238 11.0725L206.229 4.55239ZM227.01 15.4843L222.317 23.2901L222.345 23.307L222.373 23.3237L227.01 15.4843ZM225.041 13.3359L216.877 17.3723L216.89 17.3999L216.904 17.4274L225.041 13.3359ZM225.041 6.82806L216.877 2.79121L216.868 2.80947L216.859 2.82778L225.041 6.82806ZM226.979 4.63275L222.117 -3.06904L222.106 -3.06215L222.095 -3.05522L226.979 4.63275ZM231.87 4.17963L234.897 -4.41035L234.897 -4.41035L231.87 4.17963ZM233.58 5.23431L227.313 11.8426L227.313 11.8426L233.58 5.23431ZM234.776 7.1015L226.265 10.3439L226.268 10.3536L226.272 10.3632L234.776 7.1015ZM235.213 10.7031V19.811H244.321V10.7031H235.213ZM225.674 10.7031H216.566V19.811H225.674V10.7031ZM225.674 8.95306V-0.154851H216.566V8.95306H225.674ZM232.924 8.95306V18.061H242.032V8.95306H232.924ZM232.549 7.32025L224.474 11.5333L224.484 11.5514L224.493 11.5695L232.549 7.32025ZM231.495 6.18744L226.716 13.9412L226.736 13.9535L226.756 13.9657L231.495 6.18744ZM228.198 6.25775L233.193 13.8736L233.203 13.8672L233.212 13.8608L228.198 6.25775ZM227.073 7.50775L218.976 3.33672L218.968 3.35258L218.96 3.36847L227.073 7.50775ZM227.104 12.5859L218.958 16.6591L218.973 16.6891L218.988 16.7191L227.104 12.5859ZM228.299 13.8749L223.72 21.748L223.75 21.7655L223.78 21.7828L228.299 13.8749ZM231.299 14.1249L234.253 22.7405L234.308 22.7217L234.363 22.7022L231.299 14.1249ZM232.245 13.5468L225.934 6.97905L225.934 6.97906L232.245 13.5468ZM232.854 12.6015L234.469 3.63797L226.993 2.2907L224.326 9.4035L232.854 12.6015ZM235.065 12.9999L243.853 15.3904L246.462 5.79926L236.68 4.03641L235.065 12.9999ZM234.112 14.7109L227.463 8.48631L227.46 8.48874L234.112 14.7109ZM232.401 15.8437L235.705 24.3311L235.722 24.3245L235.739 24.3178L232.401 15.8437ZM230.065 7.13421C230.2 7.13421 230.849 7.17332 231.647 7.64497L222.373 23.3237C224.879 24.8057 227.565 25.35 230.065 25.35V7.13421ZM231.703 7.67857C232.014 7.86517 232.322 8.11129 232.596 8.41106C232.869 8.70879 233.057 9.00239 233.179 9.24431L216.904 17.4274C218.108 19.8207 219.929 21.8541 222.317 23.2901L231.703 7.67857ZM233.206 9.29943C233.482 9.85766 233.462 10.2044 233.462 10.0781H215.246C215.246 12.4413 215.684 14.9599 216.877 17.3723L233.206 9.29943ZM233.462 10.0781C233.462 9.99027 233.474 10.3173 233.224 10.8284L216.859 2.82778C215.692 5.21381 215.246 7.70752 215.246 10.0781H233.462ZM233.206 10.8649C233.107 11.0642 232.947 11.3258 232.702 11.6029C232.455 11.8829 232.168 12.1267 231.862 12.3207L222.095 -3.05522C219.766 -1.57585 218.029 0.462022 216.877 2.79121L233.206 10.8649ZM231.841 12.3345C231.469 12.569 231.08 12.7337 230.709 12.8339C230.346 12.932 230.063 12.9516 229.901 12.9516V-5.26423C227.297 -5.26423 224.59 -4.62995 222.117 -3.06904L231.841 12.3345ZM229.901 12.9516C229.552 12.9516 229.184 12.8902 228.842 12.7696L234.897 -4.41035C233.284 -4.97885 231.604 -5.26423 229.901 -5.26423V12.9516ZM228.842 12.7696C228.229 12.5537 227.704 12.2141 227.313 11.8426L239.848 -1.37402C238.446 -2.70382 236.781 -3.74649 234.897 -4.41035L228.842 12.7696ZM227.313 11.8426C226.667 11.2302 226.374 10.6304 226.265 10.3439L243.287 3.85913C242.595 2.04134 241.504 0.19674 239.848 -1.37402L227.313 11.8426ZM226.272 10.3632C226.159 10.0678 226.119 9.86067 226.107 9.78437C226.095 9.70874 226.105 9.73121 226.105 9.87494H244.321C244.321 8.02441 244.08 5.92664 243.28 3.83976L226.272 10.3632ZM226.105 9.87494V10.7031H244.321V9.87494H226.105ZM235.213 1.59515H225.674V19.811H235.213V1.59515ZM234.782 10.7031V8.95306H216.566V10.7031H234.782ZM225.674 18.061H232.924V-0.154851H225.674V18.061ZM242.032 8.95306C242.032 7.07678 241.642 5.03581 240.605 3.07097L224.493 11.5695C223.957 10.5526 223.816 9.60018 223.816 8.95306H242.032ZM240.624 3.10724C239.622 1.18694 238.13 -0.435431 236.233 -1.5908L226.756 13.9657C225.766 13.3624 224.976 12.4952 224.474 11.5333L240.624 3.10724ZM236.273 -1.5663C234.186 -2.85274 231.953 -3.33454 229.916 -3.33454V14.8813C229.088 14.8813 227.908 14.6755 226.716 13.9412L236.273 -1.5663ZM229.916 -3.33454C227.697 -3.33454 225.334 -2.76412 223.183 -1.34529L233.212 13.8608C232.04 14.6338 230.823 14.8813 229.916 14.8813V-3.33454ZM223.202 -1.35808C221.403 -0.177608 219.96 1.42648 218.976 3.33672L235.169 11.6788C234.717 12.5578 234.024 13.3285 233.193 13.8736L223.202 -1.35808ZM218.96 3.36847C218.015 5.21923 217.574 7.20108 217.574 9.17181H235.79C235.79 9.94464 235.609 10.8171 235.186 11.647L218.96 3.36847ZM217.574 9.17181V10.539H235.79V9.17181H217.574ZM217.574 10.539C217.574 12.3771 217.894 14.5324 218.958 16.6591L235.25 8.5127C235.751 9.51433 235.79 10.305 235.79 10.539H217.574ZM218.988 16.7191C220.012 18.7296 221.59 20.509 223.72 21.748L232.878 6.00189C233.988 6.64714 234.769 7.56716 235.22 8.45268L218.988 16.7191ZM223.78 21.7828C225.874 22.9793 228.078 23.4204 230.088 23.4204V5.20452C230.734 5.20452 231.745 5.35386 232.818 5.96705L223.78 21.7828ZM230.088 23.4204C231.389 23.4204 232.808 23.2359 234.253 22.7405L228.345 5.50934C229.061 5.26393 229.673 5.20452 230.088 5.20452V23.4204ZM234.363 22.7022C235.876 22.1617 237.314 21.3068 238.555 20.1146L225.934 6.97906C226.644 6.29724 227.451 5.82779 228.236 5.54763L234.363 22.7022ZM238.555 20.1146C239.886 18.8358 240.806 17.3364 241.382 15.7995L224.326 9.4035C224.621 8.6166 225.135 7.74739 225.934 6.97905L238.555 20.1146ZM231.239 21.565L233.45 21.9635L236.68 4.03641L234.469 3.63797L231.239 21.565ZM226.276 10.6094C226.487 9.83614 226.899 9.08796 227.463 8.48631L240.761 20.9354C242.241 19.3546 243.289 17.4658 243.853 15.3904L226.276 10.6094ZM227.46 8.48874C228.031 7.87834 228.637 7.53728 229.063 7.36961L235.739 24.3178C237.54 23.6084 239.286 22.5122 240.763 20.933L227.46 8.48874ZM229.097 7.35629C229.651 7.14034 230.025 7.13421 230.065 7.13421V25.35C231.855 25.35 233.786 25.0783 235.705 24.3311L229.097 7.35629ZM246.668 3.99994H255.776V-5.10798H246.668V3.99994ZM246.668 15.9999V25.1079H255.776V15.9999H246.668ZM244.387 15.9999H235.279V25.1079H244.387V15.9999ZM244.387 3.99994V-5.10798H235.279V3.99994H244.387ZM245.676 9.57025H254.784L242.563 1.01069L245.676 9.57025ZM245.676 11.5859L249.1 20.0254L254.784 17.7192V11.5859H245.676ZM244.535 11.9765L246.932 20.7635L246.984 20.7491L247.037 20.734L244.535 11.9765ZM243.269 12.2343L241.996 3.21583L241.996 3.21583L243.269 12.2343ZM238.348 11.2421L232.517 18.239L232.529 18.2493L232.542 18.2595L238.348 11.2421ZM237.035 3.9765V-5.13141H227.927V3.9765H237.035ZM239.309 3.9765H248.416V-5.13141H239.309V3.9765ZM239.621 9.28119L247.471 4.6633L247.471 4.66329L239.621 9.28119ZM240.512 10.0624L244.127 1.70267L244.127 1.70267L240.512 10.0624ZM243.832 10.1171L245.783 19.0136L245.812 19.0073L245.84 19.0008L243.832 10.1171ZM237.56 3.99994V15.9999H255.776V3.99994H237.56ZM246.668 6.89202H244.387V25.1079H246.668V6.89202ZM253.495 15.9999V3.99994H235.279V15.9999H253.495ZM244.387 13.1079H246.668V-5.10798H244.387V13.1079ZM236.568 9.57025V11.5859H254.784V9.57025H236.568ZM242.251 3.14636C242.215 3.16104 242.144 3.18723 242.033 3.21902L247.037 20.734C247.728 20.5366 248.418 20.3024 249.1 20.0254L242.251 3.14636ZM242.139 3.18951C242.133 3.19098 242.088 3.20284 241.996 3.21583L244.543 21.2528C245.336 21.1408 246.135 20.9808 246.932 20.7635L242.139 3.18951ZM241.996 3.21583C242.004 3.21472 241.97 3.22015 241.887 3.22015V21.436C242.762 21.436 243.649 21.3789 244.543 21.2528L241.996 3.21583ZM241.887 3.22015C241.863 3.22015 242.951 3.22982 244.154 4.22473L232.542 18.2595C235.494 20.7023 238.942 21.436 241.887 21.436V3.22015ZM244.178 4.24523C244.979 4.91229 245.53 5.73821 245.841 6.53143C246.129 7.26481 246.143 7.78652 246.143 7.89838H227.927C227.927 11.1854 228.952 15.268 232.517 18.239L244.178 4.24523ZM246.143 7.89838V3.9765H227.927V7.89838H246.143ZM237.035 13.0844H239.309V-5.13141H237.035V13.0844ZM230.201 3.9765V7.89838H248.416V3.9765H230.201ZM230.201 7.89838C230.201 9.49736 230.483 11.7102 231.771 13.8991L247.471 4.66329C248.342 6.14384 248.416 7.43481 248.416 7.89838H230.201ZM231.771 13.8991C232.981 15.9569 234.78 17.5069 236.897 18.4222L244.127 1.70267C245.472 2.2846 246.678 3.31386 247.471 4.6633L231.771 13.8991ZM236.897 18.4222C238.683 19.1946 240.43 19.4204 241.887 19.4204V1.20452C242.281 1.20452 243.111 1.26357 244.127 1.70267L236.897 18.4222ZM241.887 19.4204C243.146 19.4204 244.458 19.3042 245.783 19.0136L241.881 1.22062C241.951 1.20522 241.99 1.20135 241.99 1.20126C241.991 1.20119 241.958 1.20452 241.887 1.20452V19.4204ZM245.84 19.0008C246.846 18.7734 247.83 18.4784 248.788 18.1298L242.563 1.01069C242.261 1.12048 242.016 1.18999 241.823 1.23343L245.84 19.0008Z" fill="#FF2929"/>
</svg>
