<svg width="35" height="35" viewBox="0 0 35 35" fill="none" xmlns="http://www.w3.org/2000/svg">
<path d="M14.6924 18.2291C15.2335 18.9605 15.924 19.5657 16.7168 20.0037C17.5097 20.4416 18.3864 20.702 19.2876 20.7673C20.1887 20.8325 21.0932 20.7011 21.9397 20.3819C22.7862 20.0626 23.5549 19.5631 24.1936 18.9171L27.9739 15.0951C29.1216 13.8938 29.7567 12.2847 29.7423 10.6146C29.728 8.94441 29.0653 7.34677 27.8972 6.16574C26.729 4.98472 25.1487 4.3148 23.4968 4.30029C21.8448 4.28578 20.2533 4.92782 19.065 6.08815L16.8976 8.26664" stroke="white" stroke-width="2.8667" stroke-linecap="round" stroke-linejoin="round"/>
<path d="M19.7094 16.1713C19.1682 15.4399 18.4778 14.8346 17.6849 14.3967C16.8921 13.9588 16.0153 13.6983 15.1142 13.6331C14.213 13.5678 13.3085 13.6993 12.462 14.0185C11.6155 14.3378 10.8469 14.8373 10.2081 15.4833L6.42782 19.3053C5.28012 20.5066 4.64506 22.1157 4.65942 23.7858C4.67377 25.456 5.33639 27.0536 6.50457 28.2347C7.67274 29.4157 9.25299 30.0856 10.905 30.1001C12.557 30.1146 14.1485 29.4726 15.3368 28.3122L17.4916 26.1337" stroke="white" stroke-width="2.8667" stroke-linecap="round" stroke-linejoin="round"/>
</svg>
