<svg width="19" height="31" viewBox="0 0 19 31" fill="none" xmlns="http://www.w3.org/2000/svg">
<g id="ok" clip-path="url(#clip0_181_118)">
<path id="Vector" d="M6.58097 22.357C4.86803 21.9491 3.36922 21.3374 1.87039 20.5216C1.01392 20.1137 0.799805 19.2981 0.799805 18.4824C0.799805 17.6667 1.22805 17.0549 2.0845 16.6471C2.94097 16.2392 3.79745 16.2392 4.43981 16.6471C8.07981 18.8903 11.7198 18.8903 15.3598 16.6471C16.2162 16.2392 16.8587 16.2392 17.7151 16.6471C18.5715 17.0549 18.9998 17.6667 18.9998 18.4824C18.9998 19.2981 18.5715 20.1137 17.9292 20.5216C16.4304 21.3374 14.9315 21.9491 13.2187 22.357L17.7151 26.6392C18.7857 27.6588 18.7857 28.8823 17.7151 29.9019C16.6445 30.9217 15.3598 30.9217 14.2892 29.9019L9.79275 25.6196L5.29628 29.9019C4.65392 30.5138 3.79745 30.7176 2.94097 30.5138C2.08452 30.3098 1.44216 29.698 1.22803 28.8823C1.01392 28.0667 1.22803 27.2509 1.87039 26.6392L6.58097 22.357ZM10.0069 15.8314C4.65392 15.8314 1.87039 13.1804 1.87039 8.08236C1.87039 2.98432 4.65392 0.333344 10.0069 0.333344C15.3598 0.333344 18.1434 2.98432 18.1434 8.08236C18.1434 13.3843 15.3598 15.8314 10.0069 15.8314ZM10.0069 4.81962C7.65158 4.81962 6.58097 5.83923 6.58097 8.08236C6.58097 9.91767 8.07981 11.3451 10.0069 11.3451C12.3622 11.3451 13.4328 10.3255 13.4328 8.08236C13.2187 6.04315 12.148 4.81962 10.0069 4.81962Z" fill="white"/>
</g>
<defs>
<clipPath id="clip0_181_118">
<rect width="18.2" height="30.3333" fill="white" transform="translate(0.799805 0.333344)"/>
</clipPath>
</defs>
</svg>
