<svg width="389" height="89" viewBox="0 0 389 89" fill="none" xmlns="http://www.w3.org/2000/svg">
<rect width="390" height="89" transform="translate(-1)" fill="#F4F4F4"/>
<path d="M9.19531 8.46893H10.5709L10.5709 19.8404C10.5709 21.6156 10.7065 23.0447 10.9777 24.1277C11.2538 25.1996 11.6507 25.9755 12.1684 26.4556C12.686 26.9357 13.3097 27.1758 14.0394 27.1758C14.4388 27.1758 14.8357 27.1367 15.2301 27.0585C15.6246 26.9804 16.0141 26.8687 16.3986 26.7236C16.7881 26.5673 17.1727 26.3831 17.5524 26.1709C17.932 25.9588 18.3043 25.7132 18.6691 25.434V28.3146C18.2845 28.5937 17.9098 28.8393 17.545 29.0515C17.1801 29.2636 16.8128 29.4478 16.443 29.6041C16.0782 29.7493 15.6985 29.8609 15.3041 29.9391C14.9097 30.0061 14.4906 30.0396 14.0468 30.0396C13.0213 30.0396 12.1462 29.6879 11.4214 28.9845C10.6966 28.2811 10.1444 27.1814 9.76478 25.6852C9.38513 24.178 9.19531 22.2297 9.19531 19.8404L9.19531 8.46893ZM18.4916 8.46893H19.845L19.845 42.7676H18.4916L18.4916 8.46893Z" fill="#969696"/>
<path d="M22.4086 42.7676L22.4086 8.46893H27.2971C28.3719 8.46893 29.2692 8.93785 29.9891 9.87571C30.7138 10.8024 31.2586 12.064 31.6235 13.6606C31.9933 15.2572 32.1782 17.0548 32.1782 19.0533C32.1782 21.0518 31.9957 22.8549 31.6309 24.4627C31.266 26.0593 30.7237 27.3265 30.0039 28.2643C29.284 29.191 28.3891 29.6544 27.3192 29.6544H23.4735V26.8408H27.2823C28.0761 26.8408 28.7343 26.5059 29.2569 25.836C29.7795 25.1549 30.169 24.2282 30.4254 23.0559C30.6867 21.8836 30.8174 20.5494 30.8174 19.0533C30.8174 17.5572 30.6867 16.223 30.4254 15.0507C30.169 13.8783 29.7771 12.9572 29.2495 12.2873C28.7269 11.6174 28.0637 11.2825 27.2601 11.2825H23.7915L23.7915 42.7676H22.4086Z" fill="#969696"/>
<path d="M33.967 42.7676L33.967 8.46893H42.753V11.2825L35.35 11.2825L35.35 24.1947H42.2871V27.0083H35.35L35.35 39.954H42.9009V42.7676H33.967Z" fill="#969696"/>
<path d="M49.4673 43.2365C48.5355 43.2365 47.7023 42.8569 46.9676 42.0977C46.233 41.3273 45.6512 40.2611 45.2223 38.8989C44.7933 37.5368 44.5665 35.9681 44.5419 34.1929H45.9396C45.9643 35.4434 46.1344 36.5376 46.4499 37.4754C46.7655 38.4021 47.1846 39.1278 47.7072 39.6526C48.2298 40.1662 48.8116 40.423 49.4526 40.423C50.1527 40.423 50.769 40.1271 51.3015 39.5353C51.8389 38.9436 52.258 38.1341 52.5587 37.107C52.8644 36.0686 53.0172 34.8963 53.0172 33.59C53.0172 32.2056 52.8619 30.983 52.5513 29.9223C52.2407 28.8617 51.7945 28.0355 51.2127 27.4437C50.6359 26.852 49.9456 26.5561 49.1419 26.5561H48.2545V23.7426H49.1419C49.7977 23.7426 50.377 23.4746 50.8799 22.9387C51.3877 22.3916 51.7871 21.6268 52.078 20.6443C52.3689 19.6618 52.5143 18.5062 52.5143 17.1776C52.5143 15.9159 52.3886 14.805 52.1372 13.8448C51.8857 12.8847 51.5307 12.131 51.0722 11.5839C50.6186 11.0369 50.0886 10.7633 49.4821 10.7633C48.8954 10.7633 48.358 11.0201 47.8699 11.5337C47.3818 12.0473 46.9874 12.773 46.6866 13.7109C46.3908 14.6487 46.233 15.7596 46.2133 17.0436H44.8747C44.8944 15.2572 45.1113 13.6885 45.5255 12.3376C45.9446 10.9755 46.4992 9.91479 47.1895 9.15557C47.8847 8.38519 48.6538 8 49.4969 8C50.3893 8 51.1609 8.4131 51.8118 9.23931C52.4626 10.0655 52.9655 11.1653 53.3205 12.5385C53.6804 13.9007 53.8603 15.4023 53.8603 17.0436C53.8603 18.9975 53.6262 20.6722 53.1578 22.0678C52.6894 23.4523 52.0583 24.4124 51.2645 24.9484V25.1661C52.2308 25.6015 52.9901 26.5729 53.5423 28.0801C54.0995 29.5762 54.378 31.4129 54.378 33.59C54.378 35.4211 54.166 37.0679 53.742 38.5305C53.318 39.9819 52.7362 41.1319 51.9967 41.9805C51.262 42.8178 50.4189 43.2365 49.4673 43.2365Z" fill="#969696"/>
<path d="M56.5145 8.46893H58.1119L63.6069 38.3463H63.74L69.235 8.46893H70.8324L70.8324 42.7676H69.5308L69.5308 15.0841H69.4124L64.3021 42.7676H63.0448L57.9344 15.0841H57.8161L57.8161 42.7676H56.5145L56.5145 8.46893Z" fill="#969696"/>
<path d="M73.4015 42.7676L73.4015 8.46893H82.1875V11.2825H74.7845V24.1947L81.7216 24.1947V27.0083L74.7845 27.0083L74.7845 39.954L82.3354 39.954V42.7676H73.4015Z" fill="#969696"/>
<path d="M84.3091 42.7676L84.3091 8.46893H89.1977C90.2725 8.46893 91.1698 8.93785 91.8897 9.87571C92.6144 10.8024 93.1592 12.064 93.5241 13.6606C93.8939 15.2572 94.0788 17.0548 94.0788 19.0533C94.0788 21.0518 93.8963 22.8549 93.5315 24.4627C93.1666 26.0593 92.6243 27.3265 91.9044 28.2643C91.1846 29.191 90.2897 29.6544 89.2198 29.6544H85.3741L85.3741 26.8408H89.1829C89.9767 26.8408 90.6349 26.5059 91.1575 25.836C91.6801 25.1549 92.0696 24.2282 92.326 23.0559C92.5873 21.8836 92.718 20.5494 92.718 19.0533C92.718 17.5572 92.5873 16.223 92.326 15.0507C92.0696 13.8783 91.6776 12.9572 91.1501 12.2873C90.6275 11.6174 89.9643 11.2825 89.1607 11.2825L85.6921 11.2825L85.6921 42.7676H84.3091Z" fill="#969696"/>
<path d="M95.8676 42.7676L95.8676 8.46893H97.2506V24.1947H105.844V8.46893H107.227L107.227 42.7676H105.844L105.844 27.0083H97.2506L97.2506 42.7676H95.8676Z" fill="#969696"/>
<path d="M122.203 25.6183C122.203 29.191 121.921 32.3005 121.359 34.9466C120.797 37.5815 120.023 39.6247 119.037 41.0761C118.056 42.5164 116.927 43.2365 115.65 43.2365C114.373 43.2365 113.241 42.5164 112.255 41.0761C111.274 39.6247 110.503 37.5815 109.941 34.9466C109.383 32.3005 109.105 29.191 109.105 25.6183C109.105 22.0455 109.383 18.9416 109.941 16.3067C110.503 13.6606 111.277 11.6174 112.263 10.1772C113.249 8.72572 114.378 8 115.65 8C116.927 8 118.056 8.72572 119.037 10.1772C120.023 11.6174 120.797 13.6606 121.359 16.3067C121.921 18.9416 122.203 22.0455 122.203 25.6183ZM120.857 25.6183C120.857 22.5479 120.63 19.9186 120.176 17.7302C119.723 15.5307 119.104 13.8504 118.32 12.6893C117.536 11.5281 116.646 10.9475 115.65 10.9475C114.659 10.9475 113.772 11.5281 112.988 12.6893C112.204 13.8504 111.582 15.5252 111.124 17.7135C110.67 19.9018 110.443 22.5367 110.443 25.6183C110.443 28.6886 110.67 31.318 111.124 33.5063C111.577 35.6946 112.196 37.3749 112.98 38.5472C113.764 39.7084 114.654 40.289 115.65 40.289C116.646 40.289 117.536 39.7084 118.32 38.5472C119.109 37.3861 119.73 35.7114 120.184 33.523C120.637 31.3235 120.861 28.6886 120.857 25.6183Z" fill="#969696"/>
<path d="M124.089 42.7676L124.089 8.46893H132.875V11.2825H125.472V24.1947H132.409V27.0083H125.472L125.472 39.954H133.023V42.7676H124.089Z" fill="#969696"/>
<path d="M139.922 43.2365V40.3057H140.676C141.1 40.3057 141.453 40.155 141.734 39.8535C142.02 39.5409 142.256 39.1111 142.444 38.564C142.636 38.0058 142.801 37.3526 142.939 36.6045L143.19 35.2313L137.977 8.46893H139.463L143.886 31.4464L147.968 8.46893H149.432L144.204 37.5424C143.992 38.6812 143.75 39.6805 143.479 40.5402C143.213 41.3887 142.863 42.053 142.429 42.5331C141.995 43.0021 141.423 43.2365 140.713 43.2365H139.922Z" fill="#969696"/>
<path d="M161.374 8.46893V42.7676H159.998V11.2825H151.841V42.7676H150.458V8.46893L161.374 8.46893Z" fill="#969696"/>
<path d="M176.253 25.6183C176.253 29.191 175.972 32.3005 175.41 34.9466C174.848 37.5815 174.073 39.6247 173.087 41.0761C172.106 42.5164 170.977 43.2365 169.7 43.2365C168.423 43.2365 167.292 42.5164 166.306 41.0761C165.324 39.6247 164.553 37.5815 163.991 34.9466C163.434 32.3005 163.155 29.191 163.155 25.6183C163.155 22.0455 163.434 18.9416 163.991 16.3067C164.553 13.6606 165.327 11.6174 166.313 10.1772C167.299 8.72572 168.428 8 169.7 8C170.977 8 172.106 8.72572 173.087 10.1772C174.073 11.6174 174.848 13.6606 175.41 16.3067C175.972 18.9416 176.253 22.0455 176.253 25.6183ZM174.907 25.6183C174.907 22.5479 174.68 19.9186 174.226 17.7302C173.773 15.5307 173.154 13.8504 172.37 12.6893C171.586 11.5281 170.696 10.9475 169.7 10.9475C168.709 10.9475 167.822 11.5281 167.038 12.6893C166.254 13.8504 165.633 15.5252 165.174 17.7135C164.72 19.9018 164.494 22.5367 164.494 25.6183C164.494 28.6886 164.72 31.318 165.174 33.5063C165.628 35.6946 166.246 37.3749 167.03 38.5472C167.814 39.7084 168.704 40.289 169.7 40.289C170.696 40.289 171.586 39.7084 172.37 38.5472C173.159 37.3861 173.78 35.7114 174.234 33.523C174.687 31.3235 174.912 28.6886 174.907 25.6183Z" fill="#969696"/>
<path d="M176.592 11.2825V8.46893L187.574 8.46893V11.2825H182.775V42.7676H181.392V11.2825L176.592 11.2825Z" fill="#969696"/>
<path d="M189.23 42.7676V8.46893H194.119C195.194 8.46893 196.091 8.93785 196.811 9.87571C197.536 10.8024 198.08 12.064 198.445 13.6606C198.815 15.2572 199 17.0548 199 19.0533C199 21.0518 198.817 22.8549 198.453 24.4627C198.088 26.0593 197.545 27.3265 196.826 28.2643C196.106 29.191 195.211 29.6544 194.141 29.6544H190.295V26.8408H194.104C194.898 26.8408 195.556 26.5059 196.079 25.836C196.601 25.1549 196.991 24.2282 197.247 23.0559C197.508 21.8836 197.639 20.5494 197.639 19.0533C197.639 17.5572 197.508 16.223 197.247 15.0507C196.991 13.8783 196.599 12.9572 196.071 12.2873C195.549 11.6174 194.885 11.2825 194.082 11.2825H190.613V42.7676H189.23Z" fill="#969696"/>
<path d="M200.789 42.7676V8.46893L209.575 8.46893V11.2825L202.172 11.2825V24.1947H209.109V27.0083H202.172V39.954H209.723V42.7676H200.789Z" fill="#969696"/>
<path d="M211.696 42.7676V8.46893H220.534V11.2825H213.079V23.5416H217.376C218.387 23.5416 219.245 23.9268 219.95 24.6972C220.66 25.4675 221.202 26.5561 221.577 27.9629C221.952 29.3697 222.139 31.0221 222.139 32.9201C222.139 34.8851 221.952 36.6046 221.577 38.0783C221.207 39.5521 220.667 40.7021 219.957 41.5283C219.252 42.3545 218.392 42.7676 217.376 42.7676H211.696ZM213.079 40.0043H217.376C218.101 40.0043 218.715 39.6861 219.218 39.0497C219.725 38.4021 220.113 37.5424 220.379 36.4706C220.645 35.3876 220.778 34.1818 220.778 32.8531C220.778 31.0109 220.477 29.4702 219.876 28.2309C219.279 26.9804 218.446 26.3551 217.376 26.3551L213.079 26.3551V40.0043Z" fill="#969696"/>
<path d="M222.58 42.7676V39.8703H222.979C223.605 39.8703 224.101 39.4014 224.466 38.4635C224.831 37.5145 225.099 35.9961 225.272 33.9082C225.445 31.8204 225.558 29.0738 225.612 25.6685L225.878 8.46893L234.768 8.46893V42.7676H233.385V11.2825H227.195L226.951 26.3551C226.892 29.9837 226.744 33.015 226.507 35.449C226.27 37.8718 225.876 39.6972 225.324 40.9254C224.776 42.1535 224.002 42.7676 223.001 42.7676H222.58Z" fill="#969696"/>
<path d="M237.335 42.7676V8.46893H246.121V11.2825H238.718V24.1947H245.655V27.0083H238.718V39.954H246.269V42.7676L237.335 42.7676Z" fill="#969696"/>
<path d="M248.243 42.7676V8.46893H249.626V24.1947H258.22V8.46893H259.602V42.7676H258.22V27.0083H249.626V42.7676H248.243Z" fill="#969696"/>
<path d="M262.161 8.46893H263.521V37.2242H263.64L272.611 8.46893L273.957 8.46893V42.7676H272.574V14.0458H272.455L263.499 42.7676H262.161V8.46893Z" fill="#969696"/>
<path d="M276.526 42.7676V8.46893H285.312V11.2825H277.909V24.1947H284.846V27.0083H277.909V39.954H285.46V42.7676H276.526Z" fill="#969696"/>
<path d="M302.638 8.46893V42.7676H301.262V11.2825L293.105 11.2825V42.7676H291.722V8.46893L302.638 8.46893Z" fill="#969696"/>
<path d="M305.1 8.46893H306.46V37.2242H306.579L315.55 8.46893H316.896V42.7676H315.513V14.0458H315.394L306.438 42.7676H305.1V8.46893Z" fill="#969696"/>
<path d="M319.465 42.7676V8.46893L324.575 8.46893C325.561 8.46893 326.382 8.8597 327.038 9.64124C327.698 10.4228 328.194 11.489 328.524 12.84C328.855 14.191 329.02 15.7261 329.02 17.4455C329.02 18.8746 328.914 20.0972 328.702 21.1132C328.49 22.1292 328.201 22.9498 327.837 23.5751C327.472 24.2003 327.065 24.6525 326.616 24.9316V25.1996C327.104 25.2777 327.578 25.6685 328.036 26.3719C328.495 27.0641 328.872 28.0355 329.168 29.2859C329.464 30.5364 329.612 32.0325 329.612 33.7742C329.612 35.5048 329.441 37.0511 329.101 38.4133C328.761 39.7642 328.238 40.8305 327.533 41.612C326.833 42.3824 325.941 42.7676 324.856 42.7676H319.465ZM320.848 39.954H324.856C326.025 39.954 326.887 39.3679 327.445 38.1956C328.007 37.0232 328.288 35.5495 328.288 33.7742C328.288 32.4679 328.147 31.2845 327.866 30.2238C327.59 29.152 327.198 28.3034 326.69 27.6782C326.187 27.053 325.596 26.7403 324.915 26.7403H320.848V39.954ZM320.848 23.9603H324.701C325.297 23.9603 325.82 23.6811 326.269 23.1229C326.717 22.5647 327.067 21.7943 327.319 20.8118C327.57 19.8292 327.696 18.7072 327.696 17.4455C327.696 15.6256 327.435 14.1463 326.912 13.0075C326.389 11.8575 325.611 11.2825 324.575 11.2825H320.848V23.9603Z" fill="#969696"/>
<path d="M331.491 42.7676V8.46893H332.874V24.1947H341.468V8.46893H342.851V42.7676H341.468V27.0083H332.874V42.7676L331.491 42.7676Z" fill="#969696"/>
<path d="M357.826 25.6183C357.826 29.191 357.545 32.3005 356.983 34.9466C356.421 37.5815 355.647 39.6247 354.661 41.0761C353.679 42.5164 352.55 43.2365 351.273 43.2365C349.996 43.2365 348.865 42.5164 347.879 41.0761C346.898 39.6247 346.126 37.5815 345.564 34.9466C345.007 32.3005 344.728 29.191 344.728 25.6183C344.728 22.0455 345.007 18.9416 345.564 16.3067C346.126 13.6606 346.9 11.6174 347.886 10.1772C348.872 8.72572 350.001 8 351.273 8C352.55 8 353.679 8.72572 354.661 10.1772C355.647 11.6174 356.421 13.6606 356.983 16.3067C357.545 18.9416 357.826 22.0455 357.826 25.6183ZM356.48 25.6183C356.48 22.5479 356.253 19.9186 355.799 17.7302C355.346 15.5307 354.727 13.8504 353.943 12.6893C353.159 11.5281 352.269 10.9475 351.273 10.9475C350.282 10.9475 349.395 11.5281 348.611 12.6893C347.827 13.8504 347.206 15.5252 346.747 17.7135C346.294 19.9018 346.067 22.5367 346.067 25.6183C346.067 28.6886 346.294 31.318 346.747 33.5063C347.201 35.6946 347.82 37.3749 348.604 38.5472C349.387 39.7084 350.277 40.289 351.273 40.289C352.269 40.289 353.159 39.7084 353.943 38.5472C354.732 37.3861 355.353 35.7114 355.807 33.523C356.26 31.3235 356.485 28.6886 356.48 25.6183Z" fill="#969696"/>
<path d="M368.558 8.46893V11.2825L361.096 11.2825V42.7676H359.713V8.46893L368.558 8.46893Z" fill="#969696"/>
<path d="M382 25.6183C382 29.191 381.719 32.3005 381.157 34.9466C380.595 37.5815 379.821 39.6247 378.835 41.0761C377.854 42.5164 376.725 43.2365 375.448 43.2365C374.171 43.2365 373.039 42.5164 372.053 41.0761C371.072 39.6247 370.3 37.5815 369.738 34.9466C369.181 32.3005 368.903 29.191 368.903 25.6183C368.903 22.0455 369.181 18.9416 369.738 16.3067C370.3 13.6606 371.075 11.6174 372.061 10.1772C373.047 8.72572 374.176 8 375.448 8C376.725 8 377.854 8.72572 378.835 10.1772C379.821 11.6174 380.595 13.6606 381.157 16.3067C381.719 18.9416 382 22.0455 382 25.6183ZM380.654 25.6183C380.654 22.5479 380.428 19.9186 379.974 17.7302C379.52 15.5307 378.902 13.8504 378.118 12.6893C377.334 11.5281 376.444 10.9475 375.448 10.9475C374.457 10.9475 373.569 11.5281 372.785 12.6893C372.001 13.8504 371.38 15.5252 370.922 17.7135C370.468 19.9018 370.241 22.5367 370.241 25.6183C370.241 28.6886 370.468 31.318 370.922 33.5063C371.375 35.6946 371.994 37.3749 372.778 38.5472C373.562 39.7084 374.452 40.289 375.448 40.289C376.444 40.289 377.334 39.7084 378.118 38.5472C378.907 37.3861 379.528 35.7114 379.981 33.523C380.435 31.3235 380.659 28.6886 380.654 25.6183Z" fill="#969696"/>
<path d="M9 80.7234L9 46.4247H10.383L10.383 62.1505H18.9767V46.4247H20.3596L20.3596 80.7234H18.9767L18.9767 64.9641H10.383L10.383 80.7234H9Z" fill="#969696"/>
<path d="M22.9399 80.7234H21.4903L27.0001 46.4247H28.4792L33.9889 80.7234H32.5394L27.7914 50.4944H27.6879L22.9399 80.7234ZM23.9826 67.5767H31.4966V70.3903H23.9826V67.5767Z" fill="#969696"/>
<path d="M45.9319 46.4247L45.9319 80.7234H44.5564L44.5564 49.2383H36.399L36.399 80.7234H35.016L35.016 46.4247H45.9319Z" fill="#969696"/>
<path d="M48.3938 46.4247H49.7546L49.7546 75.18H49.8729L58.8438 46.4247H60.1898L60.1898 80.7234H58.8069L58.8069 52.0016H58.6885L49.7324 80.7234H48.3938L48.3938 46.4247Z" fill="#969696"/>
<path d="M61.8418 49.2383V46.4247H72.8244V49.2383H68.0246V80.7234H66.6416V49.2383H61.8418Z" fill="#969696"/>
<path d="M83.2587 80.7234L78.0448 64.5454H75.8631V80.7234L74.4801 80.7234V46.4247L75.8631 46.4247V61.7486H77.2312L82.815 46.4247H84.4568L78.8435 61.8826L84.9153 80.7234H83.2587Z" fill="#969696"/>
<path d="M86.0811 80.7234H84.6315L90.1413 46.4247H91.6204L97.1301 80.7234H95.6806L90.9326 50.4944H90.829L86.0811 80.7234ZM87.1238 67.5767H94.6378V70.3903H87.1238V67.5767Z" fill="#969696"/>
<path d="M102.668 80.7234V46.4247H107.778C108.764 46.4247 109.585 46.8155 110.241 47.5971C110.901 48.3786 111.397 49.4449 111.727 50.7958C112.058 52.1468 112.223 53.6819 112.223 55.4013C112.223 56.8305 112.117 58.053 111.905 59.069C111.693 60.085 111.404 60.9057 111.04 61.5309C110.675 62.1561 110.268 62.6083 109.819 62.8874V63.1554C110.307 63.2335 110.781 63.6243 111.239 64.3277C111.698 65.0199 112.075 65.9913 112.371 67.2417C112.667 68.4922 112.814 69.9883 112.814 71.7301C112.814 73.4606 112.644 75.007 112.304 76.3691C111.964 77.72 111.441 78.7863 110.736 79.5678C110.036 80.3382 109.144 80.7234 108.059 80.7234H102.668ZM104.051 77.9098H108.059C109.228 77.9098 110.09 77.3237 110.648 76.1514C111.21 74.979 111.491 73.5053 111.491 71.7301C111.491 70.4238 111.35 69.2403 111.069 68.1796C110.793 67.1078 110.401 66.2592 109.893 65.634C109.39 65.0088 108.799 64.6961 108.118 64.6961H104.051V77.9098ZM104.051 61.9161H107.904C108.5 61.9161 109.023 61.637 109.472 61.0787C109.92 60.5205 110.27 59.7501 110.522 58.7676C110.773 57.7851 110.899 56.663 110.899 55.4013C110.899 53.5815 110.638 52.1021 110.115 50.9633C109.592 49.8133 108.813 49.2383 107.778 49.2383H104.051V61.9161Z" fill="#969696"/>
<path d="M114.694 80.7234V46.4247H119.582C120.657 46.4247 121.555 46.8937 122.274 47.8315C122.999 48.7582 123.544 50.0198 123.909 51.6164C124.279 53.213 124.464 55.0106 124.464 57.0091C124.464 59.0076 124.281 60.8108 123.916 62.4185C123.551 64.0151 123.009 65.2823 122.289 66.2202C121.569 67.1468 120.674 67.6102 119.605 67.6102H115.759V64.7966H119.568C120.361 64.7966 121.02 64.4617 121.542 63.7918C122.065 63.1107 122.454 62.184 122.711 61.0117C122.972 59.8394 123.103 58.5052 123.103 57.0091C123.103 55.513 122.972 54.1788 122.711 53.0065C122.454 51.8341 122.062 50.913 121.535 50.2431C121.012 49.5732 120.349 49.2383 119.545 49.2383H116.077V80.7234H114.694Z" fill="#969696"/>
<path d="M126.252 80.7234V46.4247H135.038V49.2383H127.635V62.1505L134.572 62.1505V64.9641L127.635 64.9641V77.9098L135.186 77.9098V80.7234H126.252Z" fill="#969696"/>
<path d="M135.733 89.0469V77.9098H136.694C137.044 77.0836 137.367 75.9951 137.663 74.6441C137.959 73.282 138.205 71.5291 138.403 69.3854C138.605 67.2306 138.735 64.5398 138.794 61.3132L139.098 46.4247H147.758V77.9098H149.533V88.9631H148.216V80.7234H137.049V89.0469H135.733ZM138.351 77.9098H146.442V49.2383H140.355L140.118 61.3132C140.064 63.9369 139.963 66.276 139.815 68.3303C139.667 70.3735 139.47 72.1878 139.223 73.7732C138.982 75.3475 138.691 76.7264 138.351 77.9098Z" fill="#969696"/>
<path d="M151.057 46.4247H152.418V75.18H152.536L161.507 46.4247H162.853V80.7234H161.47V52.0016H161.352L152.396 80.7234H151.057V46.4247Z" fill="#969696"/>
<path d="M164.505 49.2383V46.4247H175.488V49.2383H170.688V80.7234H169.305V49.2383H164.505Z" fill="#969696"/>
<path d="M181.543 80.7234V46.4247H186.654C187.64 46.4247 188.461 46.8155 189.116 47.5971C189.777 48.3786 190.272 49.4449 190.603 50.7958C190.933 52.1468 191.098 53.6819 191.098 55.4013C191.098 56.8305 190.992 58.053 190.78 59.069C190.568 60.085 190.28 60.9057 189.915 61.5309C189.55 62.1561 189.143 62.6083 188.695 62.8874V63.1554C189.183 63.2335 189.656 63.6243 190.115 64.3277C190.573 65.0199 190.95 65.9913 191.246 67.2417C191.542 68.4922 191.69 69.9883 191.69 71.7301C191.69 73.4606 191.52 75.007 191.18 76.3691C190.839 77.72 190.317 78.7863 189.612 79.5678C188.912 80.3382 188.019 80.7234 186.935 80.7234H181.543ZM182.926 77.9098H186.935C188.103 77.9098 188.966 77.3237 189.523 76.1514C190.085 74.979 190.366 73.5053 190.366 71.7301C190.366 70.4238 190.226 69.2403 189.945 68.1796C189.668 67.1078 189.277 66.2592 188.769 65.634C188.266 65.0088 187.674 64.6961 186.994 64.6961H182.926V77.9098ZM182.926 61.9161H186.779C187.376 61.9161 187.898 61.637 188.347 61.0787C188.796 60.5205 189.146 59.7501 189.397 58.7676C189.649 57.7851 189.775 56.663 189.775 55.4013C189.775 53.5815 189.513 52.1021 188.991 50.9633C188.468 49.8133 187.689 49.2383 186.654 49.2383H182.926V61.9161Z" fill="#969696"/>
<path d="M193.592 80.7234H192.142L197.652 46.4247H199.131L204.641 80.7234H203.191L198.443 50.4944H198.34L193.592 80.7234ZM194.634 67.5767H202.148V70.3903H194.634V67.5767Z" fill="#969696"/>
<path d="M205.779 46.4247H207.162V77.8261H212.842V46.4247H214.224V77.8261H219.912V46.4247H221.287V80.7234H205.779V46.4247Z" fill="#969696"/>
<path d="M223.845 80.7234V46.4247H232.631V49.2383H225.228V62.1505H232.165V64.9641H225.228V77.9098H232.779V80.7234H223.845Z" fill="#969696"/>
<path d="M234.753 46.4247H236.35L241.845 76.3021H241.978L247.473 46.4247H249.071V80.7234H247.769V53.04H247.651L242.541 80.7234H241.283L236.173 53.04H236.055V80.7234H234.753V46.4247Z" fill="#969696"/>
<path d="M252.165 81.1923V78.2615H252.919C253.343 78.2615 253.696 78.1108 253.977 77.8094C254.263 77.4967 254.5 77.0669 254.687 76.5198C254.879 75.9616 255.044 75.3084 255.182 74.5604L255.434 73.1871L250.22 46.4247H251.706L256.129 69.4022L260.211 46.4247H261.676L256.447 75.4982C256.235 76.637 255.994 77.6363 255.722 78.496C255.456 79.3445 255.106 80.0089 254.672 80.4889C254.238 80.9579 253.666 81.1923 252.956 81.1923H252.165Z" fill="#969696"/>
<path d="M271.804 81.1923C270.872 81.1923 270.039 80.8127 269.304 80.0535C268.57 79.2831 267.988 78.2169 267.559 76.8548C267.13 75.4926 266.903 73.924 266.879 72.1487H268.276C268.301 73.3992 268.471 74.4934 268.787 75.4312C269.102 76.3579 269.521 77.0836 270.044 77.6084C270.567 78.122 271.148 78.3788 271.789 78.3788C272.49 78.3788 273.106 78.0829 273.638 77.4912C274.176 76.8994 274.595 76.09 274.896 75.0628C275.201 74.0244 275.354 72.8521 275.354 71.5458C275.354 70.1614 275.199 68.9388 274.888 67.8782C274.578 66.8175 274.131 65.9913 273.55 65.3995C272.973 64.8078 272.282 64.5119 271.479 64.5119H270.591V61.6984H271.479C272.135 61.6984 272.714 61.4304 273.217 60.8945C273.725 60.3474 274.124 59.5826 274.415 58.6001C274.706 57.6176 274.851 56.462 274.851 55.1334C274.851 53.8717 274.725 52.7608 274.474 51.8007C274.223 50.8405 273.868 50.0868 273.409 49.5398C272.955 48.9927 272.425 48.7191 271.819 48.7191C271.232 48.7191 270.695 48.9759 270.207 49.4895C269.719 50.0031 269.324 50.7288 269.023 51.6667C268.728 52.6045 268.57 53.7154 268.55 54.9994H267.212C267.231 53.213 267.448 51.6443 267.862 50.2934C268.281 48.9313 268.836 47.8706 269.526 47.1114C270.221 46.341 270.991 45.9558 271.834 45.9558C272.726 45.9558 273.498 46.3689 274.149 47.1951C274.799 48.0213 275.302 49.1211 275.657 50.4944C276.017 51.8565 276.197 53.3582 276.197 54.9994C276.197 56.9533 275.963 58.628 275.495 60.0236C275.026 61.4081 274.395 62.3683 273.601 62.9042V63.1219C274.568 63.5573 275.327 64.5287 275.879 66.0359C276.436 67.532 276.715 69.3687 276.715 71.5458C276.715 73.3769 276.503 75.0237 276.079 76.4863C275.655 77.9378 275.073 79.0877 274.333 79.9363C273.599 80.7736 272.756 81.1923 271.804 81.1923Z" fill="#969696"/>
<path d="M277.424 89.0469V77.9098H278.385C278.735 77.0836 279.058 75.9951 279.354 74.6441C279.65 73.282 279.897 71.5291 280.094 69.3854C280.296 67.2306 280.427 64.5398 280.486 61.3132L280.789 46.4247H289.449V77.9098H291.224V88.9631H289.908V80.7234H278.74V89.0469H277.424ZM280.042 77.9098H288.133V49.2383H282.046L281.81 61.3132C281.755 63.9369 281.654 66.276 281.506 68.3303C281.358 70.3735 281.161 72.1878 280.915 73.7732C280.673 75.3475 280.382 76.7264 280.042 77.9098Z" fill="#969696"/>
<path d="M305.166 63.5741C305.166 67.1468 304.885 70.2563 304.323 72.9024C303.761 75.5373 302.987 77.5805 302.001 79.0319C301.019 80.4722 299.89 81.1923 298.613 81.1923C297.336 81.1923 296.205 80.4722 295.219 79.0319C294.238 77.5805 293.466 75.5373 292.904 72.9024C292.347 70.2563 292.068 67.1468 292.068 63.5741C292.068 60.0013 292.347 56.8974 292.904 54.2625C293.466 51.6164 294.24 49.5732 295.226 48.133C296.212 46.6815 297.341 45.9558 298.613 45.9558C299.89 45.9558 301.019 46.6815 302.001 48.133C302.987 49.5732 303.761 51.6164 304.323 54.2625C304.885 56.8974 305.166 60.0013 305.166 63.5741ZM303.82 63.5741C303.82 60.5037 303.593 57.8744 303.14 55.686C302.686 53.4866 302.067 51.8062 301.283 50.6451C300.499 49.4839 299.609 48.9034 298.613 48.9034C297.622 48.9034 296.735 49.4839 295.951 50.6451C295.167 51.8062 294.546 53.481 294.087 55.6693C293.634 57.8576 293.407 60.4925 293.407 63.5741C293.407 66.6444 293.634 69.2738 294.087 71.4621C294.541 73.6504 295.16 75.3307 295.944 76.5031C296.728 77.6642 297.617 78.2448 298.613 78.2448C299.609 78.2448 300.499 77.6642 301.283 76.5031C302.072 75.3419 302.693 73.6672 303.147 71.4788C303.601 69.2794 303.825 66.6444 303.82 63.5741Z" fill="#969696"/>
<path d="M307.053 80.7234V46.4247H311.941C313.016 46.4247 313.913 46.8937 314.633 47.8315C315.358 48.7582 315.903 50.0198 316.268 51.6164C316.638 53.213 316.822 55.0106 316.822 57.0091C316.822 59.0076 316.64 60.8108 316.275 62.4185C315.91 64.0151 315.368 65.2823 314.648 66.2202C313.928 67.1468 313.033 67.6102 311.963 67.6102H308.118V64.7966H311.926C312.72 64.7966 313.378 64.4617 313.901 63.7918C314.424 63.1107 314.813 62.184 315.07 61.0117C315.331 59.8394 315.462 58.5052 315.462 57.0091C315.462 55.513 315.331 54.1788 315.07 53.0065C314.813 51.8341 314.421 50.913 313.894 50.2431C313.371 49.5732 312.708 49.2383 311.904 49.2383H308.436V80.7234H307.053Z" fill="#969696"/>
<path d="M331.028 63.5741C331.028 67.1468 330.747 70.2563 330.185 72.9024C329.623 75.5373 328.849 77.5805 327.863 79.0319C326.882 80.4722 325.753 81.1923 324.476 81.1923C323.199 81.1923 322.067 80.4722 321.081 79.0319C320.1 77.5805 319.329 75.5373 318.766 72.9024C318.209 70.2563 317.931 67.1468 317.931 63.5741C317.931 60.0013 318.209 56.8974 318.766 54.2625C319.329 51.6164 320.103 49.5732 321.089 48.133C322.075 46.6815 323.204 45.9558 324.476 45.9558C325.753 45.9558 326.882 46.6815 327.863 48.133C328.849 49.5732 329.623 51.6164 330.185 54.2625C330.747 56.8974 331.028 60.0013 331.028 63.5741ZM329.682 63.5741C329.682 60.5037 329.456 57.8744 329.002 55.686C328.548 53.4866 327.93 51.8062 327.146 50.6451C326.362 49.4839 325.472 48.9034 324.476 48.9034C323.485 48.9034 322.597 49.4839 321.814 50.6451C321.03 51.8062 320.408 53.481 319.95 55.6693C319.496 57.8576 319.269 60.4925 319.269 63.5741C319.269 66.6444 319.496 69.2738 319.95 71.4621C320.403 73.6504 321.022 75.3307 321.806 76.5031C322.59 77.6642 323.48 78.2448 324.476 78.2448C325.472 78.2448 326.362 77.6642 327.146 76.5031C327.935 75.3419 328.556 73.6672 329.009 71.4788C329.463 69.2794 329.687 66.6444 329.682 63.5741Z" fill="#969696"/>
<path d="M332.915 80.7234V46.4247H338.026C339.012 46.4247 339.833 46.8155 340.488 47.5971C341.149 48.3786 341.645 49.4449 341.975 50.7958C342.305 52.1468 342.47 53.6819 342.47 55.4013C342.47 56.8305 342.364 58.053 342.152 59.069C341.94 60.085 341.652 60.9057 341.287 61.5309C340.922 62.1561 340.516 62.6083 340.067 62.8874V63.1554C340.555 63.2335 341.028 63.6243 341.487 64.3277C341.945 65.0199 342.323 65.9913 342.618 67.2417C342.914 68.4922 343.062 69.9883 343.062 71.7301C343.062 73.4606 342.892 75.007 342.552 76.3691C342.212 77.72 341.689 78.7863 340.984 79.5678C340.284 80.3382 339.391 80.7234 338.307 80.7234H332.915ZM334.298 77.9098H338.307C339.475 77.9098 340.338 77.3237 340.895 76.1514C341.457 74.979 341.738 73.5053 341.738 71.7301C341.738 70.4238 341.598 69.2403 341.317 68.1796C341.041 67.1078 340.649 66.2592 340.141 65.634C339.638 65.0088 339.046 64.6961 338.366 64.6961H334.298V77.9098ZM334.298 61.9161L338.151 61.9161C338.748 61.9161 339.271 61.637 339.719 61.0787C340.168 60.5205 340.518 59.7501 340.77 58.7676C341.021 57.7851 341.147 56.663 341.147 55.4013C341.147 53.5815 340.885 52.1021 340.363 50.9633C339.84 49.8133 339.061 49.2383 338.026 49.2383H334.298V61.9161Z" fill="#969696"/>
<path d="M345.94 61.4974H350.621C351.632 61.4974 352.49 61.8826 353.195 62.653C353.905 63.4233 354.447 64.5119 354.822 65.9187C355.197 67.3143 355.384 68.9667 355.384 70.8759C355.384 72.841 355.197 74.5604 354.822 76.0341C354.452 77.5079 353.912 78.6579 353.202 79.4841C352.497 80.3103 351.637 80.7234 350.621 80.7234H344.942V46.4247H346.325V77.9601H350.621C351.346 77.9601 351.96 77.6419 352.463 77.0055C352.971 76.3579 353.358 75.4982 353.624 74.4264C353.89 73.3434 354.023 72.1376 354.023 70.8089C354.023 68.9667 353.723 67.426 353.121 66.1867C352.525 64.9362 351.691 64.311 350.621 64.311H345.94V61.4974Z" fill="#969696"/>
<path d="M358.473 46.4415V80.7402H357.09V46.4415H358.473ZM361.904 62.586V65.3995H357.489V62.586H361.904ZM374.551 63.5741C374.551 67.1468 374.27 70.2563 373.708 72.9024C373.146 75.5373 372.372 77.5805 371.386 79.0319C370.404 80.4722 369.275 81.1923 367.998 81.1923C366.721 81.1923 365.59 80.4722 364.604 79.0319C363.623 77.5805 362.851 75.5373 362.289 72.9024C361.732 70.2563 361.453 67.1468 361.453 63.5741C361.453 60.0013 361.732 56.8974 362.289 54.2625C362.851 51.6164 363.625 49.5732 364.611 48.133C365.597 46.6815 366.726 45.9558 367.998 45.9558C369.275 45.9558 370.404 46.6815 371.386 48.133C372.372 49.5732 373.146 51.6164 373.708 54.2625C374.27 56.8974 374.551 60.0013 374.551 63.5741ZM373.205 63.5741C373.205 60.5037 372.978 57.8744 372.524 55.686C372.071 53.4866 371.452 51.8062 370.668 50.6451C369.884 49.4839 368.994 48.9034 367.998 48.9034C367.007 48.9034 366.12 49.4839 365.336 50.6451C364.552 51.8062 363.931 53.481 363.472 55.6693C363.019 57.8576 362.792 60.4925 362.792 63.5741C362.792 66.6444 363.019 69.2738 363.472 71.4621C363.926 73.6504 364.545 75.3307 365.329 76.5031C366.112 77.6642 367.002 78.2448 367.998 78.2448C368.994 78.2448 369.884 77.6642 370.668 76.5031C371.457 75.3419 372.078 73.6672 372.532 71.4788C372.985 69.2794 373.21 66.6444 373.205 63.5741Z" fill="#969696"/>
</svg>
