<svg width="1396" height="147" viewBox="0 0 1396 147" fill="none" xmlns="http://www.w3.org/2000/svg">
<path d="M18.3499 117.6V66.6838H18.2558C16.4208 74.5676 13.3154 81.1374 9.83367 81.1374C3.99934 81.1374 0 67.8335 0 44.6749V0.164244H5.17562V43.5251C5.17562 57.6503 7.48112 65.3698 11.3864 65.3698C14.6329 65.3698 16.2797 60.7709 18.3499 52.5587V0.164244H23.5255V117.6H18.3499Z" fill="white" fill-opacity="0.8"/>
<path d="M39.4968 119.899C35.7327 119.899 33.4272 113.987 32.1098 107.253H32.0157V146.672H27.4047V33.8346H32.0157V43.6894H32.1098C33.4272 37.7765 35.7327 31.3709 39.4968 31.3709C45.6134 31.3709 50.2715 48.124 50.2715 75.7173C50.2715 103.311 45.6134 119.899 39.4968 119.899ZM32.0627 75.7173C32.0627 94.6056 34.6035 106.596 38.744 106.596C43.2609 106.596 45.4252 92.1419 45.4252 75.7173C45.4252 59.2927 43.2609 44.8391 38.744 44.8391C34.6035 44.8391 32.0627 56.6648 32.0627 75.7173Z" fill="white" fill-opacity="0.8"/>
<path d="M63.2252 120.064C55.603 120.064 51.3684 101.175 51.3684 75.5531C51.3684 49.2737 55.8853 31.2067 63.2252 31.2067C70.5181 31.2067 74.6116 47.9598 74.6116 73.9106C74.6116 76.2101 74.6116 78.6737 74.5645 79.9877H56.1205C56.2146 93.9486 58.5672 106.924 63.3193 106.924C67.5539 106.924 69.2007 97.3978 69.6242 91.8134H74.3293C73.0589 107.91 69.5301 120.064 63.2252 120.064ZM56.1205 67.3408H69.8124C69.8124 54.2011 67.1775 44.3464 63.0841 44.3464C59.2259 44.3464 56.4028 53.5441 56.1205 67.3408Z" fill="white" fill-opacity="0.8"/>
<path d="M84.8114 120.064C79.0711 120.064 75.307 109.223 75.307 92.9631H79.9181C79.9181 100.847 81.8471 106.596 85.2348 106.596C88.2461 106.596 90.1281 101.997 90.1281 93.6201C90.1281 86.0648 88.4343 81.4659 85.8935 81.4659H82.8823V68.9832H85.7524C88.3402 68.9832 89.6576 64.2201 89.6576 56.6648C89.6576 48.781 87.8226 44.6749 84.9525 44.6749C81.8942 44.6749 80.1533 50.2592 80.1533 57.6503H75.4953C75.4953 42.0469 79.3534 31.2067 85.0466 31.2067C90.2222 31.2067 94.2686 39.7475 94.2686 55.5151C94.2686 64.3844 92.4807 72.2682 89.6576 74.8961V75.0603C92.9982 77.524 94.8803 84.5866 94.8803 93.9486C94.8803 110.537 90.928 120.064 84.8114 120.064Z" fill="white" fill-opacity="0.8"/>
<path d="M97.1762 117.6V33.8346H102.681L110.633 96.5765H110.727L118.773 33.8346H123.995V117.6H119.337V61.4279H119.243L112.233 117.436H108.657L101.881 61.4279H101.787V117.6H97.1762Z" fill="white" fill-opacity="0.8"/>
<path d="M138.097 120.064C130.475 120.064 126.24 101.175 126.24 75.5531C126.24 49.2737 130.757 31.2067 138.097 31.2067C145.39 31.2067 149.483 47.9598 149.483 73.9106C149.483 76.2101 149.483 78.6737 149.436 79.9877H130.992C131.086 93.9486 133.439 106.924 138.191 106.924C142.426 106.924 144.073 97.3978 144.496 91.8134H149.201C147.931 107.91 144.402 120.064 138.097 120.064ZM130.992 67.3408H144.684C144.684 54.2011 142.049 44.3464 137.956 44.3464C134.098 44.3464 131.275 53.5441 130.992 67.3408Z" fill="white" fill-opacity="0.8"/>
<path d="M163.824 119.899C160.06 119.899 157.754 113.987 156.437 107.253H156.343V146.672H151.732V33.8346H156.343V43.6894H156.437C157.754 37.7765 160.06 31.3709 163.824 31.3709C169.94 31.3709 174.598 48.124 174.598 75.7173C174.598 103.311 169.94 119.899 163.824 119.899ZM156.39 75.7173C156.39 94.6056 158.93 106.596 163.071 106.596C167.588 106.596 169.752 92.1419 169.752 75.7173C169.752 59.2927 167.588 44.8391 163.071 44.8391C158.93 44.8391 156.39 56.6648 156.39 75.7173Z" fill="white" fill-opacity="0.8"/>
<path d="M193.386 117.6V81.6302H181.53V117.6H176.919V33.8346H181.53V68.3263H193.386V33.8346H197.997V117.6H193.386Z" fill="white" fill-opacity="0.8"/>
<path d="M212.236 120.064C204.755 120.064 200.238 101.997 200.238 75.7173C200.238 49.6022 204.755 31.2067 212.283 31.2067C219.717 31.2067 224.234 49.438 224.234 75.5531C224.234 101.832 219.717 120.064 212.236 120.064ZM205.037 75.7173C205.037 93.1274 207.296 106.76 212.283 106.76C217.176 106.76 219.435 93.1274 219.435 75.7173C219.435 58.143 217.176 44.6749 212.283 44.6749C207.296 44.6749 205.037 58.143 205.037 75.7173Z" fill="white" fill-opacity="0.8"/>
<path d="M237.145 120.064C229.523 120.064 225.288 101.175 225.288 75.5531C225.288 49.2737 229.805 31.2067 237.145 31.2067C244.438 31.2067 248.531 47.9598 248.531 73.9106C248.531 76.2101 248.531 78.6737 248.484 79.9877H230.04C230.134 93.9486 232.487 106.924 237.239 106.924C241.474 106.924 243.121 97.3978 243.544 91.8134H248.249C246.979 107.91 243.45 120.064 237.145 120.064ZM230.04 67.3408H243.732C243.732 54.2011 241.097 44.3464 237.004 44.3464C233.146 44.3464 230.323 53.5441 230.04 67.3408Z" fill="white" fill-opacity="0.8"/>
<path d="M260.968 147C259.933 147 259.227 146.672 258.004 145.85V132.711C258.804 133.039 259.227 133.203 259.98 133.203C261.815 133.203 263.98 129.918 264.921 116.779L255.228 33.8346H260.263L267.273 97.8905H267.367L273.954 33.8346H278.801L269.296 119.571C266.991 140.266 264.685 147 260.968 147Z" fill="white" fill-opacity="0.8"/>
<path d="M279.971 117.6V33.8346H300.58V117.6H295.969V47.1385H284.582V117.6H279.971Z" fill="white" fill-opacity="0.8"/>
<path d="M314.829 120.064C307.348 120.064 302.831 101.997 302.831 75.7173C302.831 49.6022 307.348 31.2067 314.876 31.2067C322.31 31.2067 326.827 49.438 326.827 75.5531C326.827 101.832 322.31 120.064 314.829 120.064ZM307.63 75.7173C307.63 93.1274 309.889 106.76 314.876 106.76C319.77 106.76 322.028 93.1274 322.028 75.7173C322.028 58.143 319.77 44.6749 314.876 44.6749C309.889 44.6749 307.63 58.143 307.63 75.7173Z" fill="white" fill-opacity="0.8"/>
<path d="M334.072 117.6V47.1385H325.979V33.8346H346.775V47.1385H338.683V117.6H334.072Z" fill="white" fill-opacity="0.8"/>
<path d="M360.365 119.899C356.601 119.899 354.295 113.987 352.978 107.253H352.884V146.672H348.273V33.8346H352.884V43.6894H352.978C354.295 37.7765 356.601 31.3709 360.365 31.3709C366.481 31.3709 371.139 48.124 371.139 75.7173C371.139 103.311 366.481 119.899 360.365 119.899ZM352.931 75.7173C352.931 94.6056 355.471 106.596 359.612 106.596C364.129 106.596 366.293 92.1419 366.293 75.7173C366.293 59.2927 364.129 44.8391 359.612 44.8391C355.471 44.8391 352.931 56.6648 352.931 75.7173Z" fill="white" fill-opacity="0.8"/>
<path d="M384.093 120.064C376.471 120.064 372.236 101.175 372.236 75.5531C372.236 49.2737 376.753 31.2067 384.093 31.2067C391.386 31.2067 395.48 47.9598 395.48 73.9106C395.48 76.2101 395.48 78.6737 395.433 79.9877H376.989C377.083 93.9486 379.435 106.924 384.187 106.924C388.422 106.924 390.069 97.3978 390.492 91.8134H395.197C393.927 107.91 390.398 120.064 384.093 120.064ZM376.989 67.3408H390.68C390.68 54.2011 388.045 44.3464 383.952 44.3464C380.094 44.3464 377.271 53.5441 376.989 67.3408Z" fill="white" fill-opacity="0.8"/>
<path d="M408.785 120.064C401.586 120.064 396.928 102.982 396.928 68.3263C396.928 38.762 399.28 13.9609 406.714 9.52625L411.42 6.73408C414.384 4.76313 415.042 2.1352 415.042 0H419.559C419.559 12.3184 417.019 17.2458 413.96 19.381L407.373 23.6514C403.609 25.9508 401.539 36.2983 400.974 50.5877H401.068C402.339 40.076 405.82 31.2067 410.196 31.2067C416.36 31.2067 420.124 48.2883 420.124 74.8961C420.124 100.19 416.172 120.064 408.785 120.064ZM402.103 75.7173C402.103 92.9631 404.315 106.76 408.785 106.76C413.16 106.76 415.325 92.1419 415.325 74.8961C415.325 57.6503 413.16 44.6749 408.785 44.6749C404.315 44.6749 402.103 58.4715 402.103 75.7173Z" fill="white" fill-opacity="0.8"/>
<path d="M422.282 120.064C421.294 120.064 420.306 119.571 419.601 118.585V105.61C420.212 106.267 420.777 106.76 421.483 106.76C422.894 106.76 423.412 102.982 423.553 93.9486L424.494 33.8346H441.715V117.6H437.057V47.1385H428.776L428.023 95.5911C427.787 112.837 425.576 120.064 422.282 120.064Z" fill="white" fill-opacity="0.8"/>
<path d="M455.841 120.064C448.218 120.064 443.984 101.175 443.984 75.5531C443.984 49.2737 448.501 31.2067 455.841 31.2067C463.133 31.2067 467.227 47.9598 467.227 73.9106C467.227 76.2101 467.227 78.6737 467.18 79.9877H448.736C448.83 93.9486 451.182 106.924 455.935 106.924C460.169 106.924 461.816 97.3978 462.239 91.8134H466.945C465.674 107.91 462.145 120.064 455.841 120.064ZM448.736 67.3408H462.428C462.428 54.2011 459.793 44.3464 455.699 44.3464C451.841 44.3464 449.018 53.5441 448.736 67.3408Z" fill="white" fill-opacity="0.8"/>
<path d="M485.943 117.6V81.6302H474.086V117.6H469.475V33.8346H474.086V68.3263H485.943V33.8346H490.554V117.6H485.943Z" fill="white" fill-opacity="0.8"/>
<path d="M494.065 117.6V33.8346H498.676V95.0983L511.474 33.8346H516.085V117.6H511.474V56.3363L498.676 117.6H494.065Z" fill="white" fill-opacity="0.8"/>
<path d="M530.253 120.064C522.631 120.064 518.396 101.175 518.396 75.5531C518.396 49.2737 522.913 31.2067 530.253 31.2067C537.546 31.2067 541.639 47.9598 541.639 73.9106C541.639 76.2101 541.639 78.6737 541.592 79.9877H523.148C523.242 93.9486 525.595 106.924 530.347 106.924C534.582 106.924 536.228 97.3978 536.652 91.8134H541.357C540.087 107.91 536.558 120.064 530.253 120.064ZM523.148 67.3408H536.84C536.84 54.2011 534.205 44.3464 530.112 44.3464C526.254 44.3464 523.43 53.5441 523.148 67.3408Z" fill="white" fill-opacity="0.8"/>
<path d="M552.074 117.6V33.8346H572.682V117.6H568.071V47.1385H556.685V117.6H552.074Z" fill="white" fill-opacity="0.8"/>
<path d="M576.204 117.6V33.8346H580.815V95.0983L593.613 33.8346H598.224V117.6H593.613V56.3363L580.815 117.6H576.204Z" fill="white" fill-opacity="0.8"/>
<path d="M601.758 117.6V33.8346H612.721C617.662 33.8346 620.485 42.7039 620.485 55.5151C620.485 64.7128 618.603 71.6112 616.062 73.5821V73.9106C619.167 75.3888 621.614 82.2872 621.614 93.4559C621.614 108.895 618.414 117.6 613.286 117.6H601.758ZM606.369 104.296H612.862C615.497 104.296 616.815 100.19 616.815 92.7989C616.815 85.2436 615.356 80.9732 613.286 80.9732H606.369V104.296ZM606.369 68.9832H612.533C614.556 68.9832 615.78 63.7274 615.78 57.486C615.78 50.752 614.556 47.1385 612.533 47.1385H606.369V68.9832Z" fill="white" fill-opacity="0.8"/>
<path d="M640.289 117.6V81.6302H628.432V117.6H623.821V33.8346H628.432V68.3263H640.289V33.8346H644.9V117.6H640.289Z" fill="white" fill-opacity="0.8"/>
<path d="M659.138 120.064C651.657 120.064 647.14 101.997 647.14 75.7173C647.14 49.6022 651.657 31.2067 659.185 31.2067C666.619 31.2067 671.136 49.438 671.136 75.5531C671.136 101.832 666.619 120.064 659.138 120.064ZM651.939 75.7173C651.939 93.1274 654.198 106.76 659.185 106.76C664.079 106.76 666.337 93.1274 666.337 75.7173C666.337 58.143 664.079 44.6749 659.185 44.6749C654.198 44.6749 651.939 58.143 651.939 75.7173Z" fill="white" fill-opacity="0.8"/>
<path d="M673.414 117.6V33.8346H689.646V47.1385H678.025V117.6H673.414Z" fill="white" fill-opacity="0.8"/>
<path d="M700.644 120.064C693.163 120.064 688.646 101.997 688.646 75.7173C688.646 49.6022 693.163 31.2067 700.691 31.2067C708.125 31.2067 712.642 49.438 712.642 75.5531C712.642 101.832 708.125 120.064 700.644 120.064ZM693.445 75.7173C693.445 93.1274 695.704 106.76 700.691 106.76C705.585 106.76 707.843 93.1274 707.843 75.7173C707.843 58.143 705.585 44.6749 700.691 44.6749C695.704 44.6749 693.445 58.143 693.445 75.7173Z" fill="white" fill-opacity="0.8"/>
<path d="M739.574 117.6V81.6302H727.717V117.6H723.106V33.8346H727.717V68.3263H739.574V33.8346H744.185V117.6H739.574Z" fill="white" fill-opacity="0.8"/>
<path d="M754.33 119.899C749.531 119.899 746.472 110.209 746.472 95.9196C746.472 77.1955 750.519 71.6112 756.494 67.6693C760.258 65.2056 762.564 63.5631 762.564 55.3508C762.564 49.2737 761.529 44.1821 758 44.1821C753.812 44.1821 752.542 48.781 752.307 59.9497H747.602C747.837 43.8536 750.848 31.2067 758.188 31.2067C763.128 31.2067 767.081 38.4335 767.081 60.114V98.5475C767.081 104.625 767.316 107.745 768.21 107.745C768.351 107.745 768.492 107.745 768.775 107.581V117.436C767.975 118.093 767.175 118.421 766.422 118.421C764.117 118.421 762.893 115.301 762.611 105.774H762.517C760.964 114.479 758.235 119.899 754.33 119.899ZM751.272 94.7698C751.272 102.654 752.495 106.924 755.365 106.924C759.505 106.924 762.564 99.533 762.564 84.9151V72.9251C761.811 75.3888 759.741 77.1955 757.294 79.0022C753.06 81.9587 751.272 86.0648 751.272 94.7698Z" fill="white" fill-opacity="0.8"/>
<path d="M771.045 117.6V33.8346H791.653V117.6H787.042V47.1385H775.656V117.6H771.045Z" fill="white" fill-opacity="0.8"/>
<path d="M795.175 117.6V33.8346H799.786V95.0983L812.584 33.8346H817.195V117.6H812.584V56.3363L799.786 117.6H795.175Z" fill="white" fill-opacity="0.8"/>
<path d="M826.799 117.6V47.1385H818.706V33.8346H839.503V47.1385H831.41V117.6H826.799Z" fill="white" fill-opacity="0.8"/>
<path d="M856.339 117.6L848.575 83.1084H845.611V117.6H841V33.8346H845.611V69.6402H848.716L856.292 33.8346H861.703L852.622 75.5531L862.126 117.6H856.339Z" fill="white" fill-opacity="0.8"/>
<path d="M868.594 119.899C863.795 119.899 860.737 110.209 860.737 95.9196C860.737 77.1955 864.783 71.6112 870.758 67.6693C874.523 65.2056 876.828 63.5631 876.828 55.3508C876.828 49.2737 875.793 44.1821 872.264 44.1821C868.076 44.1821 866.806 48.781 866.571 59.9497H861.866C862.101 43.8536 865.112 31.2067 872.452 31.2067C877.393 31.2067 881.345 38.4335 881.345 60.114V98.5475C881.345 104.625 881.58 107.745 882.474 107.745C882.615 107.745 882.756 107.745 883.039 107.581V117.436C882.239 118.093 881.439 118.421 880.686 118.421C878.381 118.421 877.157 115.301 876.875 105.774H876.781C875.228 114.479 872.499 119.899 868.594 119.899ZM865.536 94.7698C865.536 102.654 866.759 106.924 869.629 106.924C873.77 106.924 876.828 99.533 876.828 84.9151V72.9251C876.075 75.3888 874.005 77.1955 871.558 79.0022C867.324 81.9587 865.536 86.0648 865.536 94.7698Z" fill="white" fill-opacity="0.8"/>
<path d="M893.495 117.6V33.8346H904.458C909.398 33.8346 912.221 42.7039 912.221 55.5151C912.221 64.7128 910.339 71.6112 907.799 73.5821V73.9106C910.904 75.3888 913.351 82.2872 913.351 93.4559C913.351 108.895 910.151 117.6 905.023 117.6H893.495ZM898.106 104.296H904.599C907.234 104.296 908.551 100.19 908.551 92.7989C908.551 85.2436 907.093 80.9732 905.023 80.9732H898.106V104.296ZM898.106 68.9832H904.27C906.293 68.9832 907.516 63.7274 907.516 57.486C907.516 50.752 906.293 47.1385 904.27 47.1385H898.106V68.9832Z" fill="white" fill-opacity="0.8"/>
<path d="M927.65 119.899C923.886 119.899 921.58 113.987 920.263 107.253H920.169V146.672H915.558V33.8346H920.169V43.6894H920.263C921.58 37.7765 923.886 31.3709 927.65 31.3709C933.766 31.3709 938.424 48.124 938.424 75.7173C938.424 103.311 933.766 119.899 927.65 119.899ZM920.216 75.7173C920.216 94.6056 922.756 106.596 926.897 106.596C931.414 106.596 933.578 92.1419 933.578 75.7173C933.578 59.2927 931.414 44.8391 926.897 44.8391C922.756 44.8391 920.216 56.6648 920.216 75.7173Z" fill="white" fill-opacity="0.8"/>
<path d="M951.378 120.064C943.756 120.064 939.521 101.175 939.521 75.5531C939.521 49.2737 944.038 31.2067 951.378 31.2067C958.671 31.2067 962.765 47.9598 962.765 73.9106C962.765 76.2101 962.765 78.6737 962.717 79.9877H944.273C944.368 93.9486 946.72 106.924 951.472 106.924C955.707 106.924 957.354 97.3978 957.777 91.8134H962.482C961.212 107.91 957.683 120.064 951.378 120.064ZM944.273 67.3408H957.965C957.965 54.2011 955.33 44.3464 951.237 44.3464C947.379 44.3464 944.556 53.5441 944.273 67.3408Z" fill="white" fill-opacity="0.8"/>
<path d="M962.249 138.952V104.296H964.131C965.731 104.296 966.719 98.5475 966.86 90.4994L967.848 33.8346H984.598V104.296H987.892V138.952H983.704V117.6H966.436V138.952H962.249ZM970.247 104.296H979.94V47.1385H972.177L971.424 89.8425C971.33 96.248 971 100.847 970.247 103.968V104.296Z" fill="white" fill-opacity="0.8"/>
<path d="M989.832 117.6V33.8346H994.443V95.0983L1007.24 33.8346H1011.85V117.6H1007.24V56.3363L994.443 117.6H989.832Z" fill="white" fill-opacity="0.8"/>
<path d="M1021.46 117.6V47.1385H1013.36V33.8346H1034.16V47.1385H1026.07V117.6H1021.46Z" fill="white" fill-opacity="0.8"/>
<path d="M1042.83 117.6V33.8346H1053.8C1058.74 33.8346 1061.56 42.7039 1061.56 55.5151C1061.56 64.7128 1059.68 71.6112 1057.14 73.5821V73.9106C1060.24 75.3888 1062.69 82.2872 1062.69 93.4559C1062.69 108.895 1059.49 117.6 1054.36 117.6H1042.83ZM1047.44 104.296H1053.94C1056.57 104.296 1057.89 100.19 1057.89 92.7989C1057.89 85.2436 1056.43 80.9732 1054.36 80.9732H1047.44V104.296ZM1047.44 68.9832H1053.61C1055.63 68.9832 1056.85 63.7274 1056.85 57.486C1056.85 50.752 1055.63 47.1385 1053.61 47.1385H1047.44V68.9832Z" fill="white" fill-opacity="0.8"/>
<path d="M1071.53 119.899C1066.73 119.899 1063.67 110.209 1063.67 95.9196C1063.67 77.1955 1067.72 71.6112 1073.69 67.6693C1077.46 65.2056 1079.76 63.5631 1079.76 55.3508C1079.76 49.2737 1078.73 44.1821 1075.2 44.1821C1071.01 44.1821 1069.74 48.781 1069.51 59.9497H1064.8C1065.04 43.8536 1068.05 31.2067 1075.39 31.2067C1080.33 31.2067 1084.28 38.4335 1084.28 60.114V98.5475C1084.28 104.625 1084.52 107.745 1085.41 107.745C1085.55 107.745 1085.69 107.745 1085.97 107.581V117.436C1085.17 118.093 1084.37 118.421 1083.62 118.421C1081.32 118.421 1080.09 115.301 1079.81 105.774H1079.72C1078.16 114.479 1075.43 119.899 1071.53 119.899ZM1068.47 94.7698C1068.47 102.654 1069.69 106.924 1072.56 106.924C1076.7 106.924 1079.76 99.533 1079.76 84.9151V72.9251C1079.01 75.3888 1076.94 77.1955 1074.49 79.0022C1070.26 81.9587 1068.47 86.0648 1068.47 94.7698Z" fill="white" fill-opacity="0.8"/>
<path d="M1088.24 117.6V33.8346H1092.76V104.296H1100.52V33.8346H1105.04V104.296H1112.8V33.8346H1117.32V117.6H1088.24Z" fill="white" fill-opacity="0.8"/>
<path d="M1131.42 120.064C1123.79 120.064 1119.56 101.175 1119.56 75.5531C1119.56 49.2737 1124.08 31.2067 1131.42 31.2067C1138.71 31.2067 1142.8 47.9598 1142.8 73.9106C1142.8 76.2101 1142.8 78.6737 1142.76 79.9877H1124.31C1124.41 93.9486 1126.76 106.924 1131.51 106.924C1135.75 106.924 1137.39 97.3978 1137.82 91.8134H1142.52C1141.25 107.91 1137.72 120.064 1131.42 120.064ZM1124.31 67.3408H1138C1138 54.2011 1135.37 44.3464 1131.28 44.3464C1127.42 44.3464 1124.59 53.5441 1124.31 67.3408Z" fill="white" fill-opacity="0.8"/>
<path d="M1145.05 117.6V33.8346H1150.56L1158.51 96.5765H1158.6L1166.65 33.8346H1171.87V117.6H1167.21V61.4279H1167.12L1160.11 117.436H1156.53L1149.76 61.4279H1149.66V117.6H1145.05Z" fill="white" fill-opacity="0.8"/>
<path d="M1178.44 147C1177.41 147 1176.7 146.672 1175.48 145.85V132.711C1176.28 133.039 1176.7 133.203 1177.46 133.203C1179.29 133.203 1181.45 129.918 1182.4 116.779L1172.7 33.8346H1177.74L1184.75 97.8905H1184.84L1191.43 33.8346H1196.28L1186.77 119.571C1184.47 140.266 1182.16 147 1178.44 147Z" fill="white" fill-opacity="0.8"/>
<path d="M1212.44 120.064C1206.7 120.064 1202.93 109.223 1202.93 92.9631H1207.54C1207.54 100.847 1209.47 106.596 1212.86 106.596C1215.87 106.596 1217.75 101.997 1217.75 93.6201C1217.75 86.0648 1216.06 81.4659 1213.52 81.4659H1210.51V68.9832H1213.38C1215.96 68.9832 1217.28 64.2201 1217.28 56.6648C1217.28 48.781 1215.45 44.6749 1212.58 44.6749C1209.52 44.6749 1207.78 50.2592 1207.78 57.6503H1203.12C1203.12 42.0469 1206.98 31.2067 1212.67 31.2067C1217.85 31.2067 1221.89 39.7475 1221.89 55.5151C1221.89 64.3844 1220.11 72.2682 1217.28 74.8961V75.0603C1220.62 77.524 1222.5 84.5866 1222.5 93.9486C1222.5 110.537 1218.55 120.064 1212.44 120.064Z" fill="white" fill-opacity="0.8"/>
<path d="M1222.31 138.952V104.296H1224.19C1225.79 104.296 1226.78 98.5475 1226.92 90.4994L1227.91 33.8346H1244.66V104.296H1247.96V138.952H1243.77V117.6H1226.5V138.952H1222.31ZM1230.31 104.296H1240V47.1385H1232.24L1231.49 89.8425C1231.39 96.248 1231.06 100.847 1230.31 103.968V104.296Z" fill="white" fill-opacity="0.8"/>
<path d="M1260.03 120.064C1252.55 120.064 1248.03 101.997 1248.03 75.7173C1248.03 49.6022 1252.55 31.2067 1260.07 31.2067C1267.51 31.2067 1272.02 49.438 1272.02 75.5531C1272.02 101.832 1267.51 120.064 1260.03 120.064ZM1252.83 75.7173C1252.83 93.1274 1255.09 106.76 1260.07 106.76C1264.97 106.76 1267.22 93.1274 1267.22 75.7173C1267.22 58.143 1264.97 44.6749 1260.07 44.6749C1255.09 44.6749 1252.83 58.143 1252.83 75.7173Z" fill="white" fill-opacity="0.8"/>
<path d="M1286.39 119.899C1282.63 119.899 1280.32 113.987 1279.01 107.253H1278.91V146.672H1274.3V33.8346H1278.91V43.6894H1279.01C1280.32 37.7765 1282.63 31.3709 1286.39 31.3709C1292.51 31.3709 1297.17 48.124 1297.17 75.7173C1297.17 103.311 1292.51 119.899 1286.39 119.899ZM1278.96 75.7173C1278.96 94.6056 1281.5 106.596 1285.64 106.596C1290.16 106.596 1292.32 92.1419 1292.32 75.7173C1292.32 59.2927 1290.16 44.8391 1285.64 44.8391C1281.5 44.8391 1278.96 56.6648 1278.96 75.7173Z" fill="white" fill-opacity="0.8"/>
<path d="M1310.22 120.064C1302.74 120.064 1298.22 101.997 1298.22 75.7173C1298.22 49.6022 1302.74 31.2067 1310.26 31.2067C1317.7 31.2067 1322.21 49.438 1322.21 75.5531C1322.21 101.832 1317.7 120.064 1310.22 120.064ZM1303.02 75.7173C1303.02 93.1274 1305.28 106.76 1310.26 106.76C1315.16 106.76 1317.42 93.1274 1317.42 75.7173C1317.42 58.143 1315.16 44.6749 1310.26 44.6749C1305.28 44.6749 1303.02 58.143 1303.02 75.7173Z" fill="white" fill-opacity="0.8"/>
<path d="M1324.49 117.6V33.8346H1335.45C1340.4 33.8346 1343.22 42.7039 1343.22 55.5151C1343.22 64.7128 1341.34 71.6112 1338.8 73.5821V73.9106C1341.9 75.3888 1344.35 82.2872 1344.35 93.4559C1344.35 108.895 1341.15 117.6 1336.02 117.6H1324.49ZM1329.1 104.296H1335.6C1338.23 104.296 1339.55 100.19 1339.55 92.7989C1339.55 85.2436 1338.09 80.9732 1336.02 80.9732H1329.1V104.296ZM1329.1 68.9832H1335.27C1337.29 68.9832 1338.51 63.7274 1338.51 57.486C1338.51 50.752 1337.29 47.1385 1335.27 47.1385H1329.1V68.9832Z" fill="white" fill-opacity="0.8"/>
<path d="M1346.55 117.6V33.8346H1351.17V63.8916H1356.67C1361.85 63.8916 1365 74.2391 1365 90.6637C1365 107.253 1361.8 117.6 1356.62 117.6H1346.55ZM1351.17 104.296H1356.44C1358.79 104.296 1360.2 99.0402 1360.2 90.8279C1360.2 82.4514 1358.93 77.1955 1356.44 77.1955H1351.17V104.296Z" fill="white" fill-opacity="0.8"/>
<path d="M1385.51 120.064C1379.67 120.064 1375.72 105.774 1375.11 82.2871H1371.3V117.6H1366.69V33.8346H1371.3V68.9832H1375.11C1375.72 45.4961 1379.72 31.2067 1385.55 31.2067C1391.91 31.2067 1396 48.2883 1396 75.5531C1396 102.982 1391.91 120.064 1385.51 120.064ZM1379.81 75.7173C1379.81 95.2626 1381.98 106.76 1385.51 106.76C1389.04 106.76 1391.2 95.2626 1391.2 75.7173C1391.2 56.0078 1389.04 44.6749 1385.51 44.6749C1381.98 44.6749 1379.81 56.0078 1379.81 75.7173Z" fill="white" fill-opacity="0.8"/>
</svg>
