<svg width="1383" height="167" viewBox="0 0 1383 167" fill="none" xmlns="http://www.w3.org/2000/svg">
<path d="M0 1.81733H2.55483V45.8877C2.55483 52.7676 2.80665 58.3061 3.31029 62.5033C3.82309 66.6572 4.56024 69.6645 5.52173 71.5251C6.48323 73.3857 7.6416 74.316 8.99685 74.316C9.73857 74.316 10.4757 74.1645 11.2083 73.8616C11.9409 73.5588 12.6643 73.1261 13.3785 72.5635C14.1019 71.9578 14.8162 71.2438 15.5213 70.4217C16.2264 69.5996 16.9177 68.6476 17.5954 67.5659V78.7295C16.8811 79.8112 16.1852 80.7632 15.5075 81.5853C14.8299 82.4074 14.1477 83.1214 13.4609 83.7272C12.7833 84.2897 12.0782 84.7224 11.3456 85.0253C10.6131 85.2849 9.83472 85.4147 9.01058 85.4147C7.10591 85.4147 5.48052 84.0517 4.13443 81.3257C2.78834 78.5997 1.76274 74.3376 1.05764 68.5395C0.352548 62.698 0 55.1474 0 45.8877V1.81733ZM17.2657 1.81733H19.7793V134.742H17.2657V1.81733Z" fill="#D7D7D7"/>
<path d="M24.5405 134.742V1.81733H33.6198C35.616 1.81733 37.2826 3.63467 38.6196 7.26934C39.9656 10.8607 40.9775 15.7502 41.6551 21.9378C42.3419 28.1254 42.6853 35.0919 42.6853 42.8372C42.6853 50.5825 42.3465 57.5705 41.6689 63.8014C40.9912 69.989 39.984 74.9001 38.647 78.5348C37.3101 82.1262 35.6481 83.9219 33.661 83.9219H26.5185V73.0179H33.5923C35.0666 73.0179 36.2891 71.7198 37.2597 69.1236C38.2304 66.4841 38.9538 62.8927 39.43 58.3494C39.9153 53.8061 40.158 48.6353 40.158 42.8372C40.158 37.039 39.9153 31.8683 39.43 27.3249C38.9538 22.7816 38.2258 19.2118 37.246 16.6156C36.2753 14.0194 35.0437 12.7213 33.5511 12.7213H27.1091V134.742H24.5405Z" fill="#D7D7D7"/>
<path d="M46.0077 134.742V1.81733H62.3256V12.7213H48.5763V62.7629H61.4603V73.6669H48.5763V123.838H62.6003V134.742H46.0077Z" fill="#D7D7D7"/>
<path d="M74.7959 136.56C73.0653 136.56 71.5177 135.088 70.1533 132.146C68.7889 129.161 67.7084 125.028 66.9117 119.749C66.115 114.47 65.6938 108.391 65.648 101.511H68.244C68.2898 106.357 68.6058 110.598 69.1918 114.232C69.7779 117.824 70.5562 120.636 71.5269 122.67C72.4975 124.66 73.5781 125.656 74.7685 125.656C76.0688 125.656 77.2134 124.509 78.2024 122.216C79.2005 119.922 79.9789 116.785 80.5375 112.805C81.1052 108.78 81.3891 104.237 81.3891 99.1745C81.3891 93.809 81.1006 89.071 80.5237 84.9604C79.9468 80.8497 79.1181 77.6478 78.0376 75.3544C76.9662 73.0611 75.6842 71.9145 74.1916 71.9145H72.5433V61.0105H74.1916C75.4095 61.0105 76.4854 59.972 77.4195 57.8951C78.3626 55.7748 79.1044 52.8109 79.6446 49.0031C80.1849 45.1954 80.455 40.7169 80.455 35.5678C80.455 30.6783 80.2215 26.373 79.7545 22.6518C79.2875 18.9306 78.6282 16.0098 77.7766 13.8896C76.9341 11.7694 75.9497 10.7093 74.8234 10.7093C73.7337 10.7093 72.7356 11.7045 71.829 13.6949C70.9225 15.6853 70.1899 18.4979 69.6313 22.1325C69.0819 25.7672 68.7889 30.0726 68.7523 35.0486H66.2661C66.3027 28.1254 66.7057 22.046 67.4748 16.8103C68.2532 11.5314 69.2834 7.42078 70.5654 4.47844C71.8565 1.49281 73.285 0 74.8509 0C76.5083 0 77.9414 1.60099 79.1501 4.80296C80.3589 8.00492 81.2929 12.267 81.9522 17.5892C82.6207 22.8681 82.9549 28.6879 82.9549 35.0486C82.9549 42.6208 82.52 49.1113 81.65 54.52C80.7801 59.8855 79.608 63.6067 78.1337 65.6836V66.5274C79.9285 68.2149 81.3387 71.9794 82.3643 77.8208C83.399 83.619 83.9164 90.7369 83.9164 99.1745C83.9164 106.271 83.5227 112.653 82.7352 118.321C81.9476 123.946 80.8671 128.403 79.4935 131.692C78.1291 134.937 76.5633 136.56 74.7959 136.56Z" fill="#D7D7D7"/>
<path d="M87.8844 1.81733H90.8513L101.057 117.607H101.304L111.51 1.81733H114.477V134.742H112.059V27.4547H111.839L102.348 134.742H100.013L90.5216 27.4547H90.3018V134.742H87.8844V1.81733Z" fill="#D7D7D7"/>
<path d="M119.248 134.742V1.81733H135.566V12.7213H121.817V62.7629H134.701V73.6669H121.817V123.838H135.841V134.742H119.248Z" fill="#D7D7D7"/>
<path d="M139.507 134.742V1.81733H148.586C150.582 1.81733 152.249 3.63467 153.586 7.26934C154.932 10.8607 155.943 15.7502 156.621 21.9378C157.308 28.1254 157.651 35.0919 157.651 42.8372C157.651 50.5825 157.312 57.5705 156.635 63.8014C155.957 69.989 154.95 74.9001 153.613 78.5348C152.276 82.1262 150.614 83.9219 148.627 83.9219H141.484V73.0179H148.558C150.033 73.0179 151.255 71.7198 152.226 69.1236C153.196 66.4841 153.92 62.8927 154.396 58.3494C154.881 53.8061 155.124 48.6353 155.124 42.8372C155.124 37.039 154.881 31.8683 154.396 27.3249C153.92 22.7816 153.192 19.2118 152.212 16.6156C151.241 14.0194 150.01 12.7213 148.517 12.7213H142.075V134.742H139.507Z" fill="#D7D7D7"/>
<path d="M160.974 134.742V1.81733H163.542V62.7629H179.503V1.81733H182.072V134.742H179.503V73.6669H163.542V134.742H160.974Z" fill="#D7D7D7"/>
<path d="M209.885 68.2798C209.885 82.1262 209.363 94.1768 208.319 104.432C207.275 114.643 205.837 122.562 204.006 128.187C202.184 133.769 200.087 136.56 197.715 136.56C195.343 136.56 193.242 133.769 191.41 128.187C189.588 122.562 188.155 114.643 187.111 104.432C186.076 94.1768 185.559 82.1262 185.559 68.2798C185.559 54.4335 186.076 42.4045 187.111 32.1928C188.155 21.9378 189.593 14.0194 191.424 8.43762C193.255 2.81254 195.352 0 197.715 0C200.087 0 202.184 2.81254 204.006 8.43762C205.837 14.0194 207.275 21.9378 208.319 32.1928C209.363 42.4045 209.885 54.4335 209.885 68.2798ZM207.385 68.2798C207.385 56.3806 206.964 46.1906 206.121 37.7097C205.279 29.1855 204.129 22.6734 202.673 18.1733C201.217 13.6733 199.565 11.4232 197.715 11.4232C195.874 11.4232 194.226 13.6733 192.77 18.1733C191.314 22.6734 190.16 29.1639 189.309 37.6448C188.466 46.1257 188.045 56.3373 188.045 68.2798C188.045 80.179 188.466 90.3691 189.309 98.85C190.151 107.331 191.3 113.843 192.756 118.386C194.212 122.886 195.865 125.136 197.715 125.136C199.565 125.136 201.217 122.886 202.673 118.386C204.139 113.886 205.292 107.396 206.135 98.9149C206.977 90.3907 207.394 80.179 207.385 68.2798Z" fill="#D7D7D7"/>
<path d="M213.389 134.742V1.81733H229.707V12.7213H215.958V62.7629H228.842V73.6669H215.958V123.838H229.982V134.742H213.389Z" fill="#D7D7D7"/>
<path d="M242.794 136.56V125.201H244.195C244.982 125.201 245.637 124.617 246.159 123.449C246.69 122.237 247.13 120.571 247.478 118.451C247.835 116.288 248.141 113.756 248.398 110.857L248.865 105.535L239.181 1.81733H241.942L250.156 90.8667L257.738 1.81733H260.458L250.747 114.492C250.353 118.906 249.904 122.778 249.401 126.11C248.906 129.399 248.256 131.973 247.45 133.834C246.644 135.651 245.582 136.56 244.263 136.56H242.794Z" fill="#D7D7D7"/>
<path d="M282.636 1.81733V134.742H280.081V12.7213H264.931V134.742H262.362V1.81733H282.636Z" fill="#D7D7D7"/>
<path d="M310.27 68.2798C310.27 82.1262 309.748 94.1768 308.704 104.432C307.66 114.643 306.223 122.562 304.391 128.187C302.569 133.769 300.472 136.56 298.1 136.56C295.729 136.56 293.627 133.769 291.796 128.187C289.974 122.562 288.54 114.643 287.497 104.432C286.462 94.1768 285.944 82.1262 285.944 68.2798C285.944 54.4335 286.462 42.4045 287.497 32.1928C288.54 21.9378 289.978 14.0194 291.81 8.43762C293.641 2.81254 295.738 0 298.1 0C300.472 0 302.569 2.81254 304.391 8.43762C306.223 14.0194 307.66 21.9378 308.704 32.1928C309.748 42.4045 310.27 54.4335 310.27 68.2798ZM307.77 68.2798C307.77 56.3806 307.349 46.1906 306.507 37.7097C305.664 29.1855 304.515 22.6734 303.059 18.1733C301.603 13.6733 299.95 11.4232 298.1 11.4232C296.26 11.4232 294.612 13.6733 293.156 18.1733C291.7 22.6734 290.546 29.1639 289.694 37.6448C288.852 46.1257 288.431 56.3373 288.431 68.2798C288.431 80.179 288.852 90.3691 289.694 98.85C290.537 107.331 291.686 113.843 293.142 118.386C294.598 122.886 296.251 125.136 298.1 125.136C299.95 125.136 301.603 122.886 303.059 118.386C304.524 113.886 305.678 107.396 306.52 98.9149C307.363 90.3907 307.78 80.179 307.77 68.2798Z" fill="#D7D7D7"/>
<path d="M310.9 12.7213V1.81733H331.298V12.7213H322.383V134.742H319.815V12.7213H310.9Z" fill="#D7D7D7"/>
<path d="M334.373 134.742V1.81733H343.452C345.449 1.81733 347.115 3.63467 348.452 7.26934C349.798 10.8607 350.81 15.7502 351.488 21.9378C352.174 28.1254 352.518 35.0919 352.518 42.8372C352.518 50.5825 352.179 57.5705 351.501 63.8014C350.824 69.989 349.816 74.9001 348.48 78.5348C347.143 82.1262 345.481 83.9219 343.493 83.9219H336.351V73.0179H343.425C344.899 73.0179 346.122 71.7198 347.092 69.1236C348.063 66.4841 348.786 62.8927 349.262 58.3494C349.748 53.8061 349.99 48.6353 349.99 42.8372C349.99 37.039 349.748 31.8683 349.262 27.3249C348.786 22.7816 348.058 19.2118 347.078 16.6156C346.108 14.0194 344.876 12.7213 343.384 12.7213H336.942V134.742H334.373Z" fill="#D7D7D7"/>
<path d="M355.84 134.742V1.81733H372.158V12.7213H358.409V62.7629H371.293V73.6669H358.409V123.838H372.433V134.742H355.84Z" fill="#D7D7D7"/>
<path d="M376.099 134.742V1.81733H392.513V12.7213H378.667V60.2316H386.648C388.525 60.2316 390.118 61.7244 391.428 64.7101C392.746 67.6957 393.753 71.9145 394.449 77.3665C395.145 82.8185 395.493 89.2224 395.493 96.5783C395.493 104.194 395.145 110.857 394.449 116.569C393.763 122.281 392.76 126.737 391.441 129.939C390.132 133.141 388.534 134.742 386.648 134.742H376.099ZM378.667 124.033H386.648C387.994 124.033 389.134 122.8 390.068 120.333C391.011 117.824 391.73 114.492 392.224 110.338C392.719 106.141 392.966 101.468 392.966 96.3187C392.966 89.1792 392.407 83.2079 391.29 78.405C390.182 73.5588 388.635 71.1356 386.648 71.1356H378.667V124.033Z" fill="#D7D7D7"/>
<path d="M396.312 134.742V123.514H397.054C398.217 123.514 399.137 121.696 399.815 118.062C400.493 114.384 400.992 108.499 401.312 100.408C401.633 92.3162 401.843 81.6719 401.944 68.4745L402.438 1.81733H418.949V134.742H416.38V12.7213H404.883L404.43 71.1356C404.32 85.1983 404.046 96.9461 403.606 106.379C403.167 115.768 402.434 122.843 401.408 127.603C400.392 132.362 398.954 134.742 397.095 134.742H396.312Z" fill="#D7D7D7"/>
<path d="M423.717 134.742V1.81733H440.035V12.7213H426.285V62.7629H439.169V73.6669H426.285V123.838H440.309V134.742H423.717Z" fill="#D7D7D7"/>
<path d="M443.975 134.742V1.81733H446.544V62.7629H462.505V1.81733H465.073V134.742H462.505V73.6669H446.544V134.742H443.975Z" fill="#D7D7D7"/>
<path d="M469.824 1.81733H472.351V113.259H472.571L489.233 1.81733H491.732V134.742H489.164V23.4306H488.944L472.31 134.742H469.824V1.81733Z" fill="#D7D7D7"/>
<path d="M496.504 134.742V1.81733H512.822V12.7213H499.072V62.7629H511.957V73.6669H499.072V123.838H513.097V134.742H496.504Z" fill="#D7D7D7"/>
<path d="M545.001 1.81733V134.742H542.446V12.7213H527.296V134.742H524.727V1.81733H545.001Z" fill="#D7D7D7"/>
<path d="M549.574 1.81733H552.101V113.259H552.321L568.982 1.81733H571.482V134.742H568.913V23.4306H568.694L552.06 134.742H549.574V1.81733Z" fill="#D7D7D7"/>
<path d="M576.253 134.742V1.81733H585.745C587.576 1.81733 589.101 3.33178 590.319 6.36067C591.546 9.38956 592.466 13.5218 593.08 18.7575C593.693 23.9931 594 29.9427 594 36.6063C594 42.1448 593.803 46.8829 593.409 50.8204C593.015 54.758 592.48 57.9383 591.802 60.3614C591.124 62.7846 590.369 64.537 589.536 65.6187V66.6572C590.442 66.9601 591.321 68.4745 592.173 71.2005C593.025 73.8833 593.725 77.6478 594.275 82.494C594.824 87.3402 595.099 93.1384 595.099 99.8885C595.099 106.595 594.783 112.588 594.151 117.867C593.519 123.103 592.548 127.235 591.239 130.264C589.939 133.25 588.281 134.742 586.267 134.742H576.253ZM578.822 123.838H586.267C588.437 123.838 590.039 121.567 591.074 117.023C592.118 112.48 592.64 106.768 592.64 99.8885C592.64 94.8259 592.379 90.2393 591.857 86.1287C591.344 81.9747 590.616 78.6862 589.673 76.2631C588.739 73.84 587.64 72.6285 586.377 72.6285H578.822V123.838ZM578.822 61.8543H585.978C587.086 61.8543 588.057 60.7725 588.89 58.609C589.723 56.4455 590.374 53.4599 590.841 49.6522C591.308 45.8444 591.541 41.4958 591.541 36.6063C591.541 29.5533 591.056 23.8201 590.085 19.4065C589.115 14.9497 587.668 12.7213 585.745 12.7213H578.822V61.8543Z" fill="#D7D7D7"/>
<path d="M598.589 134.742V1.81733H601.158V62.7629H617.119V1.81733H619.687V134.742H617.119V73.6669H601.158V134.742H598.589Z" fill="#D7D7D7"/>
<path d="M647.5 68.2798C647.5 82.1262 646.978 94.1768 645.934 104.432C644.891 114.643 643.453 122.562 641.621 128.187C639.799 133.769 637.702 136.56 635.331 136.56C632.959 136.56 630.857 133.769 629.026 128.187C627.204 122.562 625.77 114.643 624.727 104.432C623.692 94.1768 623.174 82.1262 623.174 68.2798C623.174 54.4335 623.692 42.4045 624.727 32.1928C625.77 21.9378 627.208 14.0194 629.04 8.43762C630.871 2.81254 632.968 0 635.331 0C637.702 0 639.799 2.81254 641.621 8.43762C643.453 14.0194 644.891 21.9378 645.934 32.1928C646.978 42.4045 647.5 54.4335 647.5 68.2798ZM645 68.2798C645 56.3806 644.579 46.1906 643.737 37.7097C642.894 29.1855 641.745 22.6734 640.289 18.1733C638.833 13.6733 637.18 11.4232 635.331 11.4232C633.49 11.4232 631.842 13.6733 630.386 18.1733C628.93 22.6734 627.776 29.1639 626.924 37.6448C626.082 46.1257 625.661 56.3373 625.661 68.2798C625.661 80.179 626.082 90.3691 626.924 98.85C627.767 107.331 628.916 113.843 630.372 118.386C631.828 122.886 633.481 125.136 635.331 125.136C637.18 125.136 638.833 122.886 640.289 118.386C641.754 113.886 642.908 107.396 643.75 98.9149C644.593 90.3907 645.01 80.179 645 68.2798Z" fill="#D7D7D7"/>
<path d="M667.432 1.81733V12.7213H653.573V134.742H651.005V1.81733H667.432Z" fill="#D7D7D7"/>
<path d="M692.399 68.2798C692.399 82.1262 691.877 94.1768 690.833 104.432C689.789 114.643 688.351 122.562 686.52 128.187C684.698 133.769 682.601 136.56 680.229 136.56C677.857 136.56 675.756 133.769 673.924 128.187C672.102 122.562 670.669 114.643 669.625 104.432C668.59 94.1768 668.073 82.1262 668.073 68.2798C668.073 54.4335 668.59 42.4045 669.625 32.1928C670.669 21.9378 672.107 14.0194 673.938 8.43762C675.769 2.81254 677.866 0 680.229 0C682.601 0 684.698 2.81254 686.52 8.43762C688.351 14.0194 689.789 21.9378 690.833 32.1928C691.877 42.4045 692.399 54.4335 692.399 68.2798ZM689.899 68.2798C689.899 56.3806 689.478 46.1906 688.635 37.7097C687.793 29.1855 686.644 22.6734 685.188 18.1733C683.732 13.6733 682.079 11.4232 680.229 11.4232C678.388 11.4232 676.74 13.6733 675.284 18.1733C673.828 22.6734 672.674 29.1639 671.823 37.6448C670.98 46.1257 670.559 56.3373 670.559 68.2798C670.559 80.179 670.98 90.3691 671.823 98.85C672.665 107.331 673.814 113.843 675.27 118.386C676.726 122.886 678.379 125.136 680.229 125.136C682.079 125.136 683.732 122.886 685.188 118.386C686.653 113.886 687.806 107.396 688.649 98.9149C689.491 90.3907 689.908 80.179 689.899 68.2798Z" fill="#D7D7D7"/>
<path d="M704.074 134.742V1.81733H706.643V62.7629H722.604V1.81733H725.172V134.742H722.604V73.6669H706.643V134.742H704.074Z" fill="#D7D7D7"/>
<path d="M729.964 134.742H727.272L737.505 1.81733H740.252L750.485 134.742H747.793L738.975 17.5892H738.783L729.964 134.742ZM731.901 83.7921H745.856V94.6961H731.901V83.7921Z" fill="#D7D7D7"/>
<path d="M772.667 1.81733V134.742H770.112V12.7213H754.962V134.742H752.393V1.81733H772.667Z" fill="#D7D7D7"/>
<path d="M777.239 1.81733H779.766V113.259H779.986L796.648 1.81733H799.148V134.742H796.579V23.4306H796.359L779.725 134.742H777.239V1.81733Z" fill="#D7D7D7"/>
<path d="M802.216 12.7213V1.81733H822.613V12.7213H813.699V134.742H811.13V12.7213H802.216Z" fill="#D7D7D7"/>
<path d="M841.992 134.742L832.309 72.0443H828.257V134.742H825.688V1.81733H828.257V61.2052H830.798L841.168 1.81733H844.218L833.792 61.7244L845.069 134.742H841.992Z" fill="#D7D7D7"/>
<path d="M847.234 134.742H844.542L854.775 1.81733H857.522L867.755 134.742H865.063L856.245 17.5892H856.053L847.234 134.742ZM849.171 83.7921H863.127V94.6961H849.171V83.7921Z" fill="#D7D7D7"/>
<path d="M878.04 134.742V1.81733H887.532C889.363 1.81733 890.888 3.33178 892.105 6.36067C893.333 9.38956 894.253 13.5218 894.866 18.7575C895.48 23.9931 895.787 29.9427 895.787 36.6063C895.787 42.1448 895.59 46.8829 895.196 50.8204C894.802 54.758 894.267 57.9383 893.589 60.3614C892.911 62.7846 892.156 64.537 891.323 65.6187V66.6572C892.229 66.9601 893.108 68.4745 893.96 71.2005C894.811 73.8833 895.512 77.6478 896.061 82.494C896.611 87.3402 896.885 93.1384 896.885 99.8885C896.885 106.595 896.57 112.588 895.938 117.867C895.306 123.103 894.335 127.235 893.026 130.264C891.726 133.25 890.068 134.742 888.053 134.742H878.04ZM880.609 123.838H888.053C890.224 123.838 891.826 121.567 892.861 117.023C893.905 112.48 894.427 106.768 894.427 99.8885C894.427 94.8259 894.166 90.2393 893.644 86.1287C893.131 81.9747 892.403 78.6862 891.46 76.2631C890.526 73.84 889.427 72.6285 888.163 72.6285H880.609V123.838ZM880.609 61.8543H887.765C888.873 61.8543 889.844 60.7725 890.677 58.609C891.51 56.4455 892.16 53.4599 892.627 49.6522C893.094 45.8444 893.328 41.4958 893.328 36.6063C893.328 29.5533 892.843 23.8201 891.872 19.4065C890.901 14.9497 889.455 12.7213 887.532 12.7213H880.609V61.8543Z" fill="#D7D7D7"/>
<path d="M900.376 134.742V1.81733H909.455C911.452 1.81733 913.118 3.63467 914.455 7.26934C915.801 10.8607 916.813 15.7502 917.491 21.9378C918.177 28.1254 918.521 35.0919 918.521 42.8372C918.521 50.5825 918.182 57.5705 917.504 63.8014C916.827 69.989 915.82 74.9001 914.483 78.5348C913.146 82.1262 911.484 83.9219 909.497 83.9219H902.354V73.0179H909.428C910.902 73.0179 912.125 71.7198 913.095 69.1236C914.066 66.4841 914.789 62.8927 915.266 58.3494C915.751 53.8061 915.994 48.6353 915.994 42.8372C915.994 37.039 915.751 31.8683 915.266 27.3249C914.789 22.7816 914.061 19.2118 913.082 16.6156C912.111 14.0194 910.879 12.7213 909.387 12.7213H902.945V134.742H900.376Z" fill="#D7D7D7"/>
<path d="M921.843 134.742V1.81733H938.161V12.7213H924.412V62.7629H937.296V73.6669H924.412V123.838H938.436V134.742H921.843Z" fill="#D7D7D7"/>
<path d="M939.451 167V123.838H941.236C941.887 120.636 942.486 116.418 943.036 111.182C943.585 105.903 944.043 99.1096 944.409 90.8018C944.785 82.4507 945.027 72.0227 945.137 59.5177L945.7 1.81733H961.785V123.838H965.081V166.675H962.637V134.742H941.896V167H939.451ZM944.313 123.838H959.34V12.7213H948.036L947.596 59.5177C947.495 69.6861 947.307 78.7511 947.033 86.7128C946.758 94.6312 946.392 101.663 945.934 107.807C945.485 113.908 944.945 119.252 944.313 123.838Z" fill="#D7D7D7"/>
<path d="M967.913 1.81733H970.44V113.259H970.66L987.321 1.81733H989.821V134.742H987.253V23.4306H987.033L970.399 134.742H967.913V1.81733Z" fill="#D7D7D7"/>
<path d="M992.889 12.7213V1.81733H1013.29V12.7213H1004.37V134.742H1001.8V12.7213H992.889Z" fill="#D7D7D7"/>
<path d="M1024.53 134.742V1.81733H1034.02C1035.86 1.81733 1037.38 3.33178 1038.6 6.36067C1039.83 9.38956 1040.75 13.5218 1041.36 18.7575C1041.97 23.9931 1042.28 29.9427 1042.28 36.6063C1042.28 42.1448 1042.08 46.8829 1041.69 50.8204C1041.3 54.758 1040.76 57.9383 1040.08 60.3614C1039.4 62.7846 1038.65 64.537 1037.82 65.6187V66.6572C1038.72 66.9601 1039.6 68.4745 1040.45 71.2005C1041.3 73.8833 1042 77.6478 1042.55 82.494C1043.1 87.3402 1043.38 93.1384 1043.38 99.8885C1043.38 106.595 1043.06 112.588 1042.43 117.867C1041.8 123.103 1040.83 127.235 1039.52 130.264C1038.22 133.25 1036.56 134.742 1034.55 134.742H1024.53ZM1027.1 123.838H1034.55C1036.72 123.838 1038.32 121.567 1039.35 117.023C1040.4 112.48 1040.92 106.768 1040.92 99.8885C1040.92 94.8259 1040.66 90.2393 1040.14 86.1287C1039.62 81.9747 1038.9 78.6862 1037.95 76.2631C1037.02 73.84 1035.92 72.6285 1034.66 72.6285H1027.1V123.838ZM1027.1 61.8543H1034.26C1035.37 61.8543 1036.34 60.7725 1037.17 58.609C1038 56.4455 1038.65 53.4599 1039.12 49.6522C1039.59 45.8444 1039.82 41.4958 1039.82 36.6063C1039.82 29.5533 1039.34 23.8201 1038.36 19.4065C1037.39 14.9497 1035.95 12.7213 1034.02 12.7213H1027.1V61.8543Z" fill="#D7D7D7"/>
<path d="M1046.91 134.742H1044.22L1054.45 1.81733H1057.2L1067.43 134.742H1064.74L1055.92 17.5892H1055.73L1046.91 134.742ZM1048.85 83.7921H1062.8V94.6961H1048.85V83.7921Z" fill="#D7D7D7"/>
<path d="M1069.54 1.81733H1072.11V123.514H1082.66V1.81733H1085.23V123.514H1095.79V1.81733H1098.35V134.742H1069.54V1.81733Z" fill="#D7D7D7"/>
<path d="M1103.1 134.742V1.81733H1119.42V12.7213H1105.67V62.7629H1118.55V73.6669H1105.67V123.838H1119.69V134.742H1103.1Z" fill="#D7D7D7"/>
<path d="M1123.36 1.81733H1126.32L1136.53 117.607H1136.78L1146.98 1.81733H1149.95V134.742H1147.53V27.4547H1147.31L1137.82 134.742H1135.49L1126 27.4547H1125.78V134.742H1123.36V1.81733Z" fill="#D7D7D7"/>
<path d="M1155.7 136.56V125.201H1157.1C1157.89 125.201 1158.54 124.617 1159.06 123.449C1159.59 122.237 1160.03 120.571 1160.38 118.451C1160.74 116.288 1161.04 113.756 1161.3 110.857L1161.77 105.535L1152.08 1.81733H1154.85L1163.06 90.8667L1170.64 1.81733H1173.36L1163.65 114.492C1163.26 118.906 1162.81 122.778 1162.3 126.11C1161.81 129.399 1161.16 131.973 1160.35 133.834C1159.55 135.651 1158.49 136.56 1157.17 136.56H1155.7Z" fill="#D7D7D7"/>
<path d="M1192.17 136.56C1190.44 136.56 1188.89 135.088 1187.53 132.146C1186.16 129.161 1185.08 125.028 1184.29 119.749C1183.49 114.47 1183.07 108.391 1183.02 101.511H1185.62C1185.67 106.357 1185.98 110.598 1186.57 114.232C1187.15 117.824 1187.93 120.636 1188.9 122.67C1189.87 124.66 1190.95 125.656 1192.14 125.656C1193.44 125.656 1194.59 124.509 1195.58 122.216C1196.58 119.922 1197.35 116.785 1197.91 112.805C1198.48 108.78 1198.77 104.237 1198.77 99.1745C1198.77 93.809 1198.48 89.071 1197.9 84.9604C1197.32 80.8497 1196.49 77.6478 1195.41 75.3544C1194.34 73.0611 1193.06 71.9145 1191.57 71.9145H1189.92V61.0105H1191.57C1192.79 61.0105 1193.86 59.972 1194.8 57.8951C1195.74 55.7748 1196.48 52.8109 1197.02 49.0031C1197.56 45.1954 1197.83 40.7169 1197.83 35.5678C1197.83 30.6783 1197.6 26.373 1197.13 22.6518C1196.66 18.9306 1196 16.0098 1195.15 13.8896C1194.31 11.7694 1193.33 10.7093 1192.2 10.7093C1191.11 10.7093 1190.11 11.7045 1189.21 13.6949C1188.3 15.6853 1187.57 18.4979 1187.01 22.1325C1186.46 25.7672 1186.16 30.0726 1186.13 35.0486H1183.64C1183.68 28.1254 1184.08 22.046 1184.85 16.8103C1185.63 11.5314 1186.66 7.42078 1187.94 4.47844C1189.23 1.49281 1190.66 0 1192.23 0C1193.88 0 1195.32 1.60099 1196.53 4.80296C1197.73 8.00492 1198.67 12.267 1199.33 17.5892C1200 22.8681 1200.33 28.6879 1200.33 35.0486C1200.33 42.6208 1199.9 49.1113 1199.03 54.52C1198.16 59.8855 1196.98 63.6067 1195.51 65.6836V66.5274C1197.3 68.2149 1198.71 71.9794 1199.74 77.8208C1200.78 83.619 1201.29 90.7369 1201.29 99.1745C1201.29 106.271 1200.9 112.653 1200.11 118.321C1199.32 123.946 1198.24 128.403 1196.87 131.692C1195.51 134.937 1193.94 136.56 1192.17 136.56Z" fill="#D7D7D7"/>
<path d="M1202.61 167V123.838H1204.4C1205.05 120.636 1205.64 116.418 1206.19 111.182C1206.74 105.903 1207.2 99.1096 1207.57 90.8018C1207.94 82.4507 1208.19 72.0227 1208.3 59.5177L1208.86 1.81733H1224.94V123.838H1228.24V166.675H1225.8V134.742H1205.05V167H1202.61ZM1207.47 123.838H1222.5V12.7213H1211.19L1210.75 59.5177C1210.65 69.6861 1210.47 78.7511 1210.19 86.7128C1209.92 94.6312 1209.55 101.663 1209.09 107.807C1208.64 113.908 1208.1 119.252 1207.47 123.838Z" fill="#D7D7D7"/>
<path d="M1254.13 68.2798C1254.13 82.1262 1253.61 94.1768 1252.57 104.432C1251.52 114.643 1250.09 122.562 1248.25 128.187C1246.43 133.769 1244.34 136.56 1241.96 136.56C1239.59 136.56 1237.49 133.769 1235.66 128.187C1233.84 122.562 1232.4 114.643 1231.36 104.432C1230.33 94.1768 1229.81 82.1262 1229.81 68.2798C1229.81 54.4335 1230.33 42.4045 1231.36 32.1928C1232.4 21.9378 1233.84 14.0194 1235.67 8.43762C1237.5 2.81254 1239.6 0 1241.96 0C1244.34 0 1246.43 2.81254 1248.25 8.43762C1250.09 14.0194 1251.52 21.9378 1252.57 32.1928C1253.61 42.4045 1254.13 54.4335 1254.13 68.2798ZM1251.63 68.2798C1251.63 56.3806 1251.21 46.1906 1250.37 37.7097C1249.53 29.1855 1248.38 22.6734 1246.92 18.1733C1245.47 13.6733 1243.81 11.4232 1241.96 11.4232C1240.12 11.4232 1238.48 13.6733 1237.02 18.1733C1235.56 22.6734 1234.41 29.1639 1233.56 37.6448C1232.72 46.1257 1232.29 56.3373 1232.29 68.2798C1232.29 80.179 1232.72 90.3691 1233.56 98.85C1234.4 107.331 1235.55 113.843 1237.01 118.386C1238.46 122.886 1240.11 125.136 1241.96 125.136C1243.81 125.136 1245.47 122.886 1246.92 118.386C1248.39 113.886 1249.54 107.396 1250.38 98.9149C1251.23 90.3907 1251.64 80.179 1251.63 68.2798Z" fill="#D7D7D7"/>
<path d="M1257.64 134.742V1.81733H1266.72C1268.71 1.81733 1270.38 3.63467 1271.72 7.26934C1273.06 10.8607 1274.07 15.7502 1274.75 21.9378C1275.44 28.1254 1275.78 35.0919 1275.78 42.8372C1275.78 50.5825 1275.44 57.5705 1274.77 63.8014C1274.09 69.989 1273.08 74.9001 1271.74 78.5348C1270.41 82.1262 1268.75 83.9219 1266.76 83.9219H1259.62V73.0179H1266.69C1268.16 73.0179 1269.39 71.7198 1270.36 69.1236C1271.33 66.4841 1272.05 62.8927 1272.53 58.3494C1273.01 53.8061 1273.26 48.6353 1273.26 42.8372C1273.26 37.039 1273.01 31.8683 1272.53 27.3249C1272.05 22.7816 1271.32 19.2118 1270.34 16.6156C1269.37 14.0194 1268.14 12.7213 1266.65 12.7213H1260.21V134.742H1257.64Z" fill="#D7D7D7"/>
<path d="M1302.17 68.2798C1302.17 82.1262 1301.65 94.1768 1300.6 104.432C1299.56 114.643 1298.12 122.562 1296.29 128.187C1294.47 133.769 1292.37 136.56 1290 136.56C1287.63 136.56 1285.52 133.769 1283.69 128.187C1281.87 122.562 1280.44 114.643 1279.39 104.432C1278.36 94.1768 1277.84 82.1262 1277.84 68.2798C1277.84 54.4335 1278.36 42.4045 1279.39 32.1928C1280.44 21.9378 1281.88 14.0194 1283.71 8.43762C1285.54 2.81254 1287.63 0 1290 0C1292.37 0 1294.47 2.81254 1296.29 8.43762C1298.12 14.0194 1299.56 21.9378 1300.6 32.1928C1301.65 42.4045 1302.17 54.4335 1302.17 68.2798ZM1299.67 68.2798C1299.67 56.3806 1299.25 46.1906 1298.4 37.7097C1297.56 29.1855 1296.41 22.6734 1294.96 18.1733C1293.5 13.6733 1291.85 11.4232 1290 11.4232C1288.16 11.4232 1286.51 13.6733 1285.05 18.1733C1283.6 22.6734 1282.44 29.1639 1281.59 37.6448C1280.75 46.1257 1280.33 56.3373 1280.33 68.2798C1280.33 80.179 1280.75 90.3691 1281.59 98.85C1282.43 107.331 1283.58 113.843 1285.04 118.386C1286.49 122.886 1288.15 125.136 1290 125.136C1291.85 125.136 1293.5 122.886 1294.96 118.386C1296.42 113.886 1297.57 107.396 1298.42 98.9149C1299.26 90.3907 1299.68 80.179 1299.67 68.2798Z" fill="#D7D7D7"/>
<path d="M1305.67 134.742V1.81733H1315.16C1316.99 1.81733 1318.52 3.33178 1319.74 6.36067C1320.96 9.38956 1321.88 13.5218 1322.5 18.7575C1323.11 23.9931 1323.42 29.9427 1323.42 36.6063C1323.42 42.1448 1323.22 46.8829 1322.83 50.8204C1322.43 54.758 1321.9 57.9383 1321.22 60.3614C1320.54 62.7846 1319.79 64.537 1318.95 65.6187V66.6572C1319.86 66.9601 1320.74 68.4745 1321.59 71.2005C1322.44 73.8833 1323.14 77.6478 1323.69 82.494C1324.24 87.3402 1324.52 93.1384 1324.52 99.8885C1324.52 106.595 1324.2 112.588 1323.57 117.867C1322.94 123.103 1321.97 127.235 1320.66 130.264C1319.36 133.25 1317.7 134.742 1315.68 134.742H1305.67ZM1308.24 123.838H1315.68C1317.86 123.838 1319.46 121.567 1320.49 117.023C1321.54 112.48 1322.06 106.768 1322.06 99.8885C1322.06 94.8259 1321.8 90.2393 1321.28 86.1287C1320.76 81.9747 1320.03 78.6862 1319.09 76.2631C1318.16 73.84 1317.06 72.6285 1315.79 72.6285H1308.24V123.838ZM1308.24 61.8543H1315.4C1316.5 61.8543 1317.48 60.7725 1318.31 58.609C1319.14 56.4455 1319.79 53.4599 1320.26 49.6522C1320.73 45.8444 1320.96 41.4958 1320.96 36.6063C1320.96 29.5533 1320.47 23.8201 1319.5 19.4065C1318.53 14.9497 1317.09 12.7213 1315.16 12.7213H1308.24V61.8543Z" fill="#D7D7D7"/>
<path d="M1329.86 60.2316H1338.56C1340.43 60.2316 1342.03 61.7244 1343.34 64.7101C1344.66 67.6957 1345.66 71.9145 1346.36 77.3665C1347.05 82.7752 1347.4 89.1792 1347.4 96.5783C1347.4 104.194 1347.05 110.857 1346.36 116.569C1345.67 122.281 1344.67 126.737 1343.35 129.939C1342.04 133.141 1340.44 134.742 1338.56 134.742H1328.01V1.81733H1330.58V124.033H1338.56C1339.9 124.033 1341.04 122.8 1341.98 120.333C1342.92 117.824 1343.64 114.492 1344.13 110.338C1344.63 106.141 1344.88 101.468 1344.88 96.3187C1344.88 89.1792 1344.32 83.2079 1343.2 78.405C1342.09 73.5588 1340.54 71.1356 1338.56 71.1356H1329.86V60.2316Z" fill="#D7D7D7"/>
<path d="M1353.14 1.88224V134.807H1350.57V1.88224H1353.14ZM1359.51 64.4504V75.3544H1351.31V64.4504H1359.51ZM1383 68.2798C1383 82.1262 1382.48 94.1768 1381.43 104.432C1380.39 114.643 1378.95 122.562 1377.12 128.187C1375.3 133.769 1373.2 136.56 1370.83 136.56C1368.46 136.56 1366.36 133.769 1364.53 128.187C1362.7 122.562 1361.27 114.643 1360.23 104.432C1359.19 94.1768 1358.67 82.1262 1358.67 68.2798C1358.67 54.4335 1359.19 42.4045 1360.23 32.1928C1361.27 21.9378 1362.71 14.0194 1364.54 8.43762C1366.37 2.81254 1368.47 0 1370.83 0C1373.2 0 1375.3 2.81254 1377.12 8.43762C1378.95 14.0194 1380.39 21.9378 1381.43 32.1928C1382.48 42.4045 1383 54.4335 1383 68.2798ZM1380.5 68.2798C1380.5 56.3806 1380.08 46.1906 1379.24 37.7097C1378.39 29.1855 1377.24 22.6734 1375.79 18.1733C1374.33 13.6733 1372.68 11.4232 1370.83 11.4232C1368.99 11.4232 1367.34 13.6733 1365.89 18.1733C1364.43 22.6734 1363.28 29.1639 1362.42 37.6448C1361.58 46.1257 1361.16 56.3373 1361.16 68.2798C1361.16 80.179 1361.58 90.3691 1362.42 98.85C1363.27 107.331 1364.42 113.843 1365.87 118.386C1367.33 122.886 1368.98 125.136 1370.83 125.136C1372.68 125.136 1374.33 122.886 1375.79 118.386C1377.25 113.886 1378.41 107.396 1379.25 98.9149C1380.09 90.3907 1380.51 80.179 1380.5 68.2798Z" fill="#D7D7D7"/>
</svg>
