<svg width="31" height="26" viewBox="0 0 31 26" fill="none" xmlns="http://www.w3.org/2000/svg">
<g clip-path="url(#clip0_181_109)">
<path d="M8.87458 14.3097L23.9935 4.83509C24.7999 4.43191 25.4046 4.6335 24.7999 5.03667L11.8984 16.7288L11.4952 22.1716L8.87458 14.3097ZM28.2269 0.19858L1.41585 10.4795C-0.398437 11.2859 -0.398438 12.2938 1.01267 12.697L7.66505 14.7129L10.2857 22.5748C10.6889 23.3811 10.4873 23.7843 11.2936 23.7843C11.8984 23.7843 12.3016 23.3811 12.7047 23.1796C12.9063 22.978 14.3174 21.5669 16.1317 19.9542L22.9856 24.9938C24.1951 25.8002 25.203 25.397 25.4048 23.7843L30.0411 2.21445C30.6459 0.400167 29.4366 -0.406182 28.2269 0.19858Z" fill="white"/>
</g>
<defs>
<clipPath id="clip0_181_109">
<rect width="30.1978" height="25.4" fill="white"/>
</clipPath>
</defs>
</svg>
