<svg width="35" height="28" viewBox="0 0 35 28" fill="none" xmlns="http://www.w3.org/2000/svg">
<g id="tw" clip-path="url(#clip0_181_115)">
<path id="Vector" d="M34.267 3.56655C32.9126 4.01802 31.5582 4.46948 30.2038 4.69521C31.784 3.79228 32.6869 2.43789 33.3641 0.857755C32.0097 1.76069 30.4296 2.21215 28.8494 2.43788C26.3664 -0.27091 23.6576 -0.722376 20.4973 1.08349C17.337 2.66362 16.2084 5.37241 17.1113 8.75841C11.2423 8.53267 6.50187 6.04961 2.89014 1.53495C0.632812 5.37241 1.31001 8.30694 5.14747 10.79C4.01881 10.79 2.89014 10.5643 1.98721 9.88707C1.98721 13.7245 3.79307 15.9819 7.63053 16.6591C6.50187 16.8848 5.59894 16.8848 4.47027 16.8848C5.3732 20.0451 7.63053 21.6252 11.0165 21.6252C8.082 24.1082 4.47027 25.0112 0.632812 24.5597C3.79307 26.5913 7.4048 27.72 11.2423 27.72C24.109 27.72 31.1068 17.1105 31.1068 7.85548C31.1068 7.62974 31.1068 7.17828 31.1068 6.95254C32.2354 6.04961 33.3641 4.92095 34.267 3.56655Z" fill="white"/>
</g>
<defs>
<clipPath id="clip0_181_115">
<rect width="33.6342" height="27.72" fill="white" transform="translate(0.632812)"/>
</clipPath>
</defs>
</svg>
