<svg width="35" height="20" viewBox="0 0 35 20" fill="none" xmlns="http://www.w3.org/2000/svg">
<g id="vk 1" clip-path="url(#clip0_181_112)">
<path id="Vector" d="M19.4206 19.3643C19.4206 19.3643 20.0968 19.3643 20.3222 18.9139C20.5476 18.6888 20.5476 18.0133 20.5476 18.0133C20.5476 18.0133 20.5476 15.3113 21.6745 14.861C23.0271 14.4106 24.6048 17.5629 26.1825 18.6888C27.5349 19.5894 28.4367 19.3643 28.4367 19.3643H32.9445C32.9445 19.3643 35.1986 19.1391 34.0717 17.3378C34.0717 17.1126 33.3953 15.9868 30.6906 13.2848C27.7603 10.5828 28.2113 11.0331 31.5921 6.52983C33.6207 3.82784 34.5225 2.02652 34.2971 1.35102C34.0717 0.675527 32.4937 0.900693 32.4937 0.900693H27.3095C27.3095 0.900693 26.8587 0.900692 26.6333 1.12586C26.4079 1.35102 26.1825 1.57619 26.1825 1.57619C26.1825 1.57619 25.281 3.82784 24.3794 5.62917C22.1255 9.45698 21.2237 9.68215 20.773 9.45698C19.8714 9.00665 20.0968 7.20533 20.0968 6.0795C20.0968 2.25168 20.5476 0.675527 18.9698 0.225196C18.519 3.02995e-05 18.0682 3.05176e-05 16.4904 3.05176e-05C14.6872 3.05176e-05 13.1094 3.00814e-05 12.2079 0.450361C11.5316 0.675527 11.0809 1.35102 11.5316 1.35102C11.7571 1.35102 12.6586 1.57619 13.1094 2.02652C13.5602 2.70202 13.5602 4.27817 13.5602 4.27817C13.5602 4.27817 13.7856 8.78149 12.884 9.23182C12.2078 9.68215 11.3062 8.78148 9.27766 5.404C8.15067 3.60268 7.47447 1.57619 7.47447 1.57619C7.47447 1.57619 7.24906 1.12586 7.02367 0.900693C6.79825 0.675527 6.34747 0.675527 6.34747 0.675527H1.61409C1.61409 0.675527 0.937872 0.675527 0.712481 1.12586C0.487084 1.35102 0.712481 2.02652 0.712481 2.02652C0.712481 2.02652 4.54428 11.0331 8.82686 15.5364C12.6586 19.5894 17.1666 19.3643 17.1666 19.3643H19.4206Z" fill="white"/>
</g>
<defs>
<clipPath id="clip0_181_112">
<rect width="33.7748" height="19.389" fill="white" transform="translate(0.612305)"/>
</clipPath>
</defs>
</svg>
